<?xml version="1.0" encoding="utf-8"?>
<!-- Generator: Adobe Illustrator 17.1.0, SVG Export Plug-In . SVG Version: 6.00 Build 0)  -->
<!DOCTYPE svg PUBLIC "-//W3C//DTD SVG 1.1//EN" "http://www.w3.org/Graphics/SVG/1.1/DTD/svg11.dtd">
<svg version="1.1" id="Capa_1" xmlns="http://www.w3.org/2000/svg" xmlns:xlink="http://www.w3.org/1999/xlink" x="0px" y="0px"
	 width="407.6px" height="407.6px" viewBox="0 0 407.6 407.6" enable-background="new 0 0 407.6 407.6" xml:space="preserve">
<g>
	<g>
		<path d="M203.8,303.3c11.3,0,105.5-117,105.5-175.2c0-58.2-47.2-105.5-105.5-105.5c-58.2,0-105.5,47.2-105.5,105.5
			C98.4,186.3,192.9,303.3,203.8,303.3z M135.7,124.4c0-37.6,30.5-68.1,68.1-68.1c37.6,0,68.1,30.5,68.1,68.1s-30.5,68.1-68.1,68.1
			C166.2,192.5,135.7,162,135.7,124.4z"/>
		<path d="M391.1,222.7c0-9.7-7.9-17.6-17.6-17.6c0,0-47,0-64.2,0c-1.3,0-2.9-0.1-4.6,2.8c-3.4,5.7-3.1,5.2-6.3,10.5
			c-1.5,2.4,0.8,3.3,1.7,3.3c20.6,0,73.4,0,73.4,0c0.6,0,1.1,0.5,1.1,1.1l16.5,144.7c0,0.6-0.5,1.1-1.1,1.1H17.6
			c-0.6,0-1.1-0.5-1.1-1.1L33,222.7c0-0.6,0.5-1.1,1.1-1.1c0,0,54.6,0,72.8,0c1.5,0,3.9-0.9,1.2-5.3c-3.2-5.2-1.9-3.6-5.3-9.4
			c-1.2-2.1-3-1.9-5.3-1.9c-15.8,0-63.4,0-63.4,0c-9.7,0-17.6,7.9-17.6,17.6L0,367.4c0,9.7,7.9,17.6,17.6,17.6H390
			c9.7,0,17.6-7.9,17.6-17.6L391.1,222.7z"/>
	</g>
</g>
</svg>
