<?xml version="1.0" encoding="utf-8"?>
<!-- Generator: Adobe Illustrator 17.1.0, SVG Export Plug-In . SVG Version: 6.00 Build 0)  -->
<!DOCTYPE svg PUBLIC "-//W3C//DTD SVG 1.1//EN" "http://www.w3.org/Graphics/SVG/1.1/DTD/svg11.dtd">
<svg version="1.1" id="Capa_1" xmlns="http://www.w3.org/2000/svg" xmlns:xlink="http://www.w3.org/1999/xlink" x="0px" y="0px"
	 width="560px" height="497.3px" viewBox="0.6 0 560 497.3" enable-background="new 0.6 0 560 497.3" xml:space="preserve">
<g>
	<g>
		<g>
			<rect x="81.3" y="250.5" width="49.5" height="49.5"/>
			<rect x="81.3" y="328.9" width="49.5" height="49.5"/>
			<rect x="164.3" y="172.2" width="49.5" height="49.5"/>
			<rect x="164.3" y="250.5" width="49.5" height="49.5"/>
			<rect x="164.3" y="328.9" width="49.5" height="49.5"/>
			<path d="M461.6,179.3V34.8c0-19.2-15.7-34.8-34.8-34.8H35.5C16.3,0,0.6,15.7,0.6,34.8v391.2
				c0,19.2,15.7,34.8,34.8,34.8h255.4c28.4,22.7,64.4,36.4,103.6,36.4c91.8,0,166.2-74.4,166.2-166.1
				C560.6,263.3,519.9,205.1,461.6,179.3z M151.6,34.2h158.8v41.1H151.6V34.2z M43.4,114.5h375.3V167c-7.9-1.2-16-2-24.3-2
				c-36.6,0-70.2,12-97.7,32v-24.9h-49.5v49.5h22.5c-25.7,29.2-41.4,67.5-41.4,109.5c0,30,8.1,58,21.9,82.3H43.4V114.5z
				 M379.2,195.8c0-8.4,6.9-15.2,15.2-15.2c8.5,0,15.2,6.8,15.3,15.2c0,8.4-6.8,15.2-15.3,15.2C386.1,211.1,379.2,204.3,379.2,195.8
				z M274.4,331.2c0,8.4-6.8,15.3-15.3,15.3c-8.4,0-15.2-6.8-15.2-15.3s6.8-15.2,15.2-15.2C267.5,316,274.3,322.7,274.4,331.2z
				 M394.4,481.8c-8.4,0-15.2-6.8-15.2-15.2c0-8.5,6.9-15.3,15.2-15.3c8.5,0,15.2,6.8,15.3,15.3C409.7,475,402.9,481.8,394.4,481.8z
				 M486.7,262.5l-63.8,63.7c0.4,2,1.2,3.8,1.2,5.9c0,16.5-13.4,29.9-29.9,29.9c-15.9,0-28.7-12.6-29.6-28.4L296.9,281
				c-5.9-4.6-7.2-12.7-3-18.1c4.2-5.5,12.5-6.1,18.3-1.6l62,48.2c5.4-5,12.4-8.2,20.3-8.2c5.2,0,9.9,1.7,14.1,4l60.4-60.5
				c5.6-5.6,14.2-6.2,19-1.3C492.8,248.4,492.2,256.9,486.7,262.5z M529.8,346.4c-8.4,0-15.2-6.8-15.2-15.3s6.8-15.2,15.2-15.2
				c8.4,0,15.3,6.8,15.3,15.2S538.2,346.4,529.8,346.4z"/>
		</g>
	</g>
</g>
</svg>
