<?xml version="1.0" encoding="utf-8"?>
<!-- Generator: Adobe Illustrator 17.1.0, SVG Export Plug-In . SVG Version: 6.00 Build 0)  -->
<!DOCTYPE svg PUBLIC "-//W3C//DTD SVG 1.1//EN" "http://www.w3.org/Graphics/SVG/1.1/DTD/svg11.dtd">
<svg version="1.1" id="Layer_1" xmlns="http://www.w3.org/2000/svg" xmlns:xlink="http://www.w3.org/1999/xlink" x="0px" y="0px"
	 width="202px" height="171px" viewBox="0 0 202 171" enable-background="new 0 0 202 171" xml:space="preserve">
<path d="M196.1,41H5.9C2.6,41,0,38.4,0,35.1V5.9C0,2.6,2.6,0,5.9,0h190.2c3.3,0,5.9,2.6,5.9,5.9v29.2C202,38.4,199.4,41,196.1,41z"
	/>
<path d="M196.1,106H5.9c-3.3,0-5.9-2.6-5.9-5.9V70.9C0,67.6,2.6,65,5.9,65h190.2c3.3,0,5.9,2.6,5.9,5.9v29.2
	C202,103.4,199.4,106,196.1,106z"/>
<path d="M196.1,171H5.9c-3.3,0-5.9-2.6-5.9-5.9v-29.2c0-3.3,2.6-5.9,5.9-5.9h190.2c3.3,0,5.9,2.6,5.9,5.9v29.2
	C202,168.4,199.4,171,196.1,171z"/>
</svg>
