<?xml version="1.0" encoding="utf-8"?>
<!-- Generator: Adobe Illustrator 17.1.0, SVG Export Plug-In . SVG Version: 6.00 Build 0)  -->
<!DOCTYPE svg PUBLIC "-//W3C//DTD SVG 1.1//EN" "http://www.w3.org/Graphics/SVG/1.1/DTD/svg11.dtd">
<svg version="1.1" id="Capa_1" xmlns="http://www.w3.org/2000/svg" xmlns:xlink="http://www.w3.org/1999/xlink" x="0px" y="0px"
	 width="485.2px" height="485.2px" viewBox="0 0 485.2 485.2" enable-background="new 0 0 485.2 485.2" xml:space="preserve">
<g>
	<path d="M242.6,0C108.6,0,0,108.6,0,242.6c0,134,108.6,242.6,242.6,242.6s242.6-108.6,242.6-242.6C485.2,108.6,376.6,0,242.6,0z
		 M257.8,454.1v-29.6h-30.3v29.6c-104.9-7.5-188.9-91.4-196.3-196.3h29.6v-30.3H31.1c7.5-104.9,91.4-188.9,196.3-196.3v29.6h30.3
		V31.1c104.9,7.5,188.9,91.4,196.3,196.3h-29.6v30.3h29.6C446.7,362.7,362.7,446.7,257.8,454.1z M354.2,178.2
		c2.1,3.6,0.8,8.3-2.8,10.4l-80.1,46.2c0.7,2.6,1.6,5.1,1.6,7.8c0,16.8-13.6,30.3-30.3,30.3c-16.8,0-30.3-13.6-30.3-30.3L130,195.1
		c-7.3-4.2-9.7-13.5-5.6-20.7c4.2-7.3,13.5-9.8,20.7-5.6l82.8,47.8c4.4-2.5,9.2-4.3,14.7-4.3c8.5,0,16.1,3.5,21.6,9.1l79.6-46
		C347.4,173.3,352.1,174.5,354.2,178.2z"/>
</g>
</svg>
