<?xml version="1.0" encoding="utf-8"?>
<!-- Generator: Adobe Illustrator 17.1.0, SVG Export Plug-In . SVG Version: 6.00 Build 0)  -->
<!DOCTYPE svg PUBLIC "-//W3C//DTD SVG 1.1//EN" "http://www.w3.org/Graphics/SVG/1.1/DTD/svg11.dtd">
<svg version="1.1" id="Capa_1" xmlns="http://www.w3.org/2000/svg" xmlns:xlink="http://www.w3.org/1999/xlink" x="0px" y="0px"
	 width="560px" height="496.2px" viewBox="0 0 560 496.2" enable-background="new 0 0 560 496.2" xml:space="preserve">
<g>
	<path d="M76.1,483.6c0,0-0.5,12.5,11.7,12.5c15.2,0,141.2-0.2,141.2-0.2l0.2-115.7c0,0-2-19.1,16.5-19.1h58.6
		c21.9,0,20.5,19.1,20.5,19.1l-0.2,115.3c0,0,119.4,0,138.2,0c15.5,0,14.8-15.6,14.8-15.6V266.8L282.9,93.6L76.1,266.8
		C76.1,266.8,76.1,483.6,76.1,483.6z"/>
	<path d="M0,250.7c0,0,17.6,32.4,55.8,0L284.6,57.1l214.5,192.3c44.3,32,60.9,0,60.9,0L284.6,0L0,250.7z"/>
	<polygon points="493.9,56.7 438.7,56.7 438.9,123.6 493.9,170.2 	"/>
</g>
</svg>
