<?xml version="1.0" encoding="utf-8"?>
<!-- Generator: Adobe Illustrator 17.1.0, SVG Export Plug-In . SVG Version: 6.00 Build 0)  -->
<!DOCTYPE svg PUBLIC "-//W3C//DTD SVG 1.1//EN" "http://www.w3.org/Graphics/SVG/1.1/DTD/svg11.dtd">
<svg version="1.1" id="stroke" xmlns="http://www.w3.org/2000/svg" xmlns:xlink="http://www.w3.org/1999/xlink" x="0px" y="0px"
	 width="9507.4px" height="2335.3px" viewBox="0 0 9507.4 2335.3" enable-background="new 0 0 9507.4 2335.3" xml:space="preserve">
<g>
	<path fill="#CC2E45" d="M995.1,1959.6c-222.1-72.3-369.8-165.9-481.7-316.8C322.3,1705.2,142.5,1782.4,0,1806
		c240.8,177.3,611.8,609,1142.1,516.3c0,0,0,0,0,0c0,0,0,0,0,0c116.2-20.3,240.1-65.8,371.9-144.7c38.1-22.8,76.9-48.4,116.4-77
		C1366.9,2055.5,1160.4,2013.4,995.1,1959.6z"/>
	<path fill="#C63D4A" d="M979.4,944.5c-186.5-85.3-437.3-140.3-790.9-201c102.1,435,185.7,711.5,324.8,899.2
		c124.3-40.6,253.3-74.9,379.8-84.2C860.8,1324.5,891.5,1131.2,979.4,944.5z"/>
	<path fill="#E56565" d="M979.4,944.5c371.6,170,487.6,460.3,651,1156.2c590.2-511.5,581.1-1007,144.2-2100.7
		C1387.9,383.1,1115.4,655.8,979.4,944.5z"/>
	<path fill="#C9203D" d="M979.4,944.5c-87.9,186.6-118.6,379.9-86.2,614c286.6-21,560.3,86.8,737.2,542.2
		C1467.1,1404.9,1351,1114.5,979.4,944.5z"/>
	<path fill="#A41D38" d="M893.2,1558.5c-126.5,9.3-255.5,43.6-379.8,84.2c111.9,150.9,259.6,244.5,481.7,316.8
		C943.6,1811.8,909.9,1679.7,893.2,1558.5z"/>
	<path fill="#931C33" d="M893.2,1558.5c16.8,121.2,50.5,253.3,101.9,401c165.3,53.8,371.8,95.9,635.3,141.2
		C1453.5,1645.3,1179.7,1537.6,893.2,1558.5z"/>
</g>
<circle fill="#E56565" cx="1827.6" cy="2174.2" r="132"/>
<text transform="matrix(1 0 0 1 2505.6516 1299.1597)" display="none" fill="#787878" font-family="'ChocolateOT'" font-size="1140">Progressive Care</text>
<text transform="matrix(1 0 0 1 2989.7166 2004.3508)" fill="#B2B3B3" font-family="'AeroMaticsRegular'" font-size="400">Gynecology, Obstetrics, Infertility</text>
<g display="none">
	<path display="inline" fill="#787878" d="M2666.4,643.9l6.8-3.4l5.7-1.1h3.4l9.1,3.4l6.8-10.3l11.4-9.1l13.7-9.1h3.4h1.1h9.1
		l11.4-3.4l1.1-4.6l9.1-6.8l8-5.7l13.7-3.4l25.1-10.3l38.8-9.2l34.2-9.2l17.1-1.2l27.4-9.2l18.2-1.2l13.7-2.3l4.6,8l19.4-13.8
		l10.3-3.8l2.3-1.2h1.1l12.5,3l16-3.6l14.8,3.6l33.1-6l17.1,1l61.5-1l30.8,4.5l14.8,4.5l13.7,1.1l26.2,4.6l4.6,2.3l11.4,10.3
		l21.7,4.6l5.7,4.6l2.3,2.3l4.6,9.1l10.2,6.8l6.8,6.8l-1.1,13.7l14.8,5.7l1.1,9.1l9.1,12.5l3.4,11.4l5.7,18.3l2.3,19.4v45.6
		l-1.1,10.3l-8,26.2l-3.4,16l-11.4,22.8l-19.4,29.7l-4.5,8l-6.8,4.6l-2.3,9.1l-1.1,1.1l-14.8,11.4l-11.4,10.3l-8-1.1l-9.1,12.5
		l-34.2,21.7l-28.5,9.1l-13.7-1.1l-8,6.8l-11.4,2.3l-12.5,6.8l-42.2,11.4l-12.5,2.3h-3.4l-16-3.4l-9.1,5.7l-5.7,2.3l-2.3,1.1
		l-23.9-3.4l-36.5,6.8l-6.8-8l-3.4,1.1l-6.8,10.3l-21.7-3.4l-27.4,2.3l-19.4-4.6h-11.4l-9.1-2.3l-10.2-1.1h-5.7h-14.8l-9.1,11.4
		l-13.7,16l-13.7,27.4l-14.8,9.1l-1.1,20.5l-19.4,22.8l-3.4,20.5l-9.1,12.5l-4.6,13.7l-9.1,8l-1.1,17.1l-30.8,66.2v31.9l-6.8,17.1
		l-10.2,10.3l-13.7,3.4l-14.8-3.4l-9.1-8l-11.4-17.1l-10.2-14.8l-5.7-11.4l-1.1-11.4l9.1-35.4l49-93.6l4.6-6.8l11.4-5.7l4.6,2.3
		l2.3-4.6v-1.1l-3.4-11.4l-1.1-5.7v-1.1l8-9.1V1011l6.8-12.6l11.4-27.4l6.8-4.6v-13.7l1.1-6.8l3.4-4.6l10.2-11.4l4.6-9.1h8v-17.1
		l1.1-5.7l4.6-5.7l8-8l8,4.5l1.1-2.3l-5.7-5.7l-1.1-4.6v-1.1l1.1-1.1l17.1-27.4l4.6-16l3.4-11.4l8-1.1l3.4-13.7l5.7-11.4l23.9-43.4
		l10.3-14.9l2.3-8l5.7-12.6v-13.7l4.6-13.7l3.4-12.6l5.7-8l8-10.3l12.5-1.1l10.3,1.1h1.1l12.5,13.7l8,6.8l4.6,18.3l11.4,22.9
		l3.4,25.1l-2.3,11.4l-5.7,5.7l-12.5,9.1l-8,8l-5.7,10.3l-6.8,21.7l-13.7,21.7l-11.4,34.3l-17.1,18.3l-2.3,13.7l-1.1,16l12.5-2.3
		l10.3-1.1h2.3l17.1,3.4l10.3-4.6l12.5,4.6l19.4-5.7l21.7,2.3l17.1-5.7l49-8l18.2-8l27.4-4.6l12.5-6.9l20.5-1.1l11.4-12.6l45.6-20.6
		l35.3-33.1l9.1-5.7l-1.1-9.1l10.3-8v-12.6l16-13.7l-4.6-5.7l5.7-16l-1.1-11.4l2.3-5.7v-14.8l-2.3-34.3l-10.2-25.1l-13.7-17.1
		l-11.4-8l-1.1-9.1h-16l-9.1-9.1l-16,1.1l-19.4-10.3l-13.7-1l-10.2-4.3l-19.4,2.3l-14.8-2l-19.4-1l-11.4-3.4l-11.4,6.7l-10.2-2.3
		l-34.2,3.4l-35.3-3.4l-11.4,8h-4.5l-3.4-5.7l-10.3,5.7l-9.1-2.3l-26.2,8l-41,5.7l-43.3,13.7l-11.4,1.1l-13.7,4.6l-11.4-1.1
		l-24,11.4l-25.1,11.4l-12.5,9.1l-14.8,1.1l-13.7,12.5l-29.6,23.9L2647,710l-12.5,4.6l-12.5,3.4l-1.1,13.7l-8,3.4l-3.4,4.6
		l-9.1,19.4l-3.4,22.8l-6.8,4.6l-6.8,3.4l-6.8,2.3l-5.7-2.3l-11.4-11.4l-8-30.8l5.7-21.7l14.8-18.2l21.7-16l27.4-19.4l17.1-8
		l14.8-3.4L2666.4,643.9z"/>
	<path display="inline" fill="#787878" d="M3218.2,982.7l6.8-12.5l27.4-16l9.1-11.4l9.1-5.7l5.7-8l12.5-8l13.7-8l1.1-1.5l17.1-1.5
		l20.5,4.6l12.5,11.4l3.4,8l2.3,18.3l23.9,69.6l-3.4,17.1l-3.4,6.9l-16,18.2l-6.8,9.1l-9.1,5.7l-5.7,11.4l-9.1,6.8l-4.6,9.1
		l-4.5,11.4l-12.5,3.4l-1.1,16l-17.1,27.4l-5.7,14.8l-5.7,10.3l2.3,5.7l2.3,1.1l4.6,1.1l21.7-2.3l8,2.3l10.2-8l21.7-5.7l10.2-6.8
		l16-5.7l26.2-18.3l19.4-11.4l11.4-9.1l20.5-14.8l6.8-9.1l29.6-20.5l11.4-19.4l9.1-6.9l6.8-1.1h1.1l10.2,8l-4.6,11.4v22.8
		l-19.4,26.2l-4.6,10.3l-9.1,3.4l-8,9.1l-22.8,19.4l-26.2,19.4l-9.1,10.3l-12.5-3.4l-2.3,1.1l-6.8,16l-16,1.1l1.1,12.5l-11.4,5.7
		l-10.3,4.6l-12.5,10.3l-10.2,6.9l-13.7,1.1l-13.7,8l-13.7-2.1l-25.1,1.1l-11.4-6.8l-17.1-9.1l-4.6-3.4l-8-13.7l-5.7-14.8
		l-10.3-20.5l3.4-20.5l1.1-18.2l3.4-16l3.4-6.8l9.1-13.7l6.8-21.7l6.8-10.2l4.6-11.4l14.8-20.5l17.1-33l6.8-11.4v-3.4l-1.1-3.4
		l-1.1-3.4l-16-6.8l-6.8,11.4l-19.4,8l-9.1,8l-11.4,5.7l-12.5,11.4l-10.3,6.8l-6.8,12.5l-14.8,1.1l-9.1,3.4l-6.8,10.3l-14.8,4.6
		l-6.8,11.4l-11.4,4.6l-13.7,3.4l-10.2,11.4l-5.7,4.6l-6.8,1.1l-8-2.3l-4.5-4.6l-1.1-6.8v-5.7l2.3-18.2l11.4-12.5l5.7-8l5.7-4.6
		l10.2-3.4l11.4-8l9.1-2.3l6.8-10.3l12.5-6.8l9.1-8l16-16l1.1-1.1l13.7-4.5l6.8-9.1H3218.2z"/>
	<path display="inline" fill="#787878" d="M3512.3,1069.7l10.3-15.9l2.3-1.1l13.7-4.6l10.3-14.8l23.9-18.2l18.2-17.1l11.4-3.4
		l57-35.3l29.6-11.4l31.9-8l12.5-3.4l11.4-3.4l14.8-6.8h2.3l31.9,10.3l21.7,8l17.1,10.3l5.7,8l2.3,11.4l-1.1,6.8l-8,11.4l16,9.1
		l5.7,11.4l8,12.5l4.6,18.2l1.1,28.5l-2.3,13.7l-5.7,9.1v12.5l-2.3,17.1l-2.3,4.6l-13.7,16l-5.7,12.5l-10.3,11.4l-2.3,11.4l-1.1,1.1
		l-34.2,28.5l-9.1,9.1l-6.8-2.3l-21.7,20.5h-6.8l-5.7,3.4l-22.8,11.4l-13.7,6.8l-13.7,1.1l-9.1,6.8h-13.7h-13.7l-5.7,3h-6.8l-10.3-6
		l-12.5-3.4l-14.8-14.9l-22.8-18.3l-5.7-8l-13.7-22.9l-4.6-16l1.1-22.9v-6.9l4.6-9.1V1120l9.1-30.9l4.6-11.5l-4.6-6.9l-8,9.1
		l-9.1,2.3l-4.6,11.4l-3.4,2.3l-5.7-3.4l-6.8,12.5l-8,8l-6.8,1.1l-5.7-1.1l-1.1-2.3l-1.1-2.3v-14.8l-2.3-9.1v-3.4L3512.3,1069.7z
		 M3626.3,1174.6l-2.3,16l1.1,3.4l5.7,18.2l2.3,12.5h1.1h12.5l18.2,3.4l10.3-2.3l13.7-3.4l9.1-8l12.5-5.7l10.3-14.8h10.3l4.5-11.4
		l21.7-17.1l6.8-14.8l11.4-10.2l11.4-25.1l8-12.5l4.6-25.1l-2.3-10.3l-1.1-2.3l-13.7-12.5l-5.7-9.1l-1.1-8l2.3-11.4l11.4-16
		l12.5-10.2v-3.4l-2.3-3.4l-12.5,5.7l-8,8l-2.3,1.1l-14.8,5.7l-18.2,4.6l-8-4.6h-5.7l-8,13.7l-11.4,2.3l-10.2,12.5l-9.1,2.3
		l-4.6,2.3l-2.3,4.6l-5.7,12.5l-28.5,29.6l-3.4,11.4l-9.1,21.7l-2.3,14.8l-11.4,8l-2.3,3.4v3.4l8,8L3626.3,1174.6z"/>
	<path display="inline" fill="#787878" d="M4025.2,1281.1l12.5-5.7l10.2-1.1l21.7-16l12.5-3.4l25.1-9.1l46.8-9.1l12.5-23.9
		l10.3-18.2l3.4-16l19.4-33l-1.1-10.2v-5.7l3.4-5.7l8-8l-2.3-14.8l3.4-8l5.7-10.2l-11.4,4.5l-18.2,13.7l-8,2.3l-11.4,13.7l-8,3.4
		l-4.6,8h-3.4l-6.8,8l-5.7,5.7l-10.2,3.4l-11.4,1.1l-13.7,20.5l-13.7,5.7l-8,9.1l-16,2.3l-3.4,16l-25.1,5.7l-10.3,12.5l-10.2,2.3
		l-46.8,26.2l-16,1.1l-13.7-6.8l-20.5-14.8l-9.1-28.5l-2.3-12.5l-11.4,3.4l-8,2.3l-5.7-1.1l-4.6-4.6l-2.3-11.4l2.3-10.2l6.8-9.1
		l12.5-9.1l21.7-23.9l6.8-8l44.5-42.2l30.8-30.8l41-26.2l23.9-17.1l31.9-12.5l36.5-13.7l27.4-1.1l29.6-16l16-2.3l10.2-5.7h12.5
		l9.1,2l4.6,3.4l9.1,19.5l3.4,12.6l8-10.3l10.2-8l9.1-2.3l6.8,2.3l8,8l6.8,33l-3.4,29.6l-2.3,5.7l-19.4,33l-12.5,45.6l-9.1,20.5
		l-12.5,31.9l-9.1,9.1v10.2l-8,18.2l-1.1,9.1l-9.1,17.1l13.7,8l22.8,25.1l4.6,14.8l-3.4,12.5l-12.5,11.4l-24,8l-8-2.3l-19.4-9.1
		l-16-2.3v8l-8,6.8l-13.7,26.2l-6.8,10.2l-10.3,2.3l-5.7,12.5l-4.5,15.9l-6.8,11.4l-6.8-1.1l-5.7,9.1l-25.1,41l-18.2,6.8l-3.4,13.7
		l-11.4,10.2l-11.4,12.5l-12.5,5.7l-3.4,11.4l-4.6,8l-4.5,3.4l-33.1,23.9l-11.4,13.7l-25.1,14.8l-22.8,18.2l-14.8,5.7l-14.8,6.9
		l-4.6,1.1l-12.5-3.4l-20.5-21.6l-8-31.9v-3.4l4.5-23.9l2.3-18.2l10.3-29.6l18.2-43.3l27.4-37.6l8-17.1l13.7-13.7l4.5-8l11.4-8
		l17.1-18.2l29.6-23.9l8-8l10.3-6.8L4025.2,1281.1z M3902.1,1522.7l34.2-13.7l20.5-18.2l20.5-9.1l8-10.3l10.2-8l3.4-10.2l13.7-9.1
		l9.1-8l10.3-11.4l5.7-11.4l5.7-3.4l4.5-10.3l9.1-3.4l2.3-1.1l4.6-11.4l12.5-22.8l13.7-17.1l11.4-21.7l10.2-12.5l-2.3-3.4l-16,2.3
		l-8-5.7l-9.1,10.3l-12.5,2.3l-14.8,8l-13.7,3.4l-22.8,12.5l-10.3,3.4l-9.1,8l-22.8,14.8l-11.4,19.4h-12.5l-4.6,12.5l-22.8,20.5
		l-12.5,26.2l-8,11.4l-2.3,14.8l-8,17.1l-3.4,18.2l1.1,8l4.6,12.5L3902.1,1522.7z M3972.8,1196.9l12.5-5.7l18.2-8l13.7-11.4h20.5
		l6.8-9.1l12.5-2.3l10.3-11.4l20.5-11.4l6.8-10.3h5.7l6.8-9.1l18.2-9.1l16-19.4l8-5.7l6.8-8l9.1-3.4l11.4-16l11.4-5.7l3.4-2.3
		l2.3-4.6l6.8-17.1l-12.5,1.1l-13.7,6.8h-10.3l-17.1,9.1l-10.3,3.4l-14.8,11.4l-11.4,4.6l-10.2,10.3l-4.6,3.4l-4.6,1.1l-13.7,3.4
		l-9.1,11.4l-5.7,2.3l-12.5,11.4l-14.8,4.6l-4.6,8l-13.7,8l-11.4,14.8l-8,4.5l-11.4,9.1l-14.8,26.2l-4.6,12.5L3972.8,1196.9z"/>
	<path display="inline" fill="#787878" d="M4388.9,982.7l6.8-12.5l27.4-16l9.1-11.4l9.1-5.7l5.7-8l12.5-8l13.7-8l1.1-1.5l17.1-1.5
		l20.5,4.6l12.5,11.4l3.4,8l2.3,18.3l23.9,69.6l-3.4,17.1l-3.4,6.9l-16,18.2l-6.8,9.1l-9.1,5.7l-5.7,11.4l-9.1,6.8l-4.6,9.1
		l-4.5,11.4l-12.5,3.4l-1.1,16l-17.1,27.4l-5.7,14.8l-5.7,10.3l2.3,5.7l2.3,1.1l4.6,1.1l21.7-2.3l8,2.3l10.2-8l21.7-5.7l10.2-6.8
		l16-5.7l26.2-18.3l19.4-11.4l11.4-9.1l20.5-14.8l6.8-9.1l29.6-20.5l11.4-19.4l9.1-6.9l6.8-1.1h1.1l10.2,8l-4.6,11.4v22.8
		l-19.4,26.2l-4.6,10.3l-9.1,3.4l-8,9.1l-22.8,19.4l-26.2,19.4l-9.1,10.3l-12.5-3.4l-2.3,1.1l-6.8,16l-16,1.1l1.1,12.5l-11.4,5.7
		l-10.3,4.6l-12.5,10.3l-10.2,6.9l-13.7,1.1l-13.7,8l-13.7-2.1l-25.1,1.1l-11.4-6.8l-17.1-9.1l-4.6-3.4l-8-13.7l-5.7-14.8
		l-10.3-20.5l3.4-20.5l1.1-18.2l3.4-16l3.4-6.8l9.1-13.7l6.8-21.7l6.8-10.2l4.6-11.4l14.8-20.5l17.1-33l6.8-11.4v-3.4l-1.1-3.4
		l-1.1-3.4l-16-6.8l-6.8,11.4l-19.4,8l-9.1,8l-11.4,5.7l-12.5,11.4l-10.3,6.8l-6.8,12.5l-14.8,1.1l-9.1,3.4l-6.8,10.3l-14.8,4.6
		l-6.8,11.4l-11.4,4.6l-13.7,3.4l-10.2,11.4l-5.7,4.6l-6.8,1.1l-8-2.3l-4.5-4.6l-1.1-6.8v-5.7l2.3-18.2l11.4-12.5l5.7-8l5.7-4.6
		l10.2-3.4l11.4-8l9.1-2.3l6.8-10.3l12.5-6.8l9.1-8l16-16l1.1-1.1l13.7-4.5l6.8-9.1H4388.9z"/>
	<path display="inline" fill="#787878" d="M4726.4,961.8l28.5-11.4l17.1-10.3l8,1.1h3.4l14.8-3.1l10.2-3.6l22.8-1.2l12.5-1.2
		l9.1,3.4l23.9,4.6l12.5,5.7l11.4,13.7l2.3,10.2l-3.4,14.8l-12.5,20.5l-20.5,17.1l-11.4,3.4l-8,10.3l-9.1,4.5l-11.4,9.1l-14.8,1.1
		l-2.3,1.1l-4.6,5.7l-8,12.5h-10.3l-10.3,6.8l-2.3,8l-12.5,5.7l-14.8,12.5l-9.1,6.8l-11.4-1.1l-3.4,6.8l-1.1,11.4l-8,2.3l-6.8,5.7
		l-6.8-2.3l-11.4,11.4l-14.8,1.1l-2.3,12.5l-5.7,20.5l3.4,10.3l3.4,3.4l4.6,1.1l33.1-1.1h17.1l26.2-11.4l12.5-1.1h12.5l10.3-12.5
		l11.4-5.7l12.5-2.3l5.7-10.3l4.6-3.4l4.6-3.4l17.1-4.6l10.3-12.5l17.1-6.8l10.3-10.2l16-4.6l10.3-12.5l14.8-10.2l6.8-4.6h4.6l3.4,8
		l1.1-16l14.8-12.5l13.7-5.7l6.8-14.8l10.3-5.7l8-4.5h1.1l3.4,1.1l2.3,2.3l1.1,2.3v1.1l-3.4,14.8l2.3,17.1l-10.3,14.8l-5.7,21.7
		l-8,3.4l-12.5,11.4l-9.1,3.4l-17.1,20.5l-12.5,13.7l-9.1,6.8l-4.5-5.7l-6.8,2.3l-2.3,9.1l-2.3,4.6l-2.3,2.3l-16,9.1l-8,6.8
		l-13.7,1.1l-11.4,16l-22.8,8l-33.1,18.2l-9.1,2.3l-39.9,14.8l-12.5,2.3l-6.8-1.1l-10.2-6.9l-12.5,3.6l-18.2,2.4l-6.8-2.3l-9.1-5.7
		l-20.5-10.3l-6.8-17.1l-10.2,1.1l-12.5-41.1l-14.8-5.7l-2.3-4.6l-1.1-8l3.4-17.1l5.7-11.4l12.5-12.5l8-29.7l4.5-4.6l3.4-12.5
		l6.8-9.1l9.1-16l4.6-11.4l4.5-5.7l9.1-5.7l11.4-6.9l2.3-5.7l2.3-11.4v-2.3l4.5-3.4l11.4-6.8L4726.4,961.8z M4708.1,1078.1l10.2-6.8
		l20.5-8l23.9-20.5l9.1-4.6l13.7-11.4l8-5.7l3.4-6.8l9.1-2.3l8-10.3l6.8-5.7l13.7-9.1l-3.4-5.7l-5.7-2.3l-13.7,4.6l-16,2.3
		l-10.3,5.7l-20.5,8l-13.7,10.2l-20.5,14.8l-5.7,4.5l-2.3,3.4l-6.8,17.1l-9.1,14.8l-3.4,12.5L4708.1,1078.1z"/>
	<path display="inline" fill="#787878" d="M4913.3,1084l9.1-8l22.8-11.4l6.8-9.1l8-5.7l4.5-5.7l14.8-6.8l20.5-21.7l10.3-9.1
		l22.8-33.1l12.5-13.7l17.1-50.2l10.3-8l16-3.4l17.1,3.4l12.5,9.1l4.6,5.7l13.7,39.9l9.1,27.3l4.6,22.8l1.1,15.9l6.8,13.7l1.1,9.1
		l-4.6,13.7l1.1,27.3l-5.7,11.4l-1.1,12.5l-6.8,14.8l3.4,6.8l29.6-17.1l6.8-6.8l31.9-22.8l14.8-17.1l42.2-25l14.8-17.1l9.1-4.5
		l12.5-4.6l6.8,11.4l3.4,14.8l-2.3,14.8l-4.6,4.6l-13.7,11.4l-6.8,8l-20.5,9.1l-10.3,17.1l-13.7,10.2l-8,8l-13.7,2.3l-5.7,11.4
		l-8,3.4l-9.1,6.8l-12.5,13.7l-10.3,1.1l-4.6,12.5l-12.5,4.6l-4.5,8l-5.7,1.1l-12.5,9.1l-14.8,4.6l-12.5,3.4l-4.6,9.1l-11.4,5.7
		l-19.4,8l-1.1,1.1l-5.7,8l-18.2,5.7l-9.1,9.1h-12.5l-41,20.5l-22.8-2l-23.9-1l-8-3.4l-12.5-17.1l-21.7-29.6v-8l10.2-11.4l5.7-10.2
		l8-6.8l10.2-4.6l16-3.4l18.2-5.7l11.4,11.4l12.5-1.1l12.5,3.4l19.4-10.3l11.4-3.4l4.6-11.4l20.5-34.2l8-8l3.4-27.4l3.4-3.4l6.8-2.3
		l4.6-3.4l-8-14.8l5.7-11.4v-10.3l1.1-6.8l-1.1-9.1l1.1-10.3v-1.1l-2.3-11.4l-3.4-11.4l-10.2,5.7l-23.9,23.9l-16,20.5l-18.2,10.3
		l-10.3,14.8l-6.8,3.4l-19.4,13.7l-30.8,26.2l-21.7,13.7l-6.8,9.1l-16-3.4l-2.3-3.4l-4.6-17.1l2.3-12.5l4.6-9.1l6.8-9.1L4913.3,1084
		z"/>
	<path display="inline" fill="#787878" d="M5208.5,1084l9.1-8l22.8-11.4l6.8-9.1l8-5.7l4.5-5.7l14.8-6.8l20.5-21.7l10.3-9.1
		l22.8-33.1l12.5-13.7l17.1-50.2l10.3-8l16-3.4l17.1,3.4l12.5,9.1l4.6,5.7l13.7,39.9l9.1,27.3l4.6,22.8l1.1,15.9l6.8,13.7l1.1,9.1
		l-4.6,13.7l1.1,27.3l-5.7,11.4l-1.1,12.5l-6.8,14.8l3.4,6.8l29.6-17.1l6.8-6.8l31.9-22.8l14.8-17.1l42.2-25l14.8-17.1l9.1-4.5
		l12.5-4.6l6.8,11.4l3.4,14.8l-2.3,14.8l-4.6,4.6l-13.7,11.4l-6.8,8l-20.5,9.1l-10.3,17.1l-13.7,10.2l-8,8l-13.7,2.3l-5.7,11.4
		l-8,3.4l-9.1,6.8l-12.5,13.7l-10.3,1.1l-4.6,12.5l-12.5,4.6l-4.5,8l-5.7,1.1l-12.5,9.1l-14.8,4.6l-12.5,3.4l-4.6,9.1l-11.4,5.7
		l-19.4,8l-1.1,1.1l-5.7,8l-18.2,5.7l-9.1,9.1h-12.5l-41,20.5l-22.8-2l-23.9-1l-8-3.4l-12.5-17.1l-21.7-29.6v-8l10.2-11.4l5.7-10.2
		l8-6.8l10.2-4.6l16-3.4l18.2-5.7l11.4,11.4l12.5-1.1l12.5,3.4l19.4-10.3l11.4-3.4l4.6-11.4l20.5-34.2l8-8l3.4-27.4l3.4-3.4l6.8-2.3
		l4.6-3.4l-8-14.8l5.7-11.4v-10.3l1.1-6.8l-1.1-9.1l1.1-10.3v-1.1l-2.3-11.4l-3.4-11.4l-10.2,5.7l-23.9,23.9l-16,20.5l-18.2,10.3
		l-10.3,14.8l-6.8,3.4l-19.4,13.7l-30.8,26.2l-21.7,13.7l-6.8,9.1l-16-3.4l-2.3-3.4l-4.6-17.1l2.3-12.5l4.6-9.1l6.8-9.1L5208.5,1084
		z"/>
	<path display="inline" fill="#787878" d="M5551.7,1052.9l14.8-10.3l12.5-17.1l25.1-14.8l16-14.8l17.1-1.1l6.8-10.3l12.5-6.8
		l11.4-11.4l19.4-12.5l17.1-9.1l5.7-1.1l16,4.6l19.4,16l11.4,13.7l4.6,18.2l-4.6,25.1l-11.4,31.9l-8,26.2l-6.8,6.8l-5.7,11.4
		l-5.7,6.8l2.3,16l-6.8,10.3v25.1l-6.8,8l2.3,3.4l9.1-2.3h16l6.8-9.1l12.5-5.7l6.8-6.8l27.4-12.5l85.5-65l9.1,2.3l3.4,3.4l1.1,5.7
		l-4.6,14.8l-8,16l-8,18.2l-9.1,10.3l-6.8,10.2l-9.1,5.7l-12.5,10.3l-13.7,10.3l-28.5,26.3l-16,8l-5.7,9.2l-14.8,3.4l-8,8l-8,5.7
		l-10.3,3.4l-12.5,1.1l-11.4,10.3h-13.7l-9.1,2h-1.1l-13.7-6l-6.8-4.6l-11.4-10.2l-2.3-4.6l-1.1-22.8l-4.5-18.2l-2.3-15.9l1.1-11.4
		l8-27.3l2.3-17.1l4.6-4.6l8-26.2l9.1-11.4l2.3-14.8l10.3-18.2l-3.4-5.7l-4.6-1.1l-12.5,8l-8-2.3l-9.1,8l-8,2.3l-10.3,6.8l-9.1-3.4
		l-4.6,3.4l-4.5,14.8l-2.3,1.1l-16,5.7l-12.5,4.6l-5.7,13.7l-10.3,9.1l-6.8,6.8l-6.8,1.1l-6.8-2.3l-4.6-4.6l-1.1-5.7v-2.3l2.3-21.7
		l1.1-11.4l8-9.1H5551.7z M5821.8,727.2l12.5,9.1l10.2,11.4l2.3,10.3v3.4l-2.3,14.8l-3.4,20.5l-1.1,2.3l-12.5,9.1l-8,3.4l-5.7,1.1
		l-21.7-9.1l-11.4-10.2l-5.7-29.6v-2.3l3.4-22.8l4.5-5.7l13.7-5.7l12.5-5h1.1L5821.8,727.2z"/>
	<path display="inline" fill="#787878" d="M5933.5,1010.3l16-2.3l9.1-14.8l11.4-3.4l12.5-8l6.8-8l11.4-4.6l17.1-11.4l8-2.3l10.3-2.3
		l23.9,6.8l17.1,17.1l6.8,24l-3.4,16l-10.2,22.8l-1.1,19.4l-9.1,10.3l1.1,28.5l-11.4,18.2l-2.3,13.7l-11.4,5.7v5.7l9.1,9.1l1.1,2.3
		l-2.3,10.3l-2.3,13.7h2.3l4.5-4.6l11.4-4.6l2.3-10.3l10.3-1.1l2.3-10.3l10.2-9.1l8-8l16-19.4l10.3-8l5.7-8l4.6-11.4l17.1-12.5
		l4.6-8l6.8-8l8-10.3l12.5-9.1l17.1-19.4l21.7-21.7l6.8-9.1l25.1-19.4l10.3-9.1l11.4-5.7l27.4-5.7h5.7l11.4,5l19.4,18.2l4.6,18.2
		l-5.7,21.7l-8,12.5l-5.7,3.4l-12.5-3.4l-11.4,8l-10.3,2.3l-11.4-1.1l-9.1,5.7l-12.5,2.3l-8,11.4l-13.7,3.4l-9.1,4.6l-3.4,3.4
		l-8,12.5l-19.4,10.2l-9.1,13.7l-11.4,8l-9.1,10.3l-10.2,2.3l-4.6,6.8l-2.3,9.1l-6.8,10.2l-1.1,1.1l-11.4,3.4l-4.6,12.5l-12.5,5.7
		l-6.8,14.8l-10.3,8l-8,14.8l-16,12.5l-16,26.2l-13.7,10.2l-14.8,14.8l-8,1.1l-14.8-4.6l-37.6-42.2l-4.5-9.1l-6.8-28.5l3.4-19.4
		l11.4-29.7l14.8-63.9l12.5-33.1l-3.4-10.3l-16,10.3l-19.4,2.3l-5.7,17.1l-20.5,9.1l-8,12.5l-10.3,4.6l-9.1,12.5h-2.3l-4.6-2.3
		l-5.7-10.3l-10.3-8l-1.1-2.3l2.3-6.8l5.7-9.1l21.7-21.7l3.4-6.8l14.8-2.3L5933.5,1010.3z"/>
	<path display="inline" fill="#787878" d="M6386.1,961.8l28.5-11.4l17.1-10.3l8,1.1h3.4l14.8-3.1l10.2-3.6l22.8-1.2l12.5-1.2
		l9.1,3.4l23.9,4.6l12.5,5.7l11.4,13.7l2.3,10.2l-3.4,14.8l-12.5,20.5l-20.5,17.1l-11.4,3.4l-8,10.3l-9.1,4.5l-11.4,9.1l-14.8,1.1
		l-2.3,1.1l-4.6,5.7l-8,12.5h-10.3l-10.3,6.8l-2.3,8l-12.5,5.7l-14.8,12.5l-9.1,6.8l-11.4-1.1l-3.4,6.8l-1.1,11.4l-8,2.3l-6.8,5.7
		l-6.8-2.3l-11.4,11.4l-14.8,1.1l-2.3,12.5l-5.7,20.5l3.4,10.3l3.4,3.4l4.6,1.1l33.1-1.1h17.1l26.2-11.4l12.5-1.1h12.5l10.3-12.5
		l11.4-5.7l12.5-2.3l5.7-10.3l4.6-3.4l4.6-3.4l17.1-4.6l10.3-12.5l17.1-6.8l10.3-10.2l16-4.6l10.3-12.5l14.8-10.2l6.8-4.6h4.6l3.4,8
		l1.1-16l14.8-12.5l13.7-5.7l6.8-14.8l10.3-5.7l8-4.5h1.1l3.4,1.1l2.3,2.3l1.1,2.3v1.1l-3.4,14.8l2.3,17.1l-10.3,14.8l-5.7,21.7
		l-8,3.4l-12.5,11.4l-9.1,3.4l-17.1,20.5l-12.5,13.7l-9.1,6.8l-4.5-5.7l-6.8,2.3l-2.3,9.1l-2.3,4.6l-2.3,2.3l-16,9.1l-8,6.8
		l-13.7,1.1l-11.4,16l-22.8,8l-33.1,18.2l-9.1,2.3l-39.9,14.8l-12.5,2.3l-6.8-1.1l-10.2-6.9l-12.5,3.6l-18.2,2.4l-6.8-2.3l-9.1-5.7
		l-20.5-10.3l-6.8-17.1l-10.2,1.1l-12.5-41.1l-14.8-5.7l-2.3-4.6l-1.1-8l3.4-17.1l5.7-11.4l12.5-12.5l8-29.7l4.5-4.6l3.4-12.5
		l6.8-9.1l9.1-16l4.6-11.4l4.5-5.7l9.1-5.7l11.4-6.9l2.3-5.7l2.3-11.4v-2.3l4.5-3.4l11.4-6.8L6386.1,961.8z M6367.9,1078.1l10.2-6.8
		l20.5-8l23.9-20.5l9.1-4.6l13.7-11.4l8-5.7l3.4-6.8l9.1-2.3l8-10.3l6.8-5.7l13.7-9.1l-3.4-5.7l-5.7-2.3l-13.7,4.6l-16,2.3
		l-10.3,5.7l-20.5,8l-13.7,10.2l-20.5,14.8l-5.7,4.5l-2.3,3.4l-6.8,17.1l-9.1,14.8l-3.4,12.5L6367.9,1078.1z"/>
	<path display="inline" fill="#787878" d="M7000.6,1073.3l8-28.5l13.7-44.5l16-37.6l3.4-10.3l5.7-8l10.3-27.4l9.1-6.8l6.8-12.5
		l6.8-1.1l-4.6-19.4l14.8-17.1l4.6-13.7l5.7-8l8-10.3l17.1-5.7l6.8,10.3l6.8-6.8l-10.3-5.7l-8-16l9.1-12.5l14.8-6.8l-5.7-4.6v-5.7
		l10.3-10.3l5.7-13.7l11.4-6.8l2.3,2.3l5.7-1.1l2.3-12.5l-1.1-12.5l18.2-20.5l6.8-13.7l19.4-13.7l5.7-9.1l13.7-11.4l16-9.1l3.4,3.4
		l10.2,2.3l-4.5,4.6v3.4l5.7-3.4l2.3-3.4v-3.4v-3.4l-8-8l8-13.7l17.1-12.5l19.4-16l18.2-10.3l9.1-9.1l13.7,1.1l3.4,4.6l3.4-1.1
		l-3.4-10.3l16-11.4l28.5-10.2l12.5-9.1l28.5-8l14.8-1.1l16-6.9l13.7,8.4l10.3-3.4l12.5,11.4l14.8,11.4l6.8,13.7l4.6,16v2.3
		l-2.3,25.1l1.1,19.4l-8,17.1l-5.7,23.9l-8,17.1l-6.8,22.8l-14.8,28.5l-60.4,91.2l-5.7,8l-13.7,6.8l2.3,11.4l-3.4,10.3l-11.4,11.4
		l-16,11.4l-12.5,2.3L7354,883l-6.8-4.5l-13.7-17.1l-2.3-9.1l5.7-17.1l9.1-13.7l35.3-26.2l9.1-8h9.1l4.6-8l1.1-12.5l13.7-11.4
		l4.6-6.8l4.6-6.8l8-3.4l6.8-10.3l17.1-28.5l2.3-13.7l10.2-5.7l1.1-19.4l9.1-6.8l1.1-11.4l2.3-13.7l8-20.5v-13.7l1.1-9.1l-2.3-6.8
		l-5.7-5.7l-10.3-2.3l-5.7,1.1l-31.9,14.8l-13.7,4.6l-8-4.6l-3.4,2.3l-2.3,9.1l-9.1,2.3l-10.3,10.3h-9.1l-9.1,13.7l-11.4,6.8
		l-9.1,13.7h-9.1l-10.3,19.4h-11.4l-3.4,14.8l-14.8,14.8l-8,9.1l-11.4,2.3l-1.1,14.8l-11.4,6.8l-1.1,6.8l-8,8l-5.7,5.7l-12.5,5.7
		l3.4,6.8l-5.7,10.2l-2.3,4.6l-1.1,1.1l-5.7,2.3l-3.4,17.1l-9.1,13.7l-10.3,13.7l-4.5,12.5l-8,12.5l-14.8,5.7l2.3,17.1l-9.1,13.7
		l-6.8,17.1l-12.5,17.1l-1.1,11.4l-8,16l-11.4,28.5l-12.5,13.7l-3.4,12.5l-2.3,12.5l-10.3,16l-4.6,19.4l-11.4,10.2l5.7,1.1v17.1
		l-10.2,19.4l-8,22.8l4.6,10.3l-3.4,35.3l2.3,11.4l-5.7,2.3v6.8l9.1,9.1l10.2,14.8l4.6,10.3h13.7l14.8-3.4l11.4-1.1l18.2-8l22.8-5.7
		l12.5-13.7l21.7-4.6l18.2-21.7l23.9-13.7l13.7-12.5l11.4-4.5l8-10.3l8-5.7l8-6.8l26.2-23.9l8-12.5l9.1-8l10.2,2.3l1.1-10.2
		l10.3-5.7l11.4-6.8l5.7-12.5l14.8-10.3l14.8-14.8l11.4-1.1l4.6-12.5l4.5-8h10.3l6.8-16l13.7-5.7l9.1-14.8l18.2-10.2l8-4.6l4.6-1.1
		l5.7,1.1l8,9.1l3.4,10.3l-1.1,6.8l-10.2,9.1l-2.3,12.5l-11.4,9.1l-12.5,11.4l-2.3,11.4l-14.8,8l-10.2,16l-9.1,10.2l-8,1.1
		l-4.6,13.7l-20.5,16l-4.6,14.8l-12.5,2.3l-9.1,10.2l-10.3,12.5l-6.8,10.3h-10.3l-8,10.2l-12.5,3.4l-10.3,16l-6.8,5.7l-5.7,8
		l-2.3,1.1h-2.3h-2.3l-1.1-1.1l-2.3-8l-10.3,8l4.6,9.1l-12.5,16l-6.8,5.7l-6.8,2.3l-12.5,2.3l-5.7,12.5l-11.4,3.4l-17.1,17.1h-14.8
		l-9.1,8h-14.8l-6.8,8l-9.1,2.3l-6.8,5.7l-4.6,1.1l-3.4-1.1l-2.3-2.3v-11.4l-4.6,12.4l-2.3,7.9l-2.3,2.7l-4.5,1.3l-2.3-1.1
		l-11.4-3.4l-17.1,6.6l-39.9-12.5l-10.3-1.1l-8-3.4l-10.3-6.8l-3.4-10.3l-12.5-6.8l-4.6-12.5l-9.1-10.2l-3.4-6.8l-4.6-11.4
		l-3.4-10.3l-4.6-9.1l-5.7-20.5l-4.6-43.3l1.1-25.1L7000.6,1073.3z"/>
	<path display="inline" fill="#787878" d="M7465.7,1151.3l-2.3-12.5l4.5-10.3l24-34.2l2.3-8l14.8-13.7l9.1-13.7l19.4-14.8l20.5-21.7
		l36.5-24l33.1-22.8l19.4-8l19.4-11.4l26.2-8l19.4-8l11.4,5.7l10.3-5.7h3.4l12.5,3l18.2,15l4.6,12.6l2.3,15l5.7,12.7l9.1-8
		l11.4-17.1l13.7-11.4l22.8-5.7l13.7,3.4l9.1,8l3.4,18.2l-4.5,26.2l-14.8,29.7l-13.7,19.4l-12.5,36.5l-5.7,9.1v18.2l-1.1,18.2
		l1.1,6.8l2.3,2.3l3.4,1.1l3.4-1.1l8-4.6l18.2-18.2l11.4-6.8l19.4-19.4l5.7-1.1l9.1-14.8l18.2-11.4l12.5-14.8l9.1-8l4.6-1.1l4.6,1.1
		l5.7,6.8l3.4,12.6l-3.4,14.8l-9.1,18.3l-4.6,19.4l-8,6.8l-23.9,25.1l-10.3,3.4l-12.5,18.2l-13.7,4.6l-6.8,6.8l-11.4,3.4l-5.7,10.2
		l-17.1,6.8l-28.5,9.1l-12.5-2.3l-10.2-5.7l-10.3-2.3l-6.8-14.8l-8-12.5v-5.7v-2.3l2.3-12.5l-5.7-5.7l1.1-12.5l-1.1-14.8v-1.1l1.1-8
		l2.3-12.5l-2.3-3.4l-11.4,9.1l-12.5,3.4l-6.8,17.1l-10.3,6.8l-4.6,5.7l-11.4,5.7l-10.3,8l-9.1,1.1l-5.7,10.3l-5.7,6.8l-41,30.8
		l-13.7,13.7l-17.1,10.3l-46.7,27.4l-20.5,3.4l-31.9-8l-18.2-13.7l-3.4-5.7l-4.5-18.3l-6.8-17.1v-13.7l1.1-10.3v-17.1l4.6-8H7465.7z
		 M7709.7,1085l4.6-10.3l9.1-6.8l19.4-19.4l10.2-10.3l9.1-13.7l-11.4,3.4h-8h-9.1l-34.2-5.7l-2.3,1.1l-12.5,5.7l-23.9,6.8
		l-34.2,19.4l-11.4,4.5l-9.1,9.1L7574,1093l-5.7,11.4l-13.7,13.7l-4.6,10.3l-14.8,8l-4.6,17.1l-10.2,14.8l-1.1,6.8v4.6l1.1,14.8
		l2.3,4.6l2.3,1.1l5.7,1.1l23.9-8l55.9-30.8l6.8-9.1l51.3-30.8l9.1-9.1l5.7-3.4l2.3-8L7709.7,1085z"/>
	<path display="inline" fill="#787878" d="M8028.8,982.7l6.8-12.5l27.4-16l9.1-11.4l9.1-5.7l5.7-8l12.5-8l13.7-8l1.1-1.5l17.1-1.5
		l20.5,4.6l12.5,11.4l3.4,8l2.3,18.3l23.9,69.6l-3.4,17.1l-3.4,6.9l-16,18.2l-6.8,9.1l-9.1,5.7l-5.7,11.4l-9.1,6.8l-4.6,9.1
		l-4.5,11.4l-12.5,3.4l-1.1,16l-17.1,27.4l-5.7,14.8l-5.7,10.3l2.3,5.7l2.3,1.1l4.6,1.1l21.7-2.3l8,2.3l10.2-8l21.7-5.7l10.2-6.8
		l16-5.7l26.2-18.3l19.4-11.4l11.4-9.1l20.5-14.8l6.8-9.1l29.6-20.5l11.4-19.4l9.1-6.9l6.8-1.1h1.1l10.2,8l-4.6,11.4v22.8
		l-19.4,26.2l-4.6,10.3l-9.1,3.4l-8,9.1l-22.8,19.4l-26.2,19.4l-9.1,10.3l-12.5-3.4l-2.3,1.1l-6.8,16l-16,1.1l1.1,12.5l-11.4,5.7
		l-10.3,4.6l-12.5,10.3l-10.2,6.9l-13.7,1.1l-13.7,8l-13.7-2.1l-25.1,1.1l-11.4-6.8l-17.1-9.1l-4.6-3.4l-8-13.7l-5.7-14.8
		l-10.3-20.5l3.4-20.5l1.1-18.2l3.4-16l3.4-6.8l9.1-13.7l6.8-21.7l6.8-10.2l4.6-11.4l14.8-20.5l17.1-33l6.8-11.4v-3.4l-1.1-3.4
		l-1.1-3.4l-16-6.8l-6.8,11.4l-19.4,8l-9.1,8l-11.4,5.7l-12.5,11.4l-10.3,6.8l-6.8,12.5l-14.8,1.1l-9.1,3.4l-6.8,10.3l-14.8,4.6
		l-6.8,11.4l-11.4,4.6l-13.7,3.4l-10.2,11.4l-5.7,4.6l-6.8,1.1l-8-2.3l-4.5-4.6l-1.1-6.8v-5.7l2.3-18.2l11.4-12.5l5.7-8l5.7-4.6
		l10.2-3.4l11.4-8l9.1-2.3l6.8-10.3l12.5-6.8l9.1-8l16-16l1.1-1.1l13.7-4.5l6.8-9.1H8028.8z"/>
	<path display="inline" fill="#787878" d="M8366.3,961.8l28.5-11.4l17.1-10.3l8,1.1h3.4l14.8-3.1l10.2-3.6l22.8-1.2l12.5-1.2
		l9.1,3.4l23.9,4.6l12.5,5.7l11.4,13.7l2.3,10.2l-3.4,14.8l-12.5,20.5l-20.5,17.1l-11.4,3.4l-8,10.3l-9.1,4.5l-11.4,9.1l-14.8,1.1
		l-2.3,1.1l-4.6,5.7l-8,12.5h-10.3l-10.3,6.8l-2.3,8l-12.5,5.7l-14.8,12.5l-9.1,6.8l-11.4-1.1l-3.4,6.8l-1.1,11.4l-8,2.3l-6.8,5.7
		l-6.8-2.3l-11.4,11.4l-14.8,1.1l-2.3,12.5l-5.7,20.5l3.4,10.3l3.4,3.4l4.6,1.1l33.1-1.1h17.1l26.2-11.4l12.5-1.1h12.5l10.3-12.5
		l11.4-5.7l12.5-2.3l5.7-10.3l4.6-3.4l4.6-3.4l17.1-4.6l10.3-12.5l17.1-6.8l10.3-10.2l16-4.6l10.3-12.5l14.8-10.2l6.8-4.6h4.6l3.4,8
		l1.1-16l14.8-12.5l13.7-5.7l6.8-14.8l10.3-5.7l8-4.5h1.1l3.4,1.1l2.3,2.3l1.1,2.3v1.1l-3.4,14.8l2.3,17.1l-10.3,14.8l-5.7,21.7
		l-8,3.4l-12.5,11.4l-9.1,3.4l-17.1,20.5l-12.5,13.7l-9.1,6.8l-4.5-5.7l-6.8,2.3l-2.3,9.1l-2.3,4.6l-2.3,2.3l-16,9.1l-8,6.8
		l-13.7,1.1l-11.4,16l-22.8,8l-33.1,18.2l-9.1,2.3l-39.9,14.8l-12.5,2.3l-6.8-1.1l-10.2-6.9l-12.5,3.6l-18.2,2.4l-6.8-2.3l-9.1-5.7
		l-20.5-10.3l-6.8-17.1l-10.2,1.1l-12.5-41.1l-14.8-5.7l-2.3-4.6l-1.1-8l3.4-17.1l5.7-11.4l12.5-12.5l8-29.7l4.5-4.6l3.4-12.5
		l6.8-9.1l9.1-16l4.6-11.4l4.5-5.7l9.1-5.7l11.4-6.9l2.3-5.7l2.3-11.4v-2.3l4.5-3.4l11.4-6.8L8366.3,961.8z M8348.1,1078.1l10.2-6.8
		l20.5-8l23.9-20.5l9.1-4.6l13.7-11.4l8-5.7l3.4-6.8l9.1-2.3l8-10.3l6.8-5.7l13.7-9.1l-3.4-5.7l-5.7-2.3l-13.7,4.6l-16,2.3
		l-10.3,5.7l-20.5,8l-13.7,10.2l-20.5,14.8l-5.7,4.5l-2.3,3.4l-6.8,17.1l-9.1,14.8l-3.4,12.5L8348.1,1078.1z"/>
</g>
<g id="chocolateOT">
	<path fill="#787878" d="M2857.9,941.2c-33.1,4.6-66.1,16-75.2,34.2c-37.6,75.2-79.8,149.3-103.7,241.7c0,0-8,28.5-11.4,45.6
		c0,0,1.1,5.7,1.1,12.5c0,34.2-44.5,45.6-101.5,45.6c-23.9,0-61.6,0-61.6-25.1c0-6.8,3.4-13.7,3.4-13.7
		c94.6-248.5,174.4-365.9,237.1-526.7c0,0,13.7-31.9,13.7-54.7c0-11.4-4.6-10.3-4.6-22.8c0-6.8,3.4-16,20.5-20.5
		c10.3-3.4,51.3-12.5,85.5-12.5c27.4,0,50.2,5.7,50.2,25.1c0,41-75.2,181.3-75.2,194.9c0,12.5,14.8,16,31.9,16
		c85.5,0,254.2-60.4,254.2-179c0-98-153.9-133.4-266.8-133.4c-65,0-141.4,10.3-229.1,38.8c-3.4,0-14.8-1.1-17.1-10.3
		c0-11.4,3.4-20.5,16-30.8c61.6-51.3,193.8-83.2,320.3-83.2c212,0,302.1,77.5,302.1,168.7C3247.8,770.2,3095,912.7,2857.9,941.2z"/>
	<path fill="#787878" d="M3508.8,1025.6c0,0,0,23.9-18.2,23.9c-5.7,0-73-4.6-73-62.7c0-16,4.6-36.5,19.4-62.7
		c2.3-4.6,3.4-8,3.4-10.3c0-3.4-2.3-4.6-4.6-4.6c-6.8,0-17.1,6.8-17.1,6.8c-84.4,67.3-197.2,241.7-229.1,304.4
		c0,0-16,33.1-27.4,53.6c-13.7,26.2-45.6,39.9-92.3,39.9c-6.8,0-14.8,0-21.7-1.1c-19.4-1.1-23.9-11.4-23.9-19.4
		c0-5.7,2.3-11.4,2.3-11.4c61.6-168.7,189.2-391,189.2-454.9c0-8-2.3-9.1-2.3-14.8c0-5.7,3.4-14.8,18.2-19.4c1.1-1.1,44.5-8,79.8-8
		c25.1,0,46.7,3.4,46.7,16c0,31.9-86.6,207.5-86.6,207.5s-1.1,3.4-1.1,5.7s1.1,3.4,3.4,3.4c3.4,0,8-5.7,8-5.7
		c22.8-29.6,173.3-231.4,301-231.4c16,0,27.4,4.6,27.4,17.1C3610.3,812.4,3522.5,961.7,3508.8,1025.6z"/>
	<path fill="#787878" d="M4054.9,883.1c-45.6,23.9-78.7,42.2-87.8,107.2c-27.4,206.3-174.4,330.6-299.8,330.6
		c-111.7,0-148.2-71.8-148.2-148.2c0-126.5,108.3-405.8,337.4-407c19.4,0,95.8,5.7,95.8,43.3c0,6.8-1.1,18.2-18.2,18.2
		c-14.8,0-10.3-9.1-39.9-9.1c-104.9,0-238.3,212-238.3,359.1c0,44.5,17.1,78.7,60.4,78.7c71.8,0,149.3-103.7,149.3-233.7
		c0-78.7-35.3-84.4-35.3-101.5c0-5.7,1.1-16,13.7-25.1c37.6-30.8,96.9-49,161.9-49c21.7,0,62.7,2.3,62.7,20.5
		C4068.6,872.8,4064,879.6,4054.9,883.1z"/>
	<path fill="#787878" d="M4457.3,1017.6c-35.3,79.8-60.4,152.8-98,224.6c0,0-78.7,204.1-163,313.5c-57,74.1-151.6,144.8-229.1,144.8
		c-8,0-10.3-2.3-10.3-6.8c0-8,11.4-20.5,11.4-20.5c127.7-83.2,283.9-449.2,326-546.1c1.1-2.3,1.1-4.6,1.1-5.7c0-2.3-1.1-2.3-2.3-2.3
		c-3.4,0-9.1,3.4-9.1,3.4c-79.8,111.7-167.6,192.7-239.4,192.7c-55.9,0-65-52.4-65-87.8c0-192.7,208.6-451.4,378.5-451.4
		c68.4,0,77.5,27.4,98,27.4c4.6,0,6.8-1.1,6.8-1.1c9.1-3.4,43.3-16,68.4-16c14.8,0,26.2,4.6,26.2,17.1
		C4553.1,826.1,4508.6,902.4,4457.3,1017.6z M4383.2,816.9c-99.2,0-266.8,280.4-266.8,368.2c0,16,4.6,21.7,22.8,21.7
		c59.3,0,272.5-322.6,272.5-368.2C4411.7,828.3,4404.9,816.9,4383.2,816.9z"/>
	<path fill="#787878" d="M4927,1025.6c0,0,0,23.9-18.2,23.9c-5.7,0-73-4.6-73-62.7c0-16,4.6-36.5,19.4-62.7c2.3-4.6,3.4-8,3.4-10.3
		c0-3.4-2.3-4.6-4.6-4.6c-6.8,0-17.1,6.8-17.1,6.8c-84.4,67.3-197.2,241.7-229.1,304.4c0,0-16,33.1-27.4,53.6
		c-13.7,26.2-45.6,39.9-92.3,39.9c-6.8,0-14.8,0-21.7-1.1c-19.4-1.1-23.9-11.4-23.9-19.4c0-5.7,2.3-11.4,2.3-11.4
		c61.6-168.7,189.2-391,189.2-454.9c0-8-2.3-9.1-2.3-14.8c0-5.7,3.4-14.8,18.2-19.4c1.1-1.1,44.5-8,79.8-8c25.1,0,46.7,3.4,46.7,16
		c0,31.9-86.6,207.5-86.6,207.5s-1.1,3.4-1.1,5.7s1.1,3.4,3.4,3.4c3.4,0,8-5.7,8-5.7c22.8-29.6,173.3-231.4,301-231.4
		c16,0,27.4,4.6,27.4,17.1C5028.4,812.4,4940.6,961.7,4927,1025.6z"/>
	<path fill="#787878" d="M5131,1067.7c-8,0-17.1,0-26.2-1.1c-10.3,0-12.5,6.8-12.5,6.8c-12.5,28.5-25.1,69.5-25.1,103.7
		c0,45.6,21.7,69.5,66.1,69.5c67.3,0,102.6-51.3,144.8-120.8c0,0,5.7-12.5,13.7-12.5c13.7,0,19.4,8,19.4,18.2
		c0,6.8-2.3,14.8-5.7,22.8c-49,112.9-153.9,168.7-248.5,168.7c-69.5,0-126.5-38.8-126.5-135.7c0-190.4,188.1-418.4,375.1-418.4
		c42.2,0,118.6,6.8,118.6,93.5C5424,978.8,5266.7,1067.7,5131,1067.7z M5305.4,806.7c-14.8,0-96.9,2.3-192.7,210.9
		c0,0-1.1,2.3-1.1,4.6c0,2.3,1.1,4.6,5.7,5.7c6.8,1.1,12.5,1.1,18.2,1.1c108.3,0,189.2-150.5,189.2-198.4
		C5324.8,810.1,5313.4,806.7,5305.4,806.7z"/>
	<path fill="#787878" d="M5801.3,941.2c0,0-1.1,21.7-26.2,21.7c-6.8,0-69.5-1.1-69.5-54.7c0-34.2,26.2-63.8,26.2-80.9
		c0-13.7-16-13.7-37.6-13.7c-37.6,0-87.8,23.9-87.8,83.2c0,21.7,9.1,52.4,45.6,78.7c49,35.3,90.1,86.6,90.1,149.3
		c0,45.6-42.2,202.9-239.4,202.9c-110.6,0-171-45.6-171-112.9c0-102.6,86.6-139.1,157.3-139.1c16,0,21.7,6.8,21.7,14.8
		c0,11.4-14.8,22.8-14.8,22.8c-45.6,39.9-54.7,80.9-54.7,106c0,44.5,35.3,66.1,65,66.1c85.5,0,106-99.2,106-132.2
		c0-58.1-43.3-77.5-100.3-140.2c-25.1-27.4-34.2-54.7-34.2-78.7c0-100.3,115.1-161.9,236-161.9c73,0,118.6,19.4,118.6,19.4
		c13.7,4.6,19.4,9.1,19.4,19.4C5851.5,828.3,5804.8,905.9,5801.3,941.2z"/>
	<path fill="#787878" d="M6235.7,941.2c0,0-1.1,21.7-26.2,21.7c-6.8,0-69.5-1.1-69.5-54.7c0-34.2,26.2-63.8,26.2-80.9
		c0-13.7-16-13.7-37.6-13.7c-37.6,0-87.8,23.9-87.8,83.2c0,21.7,9.1,52.4,45.6,78.7c49,35.3,90.1,86.6,90.1,149.3
		c0,45.6-42.2,202.9-239.4,202.9c-110.6,0-171-45.6-171-112.9c0-102.6,86.6-139.1,157.3-139.1c16,0,21.7,6.8,21.7,14.8
		c0,11.4-14.8,22.8-14.8,22.8c-45.6,39.9-54.7,80.9-54.7,106c0,44.5,35.3,66.1,65,66.1c85.5,0,106-99.2,106-132.2
		c0-58.1-43.3-77.5-100.3-140.2c-25.1-27.4-34.2-54.7-34.2-78.7c0-100.3,115.1-161.9,236-161.9c73,0,118.6,19.4,118.6,19.4
		c13.7,4.6,19.4,9.1,19.4,19.4C6285.8,828.3,6239.1,905.9,6235.7,941.2z"/>
	<path fill="#787878" d="M6421.5,1016.4c-30.8,74.1-75.2,149.3-88.9,212c0,0-8,23.9-8,37.6c0,11.4-1.1,29.6-16,34.2
		c-13.7,5.7-51.3,12.5-82.1,12.5c-26.2,0-47.9-4.6-47.9-21.7c0-5.7,2.3-11.4,2.3-11.4c27.4-78.7,126.5-286.1,126.5-286.1
		c26.2-59.3,62.7-126.5,62.7-166.4c0-8-2.3-9.1-2.3-14.8c0-5.7,3.4-14.8,18.2-19.4c1.1-1.1,44.5-8,79.8-8c25.1,0,46.7,3.4,46.7,16
		C6512.7,821.5,6421.5,1016.4,6421.5,1016.4z M6500.2,718.9c-31.9,0-52.4-22.8-52.4-53.6c0-45.6,45.6-87.8,87.8-87.8
		c31.9,0,52.4,22.8,52.4,52.4C6587.9,676.7,6546.9,718.9,6500.2,718.9z"/>
	<path fill="#787878" d="M6552.6,1332.2c0,0-6.8,4.6-18.2,4.6c-19.4,0-20.5-20.5-20.5-20.5c1.1-82.1,23.9-319.2,23.9-319.2
		c6.8-84.4,10.3-86.6,10.3-130c0-28.5-19.4-52.4-19.4-66.1c0-5.7,2.3-11.4,11.4-14.8c8-3.4,49-10.3,84.4-10.3
		c51.3,0,52.4,11.4,52.4,51.3c0,49-12.5,118.6-19.4,191.5c-6.8,70.7-17.1,110.6-22.8,166.4c0,0,0,11.4,6.8,11.4
		c2.3,0,6.8-1.1,12.5-6.8c75.2-73,171-188.1,171-321.5c0-37.6-17.1-49-17.1-60.4c1.1-11.4,14.8-13.7,14.8-13.7
		c57-14.8,122-14.8,125.4-14.8c16,0,17.1,17.1,17.1,26.2C6965.3,886.5,6769.2,1168.1,6552.6,1332.2z"/>
	<path fill="#787878" d="M7073.6,1067.7c-8,0-17.1,0-26.2-1.1c-10.3,0-12.5,6.8-12.5,6.8c-12.5,28.5-25.1,69.5-25.1,103.7
		c0,45.6,21.7,69.5,66.1,69.5c67.3,0,102.6-51.3,144.8-120.8c0,0,5.7-12.5,13.7-12.5c13.7,0,19.4,8,19.4,18.2
		c0,6.8-2.3,14.8-5.7,22.8c-49,112.9-153.9,168.7-248.5,168.7c-69.5,0-126.5-38.8-126.5-135.7c0-190.4,188.1-418.4,375.1-418.4
		c42.2,0,118.6,6.8,118.6,93.5C7366.5,978.8,7209.2,1067.7,7073.6,1067.7z M7248,806.7c-14.8,0-96.9,2.3-192.7,210.9
		c0,0-1.1,2.3-1.1,4.6c0,2.3,1.1,4.6,5.7,5.7c6.8,1.1,12.5,1.1,18.2,1.1c108.3,0,189.2-150.5,189.2-198.4
		C7267.4,810.1,7256,806.7,7248,806.7z"/>
	<path fill="#787878" d="M8190.7,690.4c0,0-9.1,11.4-21.7,11.4c-14.8,0-16-2.3-16-49c0-61.6-33.1-99.2-94.6-99.2
		c-161.9,0-328.3,314.6-328.3,552.9c0,67.3,18.2,134.5,91.2,134.5c27.4,0,161.9-12.5,254.2-286.1c0,0,5.7-14.8,17.1-14.8
		c19.4,0,28.5,26.2,28.5,52.4c0,60.4-122,335.2-368.2,335.2c-159.6,0-188.1-111.7-188.1-201.8c0-140.2,128.8-646.4,583.7-646.4
		c21.7,0,112.9,3.4,112.9,61.6C8261.4,544.5,8261.4,601.5,8190.7,690.4z"/>
	<path fill="#787878" d="M8548.7,1017.6c-35.3,77.5-92.3,187-92.3,240.5c0,13.7,4.6,17.1,4.6,27.4c0,8-2.3,16-12.5,19.4
		c0,0-42.2,16-78.7,16c-22.8,0-46.7-5.7-46.7-34.2s36.5-99.2,36.5-107.2c0-2.3-1.1-2.3-2.3-2.3c-1.1,1.1-3.4,1.1-6.8,5.7
		c0,0-93.5,135.7-202.9,135.7c0,0-74.1-1.1-74.1-87.8c0-55.9,51.3-266.8,321.5-266.8c0,0,16,0,16,11.4c0,9.1-9.1,18.2-16,19.4
		c-124.3,22.8-176.7,173.3-176.7,208.6c0,26.2,11.4,26.2,20.5,26.2c66.1,0,230.3-254.2,230.3-329.5c0-41-30.8-52.4-63.8-52.4
		c-47.9,0-98,30.8-98,30.8c-14.8,10.3-22.8,11.4-26.2,11.4c-5.7,0-8-5.7-8-11.4c0-38.8,60.4-107.2,184.7-107.2
		c131.1,0,139.1,78.7,139.1,102.6C8596.6,920.7,8548.7,1017.6,8548.7,1017.6z"/>
	<path fill="#787878" d="M9010.4,1025.6c0,0,0,23.9-18.2,23.9c-5.7,0-73-4.6-73-62.7c0-16,4.6-36.5,19.4-62.7
		c2.3-4.6,3.4-8,3.4-10.3c0-3.4-2.3-4.6-4.6-4.6c-6.8,0-17.1,6.8-17.1,6.8c-84.4,67.3-197.2,241.7-229.1,304.4
		c0,0-16,33.1-27.4,53.6c-13.7,26.2-45.6,39.9-92.3,39.9c-6.8,0-14.8,0-21.7-1.1c-19.4-1.1-23.9-11.4-23.9-19.4
		c0-5.7,2.3-11.4,2.3-11.4c61.6-168.7,189.2-391,189.2-454.9c0-8-2.3-9.1-2.3-14.8c0-5.7,3.4-14.8,18.2-19.4c1.1-1.1,44.5-8,79.8-8
		c25.1,0,46.7,3.4,46.7,16c0,31.9-86.6,207.5-86.6,207.5s-1.1,3.4-1.1,5.7s1.1,3.4,3.4,3.4c3.4,0,8-5.7,8-5.7
		c22.8-29.6,173.3-231.4,301-231.4c16,0,27.4,4.6,27.4,17.1C9111.8,812.4,9024.1,961.7,9010.4,1025.6z"/>
	<path fill="#787878" d="M9214.4,1067.7c-8,0-17.1,0-26.2-1.1c-10.3,0-12.5,6.8-12.5,6.8c-12.5,28.5-25.1,69.5-25.1,103.7
		c0,45.6,21.7,69.5,66.1,69.5c67.3,0,102.6-51.3,144.8-120.8c0,0,5.7-12.5,13.7-12.5c13.7,0,19.4,8,19.4,18.2
		c0,6.8-2.3,14.8-5.7,22.8c-49,112.9-153.9,168.7-248.5,168.7c-69.5,0-126.5-38.8-126.5-135.7c0-190.4,188.1-418.4,375.1-418.4
		c42.2,0,118.6,6.8,118.6,93.5C9507.4,978.8,9350.1,1067.7,9214.4,1067.7z M9388.8,806.7c-14.8,0-96.9,2.3-192.7,210.9
		c0,0-1.1,2.3-1.1,4.6c0,2.3,1.1,4.6,5.7,5.7c6.8,1.1,12.5,1.1,18.2,1.1c108.3,0,189.2-150.5,189.2-198.4
		C9408.2,810.1,9396.8,806.7,9388.8,806.7z"/>
</g>
</svg>
