<?xml version="1.0" encoding="utf-8"?>
<!-- Generator: Adobe Illustrator 17.1.0, SVG Export Plug-In . SVG Version: 6.00 Build 0)  -->
<!DOCTYPE svg PUBLIC "-//W3C//DTD SVG 1.1//EN" "http://www.w3.org/Graphics/SVG/1.1/DTD/svg11.dtd">
<svg version="1.1" id="Capa_1" xmlns="http://www.w3.org/2000/svg" xmlns:xlink="http://www.w3.org/1999/xlink" x="0px" y="0px"
	 width="484.7px" height="484.7px" viewBox="0 0 484.7 484.7" enable-background="new 0 0 484.7 484.7" xml:space="preserve">
<g>
	<g>
		<path d="M131,438.4h85.6v-87.6h51.5v87.6h85.6v-392H131V438.4z M258,92.6h51.5V144H258V92.6z M258,175.3h51.5v51.5H258V175.3z
			 M258,258h51.5v51.5H258V258z M175.3,92.6h51.5V144h-51.5V92.6z M175.3,175.3h51.5v51.5h-51.5V175.3z M175.3,258h51.5v51.5h-51.5
			V258z"/>
		<path d="M373.7,81.5v277.2h33.1v79.7h78V81.5H373.7z M444.4,321h-46.9v-46.9h46.9L444.4,321L444.4,321z M444.4,245.7h-46.9v-46.9
			h46.9L444.4,245.7L444.4,245.7z M444.4,170.4h-46.9v-46.9h46.9L444.4,170.4L444.4,170.4z"/>
		<path d="M0,438.4h78v-79.7H111V81.5H0V438.4z M40.3,123.5h46.9v46.9H40.3V123.5z M40.3,198.8h46.9v46.9H40.3V198.8z M40.3,274.2
			h46.9V321H40.3V274.2z"/>
	</g>
</g>
</svg>
