<?xml version="1.0" encoding="utf-8"?>
<!-- Generator: Adobe Illustrator 17.1.0, SVG Export Plug-In . SVG Version: 6.00 Build 0)  -->
<!DOCTYPE svg PUBLIC "-//W3C//DTD SVG 1.1//EN" "http://www.w3.org/Graphics/SVG/1.1/DTD/svg11.dtd">
<svg version="1.1" id="Capa_1" xmlns="http://www.w3.org/2000/svg" xmlns:xlink="http://www.w3.org/1999/xlink" x="0px" y="0px"
	 width="560px" height="445.5px" viewBox="0 0 560 445.5" enable-background="new 0 0 560 445.5" xml:space="preserve">
<path d="M546.8,255.6h-11V117.1c0-7.3-5.9-13.2-13.2-13.2h-10.5V65.1c0-7.3-5.9-13.2-13.2-13.2h-15.9V13.2c0-7.3-5.9-13.2-13.2-13.2
	H90.1c-7.3,0-13.2,5.9-13.2,13.2v38.8H61.1c-7.3,0-13.2,5.9-13.2,13.2v38.8H37.4c-7.3,0-13.2,5.9-13.2,13.2v138.5h-11
	c-7.3,0-13.2,5.9-13.2,13.2v163.5c0,7.3,5.9,13.2,13.2,13.2h533.6c7.3,0,13.2-5.9,13.2-13.2V268.8
	C560,261.5,554.1,255.6,546.8,255.6z M103.3,26.4h353.4v25.6H103.3V26.4z M74.3,78.3h411.5v25.6H74.3
	C74.3,103.9,74.3,78.3,74.3,78.3z M50.5,130.3h458.9v125.3H408.1c-6.3,0-11.8,4.5-13,10.7L384,325H176l-11.2-58.7
	c-1.2-6.2-6.6-10.7-13-10.7H50.5V130.3z"/>
</svg>
