<?xml version="1.0" encoding="utf-8"?>
<!-- Generator: Adobe Illustrator 17.1.0, SVG Export Plug-In . SVG Version: 6.00 Build 0)  -->
<!DOCTYPE svg PUBLIC "-//W3C//DTD SVG 1.1//EN" "http://www.w3.org/Graphics/SVG/1.1/DTD/svg11.dtd">
<svg version="1.1" id="Layer_1" xmlns="http://www.w3.org/2000/svg" xmlns:xlink="http://www.w3.org/1999/xlink" x="0px" y="0px"
	 width="207px" height="95.8px" viewBox="-0.5 -0.3 207 95.8" enable-background="new -0.5 -0.3 207 95.8" xml:space="preserve">
<path id="container" fill="#F9F9F9" stroke="#E5E5E5" d="M115,73.9h87c2.2,0,4-1.8,4-4V4.2c0-2.2-1.8-4-4-4H4c-2.2,0-4,1.8-4,4v65.7
	c0,2.2,1.8,4,4,4h85.8l11.7,20.6L115,73.9z"/>
<path fill="#B9B9B9" d="M64.3,23.6h-3.5v9.1h-1v-9.1h-3.5v-0.9h8.1V23.6z M71.8,32.6h-1v-4.1c0-0.8-0.1-1.5-0.4-1.9
	c-0.3-0.4-0.7-0.6-1.3-0.6c-0.3,0-0.5,0.1-0.8,0.2c-0.3,0.1-0.5,0.3-0.7,0.4s-0.4,0.4-0.6,0.7s-0.3,0.5-0.4,0.8v4.5h-1V22.4h1V27
	c0.3-0.6,0.7-1,1.2-1.3c0.5-0.3,1.1-0.5,1.7-0.5c0.4,0,0.8,0.1,1.1,0.2c0.3,0.2,0.5,0.4,0.7,0.6s0.3,0.6,0.4,1
	c0.1,0.4,0.1,0.8,0.1,1.3V32.6z M73.7,23.8v-1.4h1v1.4H73.7z M73.7,32.6v-7.3h1v7.3H73.7z M79.2,32.8c-0.6,0-1.1-0.1-1.7-0.3
	c-0.5-0.2-1-0.5-1.4-0.8l0.4-0.6c0.4,0.3,0.8,0.6,1.3,0.8s0.9,0.3,1.4,0.3c0.6,0,1.1-0.1,1.4-0.4c0.3-0.2,0.5-0.6,0.5-1
	c0-0.2,0-0.4-0.1-0.5c-0.1-0.1-0.2-0.3-0.4-0.4s-0.4-0.2-0.7-0.3c-0.3-0.1-0.6-0.2-1-0.2c-0.4-0.1-0.8-0.2-1.1-0.3
	c-0.3-0.1-0.6-0.2-0.8-0.3s-0.4-0.3-0.4-0.5c-0.1-0.2-0.1-0.4-0.1-0.7c0-0.4,0.1-0.7,0.2-1c0.1-0.3,0.3-0.5,0.6-0.7
	c0.2-0.2,0.5-0.3,0.9-0.4c0.3-0.1,0.7-0.1,1.1-0.1c0.6,0,1.1,0.1,1.5,0.3c0.5,0.2,0.8,0.4,1.1,0.7l-0.5,0.6c-0.3-0.3-0.6-0.5-1-0.6
	s-0.8-0.2-1.2-0.2c-0.3,0-0.5,0-0.7,0.1c-0.2,0.1-0.4,0.1-0.6,0.2c-0.2,0.1-0.3,0.3-0.4,0.4s-0.1,0.4-0.1,0.6c0,0.2,0,0.4,0.1,0.5
	s0.2,0.2,0.3,0.3s0.3,0.2,0.6,0.2c0.2,0.1,0.5,0.1,0.8,0.2c0.5,0.1,0.9,0.2,1.2,0.3c0.4,0.1,0.7,0.2,0.9,0.4
	c0.2,0.1,0.4,0.3,0.5,0.5C82,30,82,30.3,82,30.6c0,0.7-0.3,1.2-0.8,1.6C80.7,32.6,80,32.8,79.2,32.8z M90.9,32.8
	c-0.6,0-1.2-0.2-1.6-0.5s-0.9-0.7-1.1-1.2v4.5h-1V25.3H88v1.4c0.3-0.5,0.7-0.8,1.2-1.1c0.5-0.3,1-0.4,1.6-0.4c0.5,0,1,0.1,1.4,0.3
	c0.4,0.2,0.8,0.5,1.1,0.8c0.3,0.3,0.5,0.8,0.7,1.2c0.2,0.5,0.3,0.9,0.3,1.4c0,0.5-0.1,1-0.2,1.5c-0.2,0.5-0.4,0.9-0.7,1.2
	c-0.3,0.3-0.6,0.6-1,0.8C91.8,32.7,91.3,32.8,90.9,32.8z M90.6,31.9c0.4,0,0.7-0.1,1.1-0.3c0.3-0.2,0.6-0.4,0.8-0.7
	c0.2-0.3,0.4-0.6,0.5-0.9c0.1-0.4,0.2-0.7,0.2-1.1c0-0.4-0.1-0.8-0.2-1.1s-0.3-0.7-0.6-0.9c-0.2-0.3-0.5-0.5-0.9-0.6
	c-0.3-0.2-0.7-0.2-1.1-0.2c-0.2,0-0.5,0-0.8,0.1c-0.3,0.1-0.5,0.2-0.7,0.4c-0.2,0.2-0.4,0.4-0.6,0.6c-0.2,0.2-0.3,0.5-0.3,0.7v2.2
	c0.1,0.3,0.3,0.5,0.4,0.7c0.2,0.2,0.4,0.4,0.6,0.6c0.2,0.2,0.5,0.3,0.7,0.4C90.1,31.9,90.3,31.9,90.6,31.9z M97.7,32.8
	c-0.4,0-0.7-0.1-1-0.2c-0.3-0.1-0.6-0.3-0.8-0.5c-0.2-0.2-0.4-0.4-0.5-0.7c-0.1-0.3-0.2-0.6-0.2-0.9c0-0.3,0.1-0.6,0.2-0.9
	s0.4-0.5,0.6-0.7c0.3-0.2,0.6-0.3,1-0.5s0.8-0.2,1.3-0.2c0.4,0,0.7,0,1.1,0.1s0.7,0.2,1,0.3V28c0-0.6-0.2-1.2-0.6-1.5
	c-0.4-0.4-0.9-0.6-1.5-0.6c-0.4,0-0.8,0.1-1.2,0.2c-0.4,0.1-0.8,0.4-1.2,0.6l-0.3-0.6c0.5-0.3,0.9-0.6,1.4-0.7
	c0.4-0.2,0.9-0.2,1.4-0.2c0.9,0,1.6,0.3,2.1,0.8c0.5,0.5,0.8,1.2,0.8,2.1v3.3c0,0.3,0.1,0.4,0.3,0.4v0.8c-0.1,0-0.1,0-0.2,0
	c-0.1,0-0.1,0-0.2,0c-0.2,0-0.4-0.1-0.5-0.2c-0.2-0.1-0.2-0.3-0.3-0.5l0-0.6c-0.3,0.4-0.7,0.8-1.3,1C98.7,32.7,98.2,32.8,97.7,32.8z
	 M97.9,32c0.4,0,0.8-0.1,1.3-0.3c0.4-0.2,0.7-0.4,1-0.7c0.1-0.1,0.1-0.2,0.2-0.3c0-0.1,0.1-0.2,0.1-0.3v-1.2c-0.3-0.1-0.6-0.2-1-0.3
	s-0.7-0.1-1-0.1c-0.7,0-1.2,0.1-1.7,0.4s-0.6,0.7-0.6,1.1c0,0.2,0,0.4,0.1,0.6s0.2,0.4,0.3,0.5c0.2,0.1,0.3,0.3,0.6,0.4
	C97.3,32,97.6,32,97.9,32z M106.4,32.7c-0.5,0-1-0.1-1.4-0.3c-0.4-0.2-0.8-0.5-1.1-0.8c-0.3-0.3-0.5-0.7-0.7-1.2s-0.3-0.9-0.3-1.4
	c0-0.5,0.1-1,0.2-1.4c0.2-0.5,0.4-0.9,0.7-1.2c0.3-0.3,0.7-0.6,1.1-0.8c0.4-0.2,0.9-0.3,1.4-0.3c0.6,0,1.2,0.2,1.6,0.5
	s0.8,0.7,1.2,1.2v-1.5h0.9v7.3c0,0.5-0.1,0.9-0.3,1.3c-0.2,0.4-0.4,0.7-0.8,1c-0.3,0.3-0.7,0.5-1.1,0.6c-0.4,0.1-0.9,0.2-1.4,0.2
	c-0.8,0-1.5-0.1-2-0.4c-0.5-0.3-0.9-0.7-1.2-1.2l0.6-0.5c0.3,0.5,0.7,0.8,1.1,1c0.5,0.2,1,0.3,1.5,0.3c0.4,0,0.7,0,1-0.1
	c0.3-0.1,0.6-0.2,0.8-0.4s0.4-0.4,0.6-0.7s0.2-0.6,0.2-1v-1.4c-0.3,0.5-0.7,0.8-1.2,1.1C107.4,32.6,106.9,32.7,106.4,32.7z
	 M106.6,31.9c0.3,0,0.6-0.1,0.8-0.2c0.3-0.1,0.5-0.2,0.7-0.4c0.2-0.2,0.4-0.4,0.6-0.6s0.2-0.4,0.3-0.7v-2.3
	c-0.1-0.3-0.2-0.5-0.4-0.7c-0.2-0.2-0.4-0.4-0.6-0.6c-0.2-0.2-0.5-0.3-0.7-0.4c-0.3-0.1-0.5-0.1-0.8-0.1c-0.4,0-0.8,0.1-1.1,0.3
	c-0.3,0.2-0.6,0.4-0.8,0.7c-0.2,0.3-0.4,0.6-0.5,1c-0.1,0.4-0.2,0.7-0.2,1.1c0,0.4,0.1,0.8,0.2,1.1c0.1,0.4,0.3,0.7,0.6,0.9
	c0.2,0.3,0.5,0.5,0.9,0.6C105.9,31.9,106.2,31.9,106.6,31.9z M115.2,32.8c-0.5,0-1-0.1-1.5-0.3c-0.4-0.2-0.8-0.5-1.2-0.8
	c-0.3-0.3-0.6-0.8-0.8-1.2c-0.2-0.5-0.3-0.9-0.3-1.5c0-0.5,0.1-1,0.3-1.4c0.2-0.5,0.4-0.8,0.8-1.2c0.3-0.3,0.7-0.6,1.2-0.8
	c0.4-0.2,0.9-0.3,1.5-0.3c0.5,0,1,0.1,1.5,0.3c0.4,0.2,0.8,0.5,1.1,0.8c0.3,0.3,0.6,0.7,0.7,1.2c0.2,0.4,0.3,0.9,0.3,1.4
	c0,0.1,0,0.1,0,0.2c0,0.1,0,0.1,0,0.2h-6.2c0,0.4,0.1,0.8,0.3,1.1s0.3,0.6,0.6,0.9c0.2,0.2,0.5,0.4,0.8,0.6c0.3,0.1,0.6,0.2,1,0.2
	c0.2,0,0.5,0,0.7-0.1c0.2-0.1,0.4-0.2,0.6-0.3c0.2-0.1,0.4-0.2,0.5-0.4c0.2-0.2,0.3-0.3,0.4-0.5l0.8,0.2c-0.1,0.3-0.3,0.5-0.5,0.7
	c-0.2,0.2-0.4,0.4-0.7,0.6c-0.3,0.2-0.6,0.3-0.9,0.4S115.6,32.8,115.2,32.8z M117.9,28.6c0-0.4-0.1-0.7-0.3-1.1
	c-0.2-0.3-0.4-0.6-0.6-0.8c-0.2-0.2-0.5-0.4-0.8-0.5c-0.3-0.1-0.7-0.2-1-0.2c-0.4,0-0.7,0.1-1,0.2c-0.3,0.1-0.6,0.3-0.8,0.5
	c-0.2,0.2-0.4,0.5-0.6,0.8c-0.1,0.3-0.2,0.7-0.3,1.1H117.9z M130,32.6h-1v-4.1c0-0.8-0.1-1.5-0.4-1.9c-0.3-0.4-0.7-0.6-1.3-0.6
	c-0.3,0-0.5,0.1-0.8,0.2c-0.3,0.1-0.5,0.3-0.7,0.4c-0.2,0.2-0.4,0.4-0.6,0.7s-0.3,0.5-0.4,0.8v4.5h-1V22.4h1V27
	c0.3-0.6,0.7-1,1.2-1.3c0.5-0.3,1.1-0.5,1.7-0.5c0.4,0,0.8,0.1,1.1,0.2c0.3,0.2,0.5,0.4,0.7,0.6c0.2,0.3,0.3,0.6,0.4,1
	c0.1,0.4,0.1,0.8,0.1,1.3V32.6z M133.9,32.8c-0.4,0-0.7-0.1-1-0.2c-0.3-0.1-0.6-0.3-0.8-0.5c-0.2-0.2-0.4-0.4-0.5-0.7
	c-0.1-0.3-0.2-0.6-0.2-0.9c0-0.3,0.1-0.6,0.2-0.9s0.4-0.5,0.6-0.7c0.3-0.2,0.6-0.3,1-0.5c0.4-0.1,0.8-0.2,1.3-0.2
	c0.4,0,0.7,0,1.1,0.1s0.7,0.2,1,0.3V28c0-0.6-0.2-1.2-0.6-1.5c-0.4-0.4-0.9-0.6-1.5-0.6c-0.4,0-0.8,0.1-1.2,0.2
	c-0.4,0.1-0.8,0.4-1.2,0.6l-0.3-0.6c0.5-0.3,0.9-0.6,1.4-0.7c0.4-0.2,0.9-0.2,1.4-0.2c0.9,0,1.6,0.3,2.1,0.8
	c0.5,0.5,0.8,1.2,0.8,2.1v3.3c0,0.3,0.1,0.4,0.3,0.4v0.8c-0.1,0-0.1,0-0.2,0c-0.1,0-0.1,0-0.2,0c-0.2,0-0.4-0.1-0.5-0.2
	c-0.2-0.1-0.2-0.3-0.3-0.5l0-0.6c-0.3,0.4-0.7,0.8-1.3,1C134.9,32.7,134.4,32.8,133.9,32.8z M134.1,32c0.4,0,0.8-0.1,1.3-0.3
	c0.4-0.2,0.7-0.4,1-0.7c0.1-0.1,0.1-0.2,0.2-0.3c0-0.1,0.1-0.2,0.1-0.3v-1.2c-0.3-0.1-0.6-0.2-1-0.3s-0.7-0.1-1-0.1
	c-0.7,0-1.2,0.1-1.7,0.4s-0.6,0.7-0.6,1.1c0,0.2,0,0.4,0.1,0.6c0.1,0.2,0.2,0.4,0.3,0.5s0.3,0.3,0.6,0.4C133.5,32,133.8,32,134.1,32
	z M142.1,32.8c-0.6,0-1.1-0.1-1.7-0.3s-1-0.5-1.4-0.8l0.4-0.6c0.4,0.3,0.8,0.6,1.3,0.8s0.9,0.3,1.4,0.3c0.6,0,1.1-0.1,1.4-0.4
	c0.3-0.2,0.5-0.6,0.5-1c0-0.2,0-0.4-0.1-0.5c-0.1-0.1-0.2-0.3-0.4-0.4s-0.4-0.2-0.7-0.3c-0.3-0.1-0.6-0.2-1-0.2
	c-0.4-0.1-0.8-0.2-1.1-0.3c-0.3-0.1-0.6-0.2-0.8-0.3s-0.3-0.3-0.4-0.5c-0.1-0.2-0.1-0.4-0.1-0.7c0-0.4,0.1-0.7,0.2-1
	c0.1-0.3,0.3-0.5,0.6-0.7c0.2-0.2,0.5-0.3,0.9-0.4c0.3-0.1,0.7-0.1,1.1-0.1c0.6,0,1.1,0.1,1.5,0.3c0.5,0.2,0.8,0.4,1.1,0.7l-0.5,0.6
	c-0.3-0.3-0.6-0.5-1-0.6c-0.4-0.1-0.8-0.2-1.2-0.2c-0.3,0-0.5,0-0.7,0.1c-0.2,0.1-0.4,0.1-0.6,0.2c-0.2,0.1-0.3,0.3-0.4,0.4
	s-0.1,0.4-0.1,0.6c0,0.2,0,0.4,0.1,0.5s0.2,0.2,0.3,0.3c0.2,0.1,0.3,0.2,0.6,0.2c0.2,0.1,0.5,0.1,0.8,0.2c0.5,0.1,0.9,0.2,1.2,0.3
	c0.4,0.1,0.7,0.2,0.9,0.4s0.4,0.3,0.5,0.5s0.2,0.5,0.2,0.8c0,0.7-0.3,1.2-0.8,1.6C143.6,32.6,142.9,32.8,142.1,32.8z M156.1,32.6h-1
	v-4.1c0-0.9-0.1-1.5-0.4-1.9c-0.3-0.4-0.6-0.6-1.2-0.6c-0.3,0-0.6,0.1-0.8,0.2c-0.3,0.1-0.5,0.2-0.8,0.4s-0.5,0.4-0.6,0.7
	c-0.2,0.3-0.3,0.5-0.4,0.8v4.5h-1v-7.3h0.9V27c0.1-0.3,0.3-0.5,0.6-0.7c0.2-0.2,0.5-0.4,0.7-0.6c0.3-0.2,0.6-0.3,0.9-0.4
	c0.3-0.1,0.6-0.1,0.9-0.1c0.4,0,0.8,0.1,1,0.2c0.3,0.1,0.5,0.4,0.7,0.6c0.2,0.3,0.3,0.6,0.4,1c0.1,0.4,0.1,0.8,0.1,1.3V32.6z
	 M161.3,32.8c-0.5,0-1-0.1-1.5-0.3c-0.4-0.2-0.8-0.5-1.1-0.8c-0.3-0.3-0.6-0.7-0.8-1.2c-0.2-0.5-0.3-0.9-0.3-1.4
	c0-0.5,0.1-1,0.3-1.5s0.4-0.9,0.8-1.2c0.3-0.3,0.7-0.6,1.1-0.8c0.4-0.2,0.9-0.3,1.4-0.3s1,0.1,1.4,0.3c0.4,0.2,0.8,0.5,1.1,0.8
	c0.3,0.3,0.6,0.7,0.8,1.2c0.2,0.5,0.3,0.9,0.3,1.5c0,0.5-0.1,1-0.3,1.4c-0.2,0.5-0.4,0.9-0.8,1.2c-0.3,0.3-0.7,0.6-1.1,0.8
	C162.3,32.7,161.8,32.8,161.3,32.8z M158.6,29c0,0.4,0.1,0.8,0.2,1.1c0.1,0.3,0.3,0.7,0.6,0.9c0.2,0.3,0.5,0.5,0.8,0.6
	c0.3,0.1,0.7,0.2,1,0.2s0.7-0.1,1-0.2c0.3-0.2,0.6-0.4,0.8-0.6c0.2-0.3,0.4-0.6,0.6-0.9c0.1-0.4,0.2-0.7,0.2-1.1
	c0-0.4-0.1-0.8-0.2-1.1c-0.1-0.4-0.3-0.7-0.6-0.9c-0.2-0.3-0.5-0.5-0.8-0.6c-0.3-0.2-0.7-0.2-1-0.2s-0.7,0.1-1,0.2
	c-0.3,0.2-0.6,0.4-0.8,0.6c-0.2,0.3-0.4,0.6-0.6,0.9C158.7,28.2,158.6,28.6,158.6,29z M169.9,32.3c-0.1,0-0.1,0.1-0.2,0.1
	c-0.1,0-0.2,0.1-0.4,0.1c-0.1,0-0.3,0.1-0.5,0.1s-0.4,0.1-0.6,0.1c-0.2,0-0.4,0-0.6-0.1c-0.2-0.1-0.4-0.1-0.5-0.3
	c-0.1-0.1-0.3-0.3-0.3-0.4c-0.1-0.2-0.1-0.4-0.1-0.6v-5.2h-1v-0.8h1v-2.5h1v2.5h1.7v0.8h-1.7v5c0,0.3,0.1,0.5,0.3,0.6
	s0.4,0.2,0.6,0.2c0.3,0,0.5,0,0.7-0.1s0.3-0.2,0.4-0.2L169.9,32.3z M57.4,54.9c0,0,0.1,0,0.1,0c0,0,0.1,0,0.1,0c0.1,0,0.2,0,0.3,0
	s0.2,0,0.2-0.1c0,0,0.1-0.1,0.1-0.1s0.1-0.2,0.2-0.3c0.1-0.2,0.2-0.4,0.3-0.6c0.1-0.3,0.3-0.6,0.5-1.1l-3.2-7.3h1l2.7,6.4l2.5-6.4
	h0.9l-3.8,9.4c-0.1,0.3-0.3,0.6-0.6,0.8c-0.2,0.2-0.6,0.3-1,0.3c-0.2,0-0.3,0-0.5,0V54.9z M67.8,52.8c-0.5,0-1-0.1-1.5-0.3
	c-0.4-0.2-0.8-0.5-1.2-0.8c-0.3-0.3-0.6-0.8-0.8-1.2c-0.2-0.5-0.3-0.9-0.3-1.5c0-0.5,0.1-1,0.3-1.4c0.2-0.5,0.4-0.8,0.8-1.2
	s0.7-0.6,1.2-0.8c0.4-0.2,0.9-0.3,1.5-0.3c0.5,0,1,0.1,1.5,0.3c0.4,0.2,0.8,0.5,1.1,0.8c0.3,0.3,0.6,0.7,0.7,1.2
	c0.2,0.4,0.3,0.9,0.3,1.4c0,0.1,0,0.1,0,0.2c0,0.1,0,0.1,0,0.2h-6.2c0,0.4,0.1,0.8,0.3,1.1c0.2,0.3,0.3,0.6,0.6,0.9
	c0.2,0.2,0.5,0.4,0.8,0.6c0.3,0.1,0.6,0.2,1,0.2c0.2,0,0.5,0,0.7-0.1c0.2-0.1,0.4-0.2,0.6-0.3c0.2-0.1,0.4-0.2,0.5-0.4
	c0.2-0.2,0.3-0.3,0.4-0.5l0.8,0.2c-0.1,0.3-0.3,0.5-0.5,0.7c-0.2,0.2-0.4,0.4-0.7,0.6c-0.3,0.2-0.6,0.3-0.9,0.4
	C68.5,52.7,68.1,52.8,67.8,52.8z M70.5,48.6c0-0.4-0.1-0.7-0.3-1.1c-0.2-0.3-0.4-0.6-0.6-0.8s-0.5-0.4-0.8-0.5
	c-0.3-0.1-0.7-0.2-1-0.2c-0.4,0-0.7,0.1-1,0.2c-0.3,0.1-0.6,0.3-0.8,0.5c-0.2,0.2-0.4,0.5-0.6,0.8c-0.1,0.3-0.2,0.7-0.3,1.1H70.5z
	 M76.3,52.3c-0.1,0-0.1,0.1-0.2,0.1c-0.1,0-0.2,0.1-0.4,0.1s-0.3,0.1-0.5,0.1s-0.4,0.1-0.6,0.1c-0.2,0-0.4,0-0.6-0.1
	c-0.2-0.1-0.4-0.1-0.5-0.3c-0.1-0.1-0.3-0.3-0.3-0.4c-0.1-0.2-0.1-0.4-0.1-0.6v-5.2h-1v-0.8h1v-2.5h1v2.5h1.7v0.8H74v5
	c0,0.3,0.1,0.5,0.3,0.6s0.4,0.2,0.6,0.2c0.3,0,0.5,0,0.7-0.1c0.2-0.1,0.3-0.2,0.4-0.2L76.3,52.3z M84.6,52.8c-0.6,0-1.1-0.1-1.6-0.4
	s-0.9-0.7-1.1-1.1v1.4H81V42.4h1v4.5c0.3-0.5,0.7-0.9,1.2-1.2s1-0.5,1.6-0.5c0.5,0,1,0.1,1.4,0.3s0.8,0.5,1,0.9
	c0.3,0.4,0.5,0.8,0.7,1.2C88,48.1,88,48.5,88,49c0,0.5-0.1,1-0.3,1.5s-0.4,0.9-0.7,1.2c-0.3,0.3-0.7,0.6-1.1,0.8
	C85.5,52.7,85,52.8,84.6,52.8z M84.3,51.9c0.4,0,0.8-0.1,1.1-0.2c0.3-0.2,0.6-0.4,0.9-0.7c0.2-0.3,0.4-0.6,0.6-0.9s0.2-0.7,0.2-1.1
	c0-0.4-0.1-0.8-0.2-1.1c-0.1-0.4-0.3-0.7-0.5-0.9c-0.2-0.3-0.5-0.5-0.8-0.7s-0.7-0.2-1-0.2c-0.3,0-0.6,0-0.8,0.1
	c-0.3,0.1-0.5,0.2-0.7,0.4s-0.4,0.4-0.6,0.6c-0.2,0.2-0.3,0.5-0.4,0.7v2.3c0,0.3,0.1,0.5,0.3,0.7c0.2,0.2,0.4,0.4,0.6,0.6
	c0.2,0.2,0.5,0.3,0.7,0.4C83.8,51.9,84.1,51.9,84.3,51.9z M92.8,52.8c-0.5,0-1-0.1-1.5-0.3c-0.4-0.2-0.8-0.5-1.2-0.8
	c-0.3-0.3-0.6-0.8-0.8-1.2c-0.2-0.5-0.3-0.9-0.3-1.5c0-0.5,0.1-1,0.3-1.4c0.2-0.5,0.4-0.8,0.8-1.2s0.7-0.6,1.2-0.8
	c0.4-0.2,0.9-0.3,1.5-0.3c0.5,0,1,0.1,1.5,0.3c0.4,0.2,0.8,0.5,1.1,0.8c0.3,0.3,0.6,0.7,0.7,1.2c0.2,0.4,0.3,0.9,0.3,1.4
	c0,0.1,0,0.1,0,0.2c0,0.1,0,0.1,0,0.2h-6.2c0,0.4,0.1,0.8,0.3,1.1c0.2,0.3,0.3,0.6,0.6,0.9c0.2,0.2,0.5,0.4,0.8,0.6
	c0.3,0.1,0.6,0.2,1,0.2c0.2,0,0.5,0,0.7-0.1c0.2-0.1,0.4-0.2,0.6-0.3c0.2-0.1,0.4-0.2,0.5-0.4c0.2-0.2,0.3-0.3,0.4-0.5l0.8,0.2
	c-0.1,0.3-0.3,0.5-0.5,0.7c-0.2,0.2-0.4,0.4-0.7,0.6c-0.3,0.2-0.6,0.3-0.9,0.4C93.5,52.7,93.2,52.8,92.8,52.8z M95.5,48.6
	c0-0.4-0.1-0.7-0.3-1.1c-0.2-0.3-0.4-0.6-0.6-0.8s-0.5-0.4-0.8-0.5c-0.3-0.1-0.7-0.2-1-0.2c-0.4,0-0.7,0.1-1,0.2
	c-0.3,0.1-0.6,0.3-0.8,0.5c-0.2,0.2-0.4,0.5-0.6,0.8c-0.1,0.3-0.2,0.7-0.3,1.1H95.5z M101,52.8c-0.5,0-1-0.1-1.5-0.3
	c-0.4-0.2-0.8-0.5-1.2-0.8c-0.3-0.3-0.6-0.8-0.8-1.2c-0.2-0.5-0.3-0.9-0.3-1.5c0-0.5,0.1-1,0.3-1.4c0.2-0.5,0.4-0.8,0.8-1.2
	s0.7-0.6,1.2-0.8c0.4-0.2,0.9-0.3,1.5-0.3c0.5,0,1,0.1,1.5,0.3c0.4,0.2,0.8,0.5,1.1,0.8c0.3,0.3,0.6,0.7,0.7,1.2
	c0.2,0.4,0.3,0.9,0.3,1.4c0,0.1,0,0.1,0,0.2c0,0.1,0,0.1,0,0.2h-6.2c0,0.4,0.1,0.8,0.3,1.1c0.2,0.3,0.3,0.6,0.6,0.9
	c0.2,0.2,0.5,0.4,0.8,0.6c0.3,0.1,0.6,0.2,1,0.2c0.2,0,0.5,0,0.7-0.1c0.2-0.1,0.4-0.2,0.6-0.3c0.2-0.1,0.4-0.2,0.5-0.4
	c0.2-0.2,0.3-0.3,0.4-0.5l0.8,0.2c-0.1,0.3-0.3,0.5-0.5,0.7c-0.2,0.2-0.4,0.4-0.7,0.6c-0.3,0.2-0.6,0.3-0.9,0.4
	C101.7,52.7,101.4,52.8,101,52.8z M103.7,48.6c0-0.4-0.1-0.7-0.3-1.1c-0.2-0.3-0.4-0.6-0.6-0.8s-0.5-0.4-0.8-0.5
	c-0.3-0.1-0.7-0.2-1-0.2c-0.4,0-0.7,0.1-1,0.2c-0.3,0.1-0.6,0.3-0.8,0.5c-0.2,0.2-0.4,0.5-0.6,0.8c-0.1,0.3-0.2,0.7-0.3,1.1H103.7z
	 M112.2,52.6h-1v-4.1c0-0.9-0.1-1.5-0.4-1.9c-0.3-0.4-0.6-0.6-1.2-0.6c-0.3,0-0.6,0.1-0.8,0.2c-0.3,0.1-0.5,0.2-0.8,0.4
	c-0.2,0.2-0.5,0.4-0.6,0.7s-0.3,0.5-0.4,0.8v4.5h-1v-7.3h0.9V47c0.1-0.3,0.3-0.5,0.6-0.7c0.2-0.2,0.5-0.4,0.7-0.6
	c0.3-0.2,0.6-0.3,0.9-0.4c0.3-0.1,0.6-0.1,0.9-0.1c0.4,0,0.8,0.1,1,0.2c0.3,0.1,0.5,0.4,0.7,0.6c0.2,0.3,0.3,0.6,0.4,1
	c0.1,0.4,0.1,0.8,0.1,1.3V52.6z M117.3,49c0-0.5,0.1-1,0.3-1.5s0.4-0.9,0.7-1.2c0.3-0.3,0.7-0.6,1.2-0.8c0.4-0.2,0.9-0.3,1.5-0.3
	c0.7,0,1.3,0.2,1.8,0.5c0.5,0.3,0.9,0.7,1.2,1.3l-0.9,0.3c-0.2-0.4-0.5-0.7-0.9-0.9c-0.4-0.2-0.8-0.3-1.2-0.3c-0.4,0-0.7,0.1-1,0.2
	c-0.3,0.1-0.6,0.4-0.8,0.6s-0.4,0.6-0.6,0.9s-0.2,0.7-0.2,1.2c0,0.4,0.1,0.8,0.2,1.2c0.1,0.4,0.3,0.7,0.6,0.9
	c0.2,0.3,0.5,0.5,0.8,0.6c0.3,0.2,0.7,0.2,1,0.2c0.2,0,0.5,0,0.7-0.1s0.4-0.2,0.6-0.3c0.2-0.1,0.4-0.2,0.5-0.4s0.2-0.3,0.3-0.5
	L124,51c-0.1,0.3-0.3,0.5-0.4,0.7c-0.2,0.2-0.4,0.4-0.7,0.6s-0.6,0.3-0.9,0.4c-0.3,0.1-0.7,0.1-1,0.1c-0.5,0-1-0.1-1.5-0.3
	c-0.4-0.2-0.8-0.5-1.2-0.8c-0.3-0.3-0.6-0.8-0.8-1.2C117.4,50,117.3,49.5,117.3,49z M128.5,52.8c-0.5,0-1-0.1-1.5-0.3
	c-0.4-0.2-0.8-0.5-1.1-0.8c-0.3-0.3-0.6-0.7-0.8-1.2c-0.2-0.5-0.3-0.9-0.3-1.4c0-0.5,0.1-1,0.3-1.5s0.4-0.9,0.8-1.2
	c0.3-0.3,0.7-0.6,1.1-0.8c0.4-0.2,0.9-0.3,1.4-0.3s1,0.1,1.4,0.3c0.4,0.2,0.8,0.5,1.1,0.8c0.3,0.3,0.6,0.7,0.8,1.2
	c0.2,0.5,0.3,0.9,0.3,1.5c0,0.5-0.1,1-0.3,1.4c-0.2,0.5-0.4,0.9-0.8,1.2c-0.3,0.3-0.7,0.6-1.1,0.8C129.5,52.7,129,52.8,128.5,52.8z
	 M125.9,49c0,0.4,0.1,0.8,0.2,1.1c0.1,0.3,0.3,0.7,0.6,0.9c0.2,0.3,0.5,0.5,0.8,0.6c0.3,0.1,0.7,0.2,1,0.2s0.7-0.1,1-0.2
	c0.3-0.2,0.6-0.4,0.8-0.6c0.2-0.3,0.4-0.6,0.6-0.9c0.1-0.4,0.2-0.7,0.2-1.1c0-0.4-0.1-0.8-0.2-1.1c-0.1-0.4-0.3-0.7-0.6-0.9
	c-0.2-0.3-0.5-0.5-0.8-0.6c-0.3-0.2-0.7-0.2-1-0.2s-0.7,0.1-1,0.2c-0.3,0.2-0.6,0.4-0.8,0.6c-0.2,0.3-0.4,0.6-0.6,0.9
	C125.9,48.2,125.9,48.6,125.9,49z M139.8,52.6h-1v-4.1c0-0.9-0.1-1.5-0.4-1.9c-0.3-0.4-0.6-0.6-1.2-0.6c-0.3,0-0.6,0.1-0.8,0.2
	c-0.3,0.1-0.5,0.2-0.8,0.4c-0.2,0.2-0.5,0.4-0.6,0.7c-0.2,0.3-0.3,0.5-0.4,0.8v4.5h-1v-7.3h0.9V47c0.1-0.3,0.3-0.5,0.6-0.7
	c0.2-0.2,0.5-0.4,0.7-0.6c0.3-0.2,0.6-0.3,0.9-0.4s0.6-0.1,0.9-0.1c0.4,0,0.8,0.1,1,0.2c0.3,0.1,0.5,0.4,0.7,0.6
	c0.2,0.3,0.3,0.6,0.4,1c0.1,0.4,0.1,0.8,0.1,1.3V52.6z M144.2,52.8c-0.6,0-1.1-0.1-1.7-0.3c-0.5-0.2-1-0.5-1.4-0.8l0.4-0.6
	c0.4,0.3,0.8,0.6,1.3,0.8c0.4,0.2,0.9,0.3,1.4,0.3c0.6,0,1.1-0.1,1.4-0.4c0.3-0.2,0.5-0.6,0.5-1c0-0.2,0-0.4-0.1-0.5
	c-0.1-0.1-0.2-0.3-0.4-0.4c-0.2-0.1-0.4-0.2-0.7-0.3c-0.3-0.1-0.6-0.2-1-0.2c-0.4-0.1-0.8-0.2-1.1-0.3c-0.3-0.1-0.6-0.2-0.8-0.3
	c-0.2-0.1-0.3-0.3-0.4-0.5c-0.1-0.2-0.1-0.4-0.1-0.7c0-0.4,0.1-0.7,0.2-1c0.1-0.3,0.3-0.5,0.6-0.7c0.2-0.2,0.5-0.3,0.9-0.4
	c0.3-0.1,0.7-0.1,1.1-0.1c0.6,0,1.1,0.1,1.5,0.3c0.5,0.2,0.8,0.4,1.1,0.7l-0.5,0.6c-0.3-0.3-0.6-0.5-1-0.6s-0.8-0.2-1.2-0.2
	c-0.3,0-0.5,0-0.7,0.1c-0.2,0.1-0.4,0.1-0.6,0.2c-0.2,0.1-0.3,0.3-0.4,0.4c-0.1,0.2-0.1,0.4-0.1,0.6c0,0.2,0,0.4,0.1,0.5
	c0.1,0.1,0.2,0.2,0.3,0.3s0.3,0.2,0.6,0.2c0.2,0.1,0.5,0.1,0.8,0.2c0.5,0.1,0.9,0.2,1.2,0.3c0.4,0.1,0.7,0.2,0.9,0.4
	c0.2,0.1,0.4,0.3,0.5,0.5c0.1,0.2,0.2,0.5,0.2,0.8c0,0.7-0.3,1.2-0.8,1.6C145.8,52.6,145.1,52.8,144.2,52.8z M152.1,52.3
	c-0.1,0-0.1,0.1-0.2,0.1c-0.1,0-0.2,0.1-0.4,0.1s-0.3,0.1-0.5,0.1c-0.2,0-0.4,0.1-0.6,0.1c-0.2,0-0.4,0-0.6-0.1
	c-0.2-0.1-0.3-0.1-0.5-0.3c-0.1-0.1-0.3-0.3-0.3-0.4c-0.1-0.2-0.1-0.4-0.1-0.6v-5.2h-1v-0.8h1v-2.5h1v2.5h1.7v0.8h-1.7v5
	c0,0.3,0.1,0.5,0.3,0.6s0.4,0.2,0.6,0.2c0.3,0,0.5,0,0.7-0.1s0.3-0.2,0.4-0.2L152.1,52.3z M156.9,46.2c-0.6,0-1.2,0.2-1.7,0.5
	c-0.5,0.3-0.8,0.8-1,1.4v4.5h-1v-7.3h0.9v1.8c0.3-0.5,0.6-0.9,1-1.3c0.4-0.3,0.9-0.5,1.3-0.5c0.1,0,0.2,0,0.2,0c0.1,0,0.1,0,0.2,0
	V46.2z M160.4,52.8c-0.8,0-1.3-0.3-1.7-0.8c-0.4-0.5-0.6-1.3-0.6-2.4v-4.3h1v4.1c0,1.7,0.6,2.5,1.7,2.5c0.3,0,0.6,0,0.8-0.1
	c0.3-0.1,0.5-0.2,0.7-0.4c0.2-0.2,0.4-0.4,0.6-0.6c0.2-0.2,0.3-0.5,0.4-0.8v-4.6h1v6.1c0,0.3,0.1,0.4,0.4,0.4v0.8
	c-0.2,0-0.3,0-0.4,0c-0.2,0-0.4-0.1-0.6-0.2c-0.2-0.1-0.2-0.3-0.2-0.5v-1c-0.3,0.6-0.8,1-1.3,1.3C161.6,52.6,161.1,52.8,160.4,52.8z
	 M166,49c0-0.5,0.1-1,0.3-1.5s0.4-0.9,0.7-1.2c0.3-0.3,0.7-0.6,1.2-0.8c0.4-0.2,0.9-0.3,1.5-0.3c0.7,0,1.3,0.2,1.8,0.5
	c0.5,0.3,0.9,0.7,1.2,1.3l-0.9,0.3c-0.2-0.4-0.5-0.7-0.9-0.9s-0.8-0.3-1.2-0.3c-0.4,0-0.7,0.1-1,0.2c-0.3,0.1-0.6,0.4-0.8,0.6
	c-0.2,0.3-0.4,0.6-0.6,0.9S167,48.5,167,49c0,0.4,0.1,0.8,0.2,1.2s0.3,0.7,0.6,0.9c0.2,0.3,0.5,0.5,0.8,0.6c0.3,0.2,0.7,0.2,1,0.2
	c0.2,0,0.5,0,0.7-0.1s0.4-0.2,0.6-0.3c0.2-0.1,0.4-0.2,0.5-0.4s0.2-0.3,0.3-0.5l0.9,0.3c-0.1,0.3-0.3,0.5-0.4,0.7
	c-0.2,0.2-0.4,0.4-0.7,0.6c-0.3,0.2-0.6,0.3-0.9,0.4s-0.7,0.1-1,0.1c-0.5,0-1-0.1-1.5-0.3c-0.4-0.2-0.8-0.5-1.2-0.8
	c-0.3-0.3-0.6-0.8-0.8-1.2C166.1,50,166,49.5,166,49z M177.7,52.3c-0.1,0-0.1,0.1-0.2,0.1c-0.1,0-0.2,0.1-0.4,0.1
	c-0.1,0-0.3,0.1-0.5,0.1s-0.4,0.1-0.6,0.1c-0.2,0-0.4,0-0.6-0.1c-0.2-0.1-0.4-0.1-0.5-0.3c-0.1-0.1-0.3-0.3-0.3-0.4
	c-0.1-0.2-0.1-0.4-0.1-0.6v-5.2h-1v-0.8h1v-2.5h1v2.5h1.7v0.8h-1.7v5c0,0.3,0.1,0.5,0.3,0.6s0.4,0.2,0.6,0.2c0.3,0,0.5,0,0.7-0.1
	s0.3-0.2,0.4-0.2L177.7,52.3z M182,52.8c-0.5,0-1-0.1-1.5-0.3c-0.4-0.2-0.8-0.5-1.2-0.8c-0.3-0.3-0.6-0.8-0.8-1.2
	c-0.2-0.5-0.3-0.9-0.3-1.5c0-0.5,0.1-1,0.3-1.4c0.2-0.5,0.4-0.8,0.8-1.2c0.3-0.3,0.7-0.6,1.2-0.8c0.4-0.2,0.9-0.3,1.5-0.3
	c0.5,0,1,0.1,1.5,0.3c0.4,0.2,0.8,0.5,1.1,0.8c0.3,0.3,0.6,0.7,0.7,1.2c0.2,0.4,0.3,0.9,0.3,1.4c0,0.1,0,0.1,0,0.2
	c0,0.1,0,0.1,0,0.2h-6.2c0,0.4,0.1,0.8,0.3,1.1s0.3,0.6,0.6,0.9c0.2,0.2,0.5,0.4,0.8,0.6c0.3,0.1,0.6,0.2,1,0.2c0.2,0,0.5,0,0.7-0.1
	c0.2-0.1,0.4-0.2,0.6-0.3c0.2-0.1,0.4-0.2,0.5-0.4c0.2-0.2,0.3-0.3,0.4-0.5l0.8,0.2c-0.1,0.3-0.3,0.5-0.5,0.7
	c-0.2,0.2-0.4,0.4-0.7,0.6c-0.3,0.2-0.6,0.3-0.9,0.4S182.4,52.8,182,52.8z M184.7,48.6c0-0.4-0.1-0.7-0.3-1.1
	c-0.2-0.3-0.4-0.6-0.6-0.8c-0.2-0.2-0.5-0.4-0.8-0.5c-0.3-0.1-0.7-0.2-1-0.2c-0.4,0-0.7,0.1-1,0.2c-0.3,0.1-0.6,0.3-0.8,0.5
	c-0.2,0.2-0.4,0.5-0.6,0.8c-0.1,0.3-0.2,0.7-0.3,1.1H184.7z M190.1,52.8c-0.5,0-1-0.1-1.4-0.3s-0.8-0.5-1.1-0.8s-0.6-0.7-0.7-1.2
	c-0.2-0.5-0.3-0.9-0.3-1.4c0-0.5,0.1-1,0.3-1.5s0.4-0.9,0.7-1.2c0.3-0.3,0.6-0.6,1-0.8c0.4-0.2,0.9-0.3,1.3-0.3
	c0.6,0,1.2,0.2,1.6,0.5c0.5,0.3,0.9,0.7,1.1,1.2v-4.5h1v9c0,0.3,0.1,0.4,0.3,0.4v0.8c-0.2,0-0.3,0-0.4,0c-0.2,0-0.4-0.1-0.6-0.2
	c-0.1-0.1-0.2-0.3-0.2-0.5v-0.8c-0.3,0.5-0.7,0.9-1.2,1.1C191.1,52.6,190.6,52.8,190.1,52.8z M190.3,51.9c0.2,0,0.5,0,0.8-0.1
	c0.3-0.1,0.5-0.2,0.7-0.4c0.2-0.2,0.4-0.4,0.6-0.6c0.2-0.2,0.3-0.5,0.3-0.7v-2.3c-0.1-0.3-0.2-0.5-0.4-0.7c-0.2-0.2-0.4-0.4-0.6-0.6
	s-0.5-0.3-0.7-0.4c-0.3-0.1-0.5-0.1-0.8-0.1c-0.4,0-0.8,0.1-1.1,0.3c-0.3,0.2-0.6,0.4-0.8,0.7c-0.2,0.3-0.4,0.6-0.5,0.9
	c-0.1,0.4-0.2,0.7-0.2,1.1c0,0.4,0.1,0.8,0.2,1.1c0.1,0.4,0.3,0.7,0.6,0.9c0.2,0.3,0.5,0.5,0.9,0.6
	C189.5,51.9,189.9,51.9,190.3,51.9z"/>
<path id="img" fill="#D0D0D0" d="M15.8,47.1c-1,1-1,2.7,0,3.7c0.5,0.5,1.2,0.8,1.8,0.8s1.3-0.3,1.9-0.8l8.6-8.6l-3.7-3.7L15.8,47.1
	 M37.3,31.2l3.7-2l2-3.8l-1.8-1.8l-3.8,2l-1.9,3.7l-4.6,4.6l1.8,1.9L37.3,31.2 M38.1,41.1h-0.4c-0.6,0-1.2,0.1-1.8,0.3L25.2,30.7
	c0.2-0.6,0.3-1.2,0.3-1.8v-0.4c-0.2-2.7-2.4-4.9-5.2-4.9c-0.8,0-1.6,0.2-2.3,0.5l3.5,3.5c0.2,0.2,0.3,0.4,0.4,0.6
	c0.2,0.7,0.1,1.4-0.4,1.9c-0.3,0.3-0.8,0.5-1.2,0.5c-0.2,0-0.4,0-0.6-0.1c-0.3-0.1-0.5-0.2-0.7-0.4l-3.4-3.5
	C15.2,27.3,15,28,15,28.8c0,2.8,2.2,5,4.9,5.2h0.4c0.6,0,1.2-0.1,1.8-0.3l10.8,10.8c-0.2,0.6-0.3,1.2-0.3,1.8v0.4
	c0.2,2.7,2.4,4.9,5.2,4.9c0.8,0,1.6-0.2,2.2-0.5l-3.5-3.5c-0.2-0.2-0.3-0.4-0.4-0.6c-0.2-0.6-0.1-1.3,0.4-1.8
	c0.3-0.3,0.8-0.5,1.2-0.5c0.2,0,0.4,0,0.6,0.1c0.2,0.1,0.4,0.2,0.6,0.4l3.5,3.5c0.3-0.7,0.5-1.4,0.5-2.2
	C43,43.6,40.8,41.3,38.1,41.1"/>
</svg>
