<?xml version="1.0" encoding="utf-8"?>
<!-- Generator: Adobe Illustrator 17.1.0, SVG Export Plug-In . SVG Version: 6.00 Build 0)  -->
<!DOCTYPE svg PUBLIC "-//W3C//DTD SVG 1.1//EN" "http://www.w3.org/Graphics/SVG/1.1/DTD/svg11.dtd">
<svg version="1.1" id="Capa_1" xmlns="http://www.w3.org/2000/svg" xmlns:xlink="http://www.w3.org/1999/xlink" x="0px" y="0px"
	 width="555.5px" height="560px" viewBox="0 0 555.5 560" enable-background="new 0 0 555.5 560" xml:space="preserve">
<g>
	<g>
		<g>
			<path d="M451.6,438.8L394,381.2c-22.7-22.7-59.5-22.7-82.2,0l-17.9,17.9c-0.4,0.4-0.8,0.9-1.2,1.3L159.6,267.3
				c0.4-0.4,0.9-0.8,1.3-1.2l17.9-17.9c22.7-22.7,22.7-59.5,0-82.2l-57.6-57.6c-22.7-22.7-59.5-22.7-82.2,0l-17.9,17.9
				C-27.3,174.6,5.8,289.8,138,422c132.2,132.2,247.4,165.2,295.8,116.9l17.9-17.9C474.3,498.3,474.3,461.5,451.6,438.8z"/>
		</g>
		<g>
			<path d="M485.4,420.5c-5.9,0-11.9-1.7-17.2-5.3c-14.1-9.5-17.8-28.6-8.3-42.6c22.3-33,34-71.5,34-111.5
				C494,151,404.5,61.4,294.4,61.4c-38.7,0-76.2,11.1-108.5,32.1c-14.2,9.2-33.2,5.2-42.5-9c-9.2-14.2-5.2-33.2,9-42.5
				c42.3-27.5,91.4-42,142-42c143.9,0,261.1,117.1,261.1,261.1c0,52.3-15.4,102.7-44.5,145.9C505,415.7,495.3,420.5,485.4,420.5z"/>
		</g>
		<g>
			<g>
				<path d="M330.8,275.1h-55.7l32.5-36.2c17.1-17.8,26.9-36.8,26.9-52c0-26.6-20.6-44.5-51.2-44.5c-17.3,0-35.4,7.7-48.4,20.7
					c-2.6,2.6-4.1,6.1-4.1,9.8c0,3.7,1.5,7.2,4,9.8l1.1,1.1c5.4,5.4,14.1,5.4,19.5,0c7.4-7.4,18.3-12.1,27.8-12.1
					c10,0,21.9,2.7,21.9,15.3c0,5.9-5.9,18.5-18.8,31.9c-0.1,0.1-0.2,0.2-0.3,0.3l-52.5,58.3c-2.3,2.5-3.5,5.8-3.5,9.2v3.9
					c0,7.6,6.2,13.8,13.8,13.8h86.8c7.6,0,13.8-6.2,13.8-13.8v-1.6C344.7,281.2,338.5,275.1,330.8,275.1z"/>
			</g>
			<g>
				<path d="M430.2,234.4h-8.1v-29.8c0-7.6-6.2-13.8-13.8-13.8h-1.6c-7.6,0-13.8,6.2-13.8,13.8v29.8h-27.6l41.1-71.4
					c2.5-4.3,2.5-9.5,0-13.8c-2.5-4.3-7-6.9-12-6.9h-1.8c-4.9,0-9.5,2.6-12,6.9l-51.9,90.3c-1.2,2.1-1.8,4.5-1.8,6.9v3.4
					c0,7.6,6.2,13.8,13.8,13.8h52.3v26.8c0,7.6,6.2,13.8,13.8,13.8h1.6c7.6,0,13.8-6.2,13.8-13.8v-26.8h8.1
					c7.6,0,13.8-6.2,13.8-13.8v-1.6C444,240.6,437.8,234.4,430.2,234.4z"/>
			</g>
		</g>
	</g>
</g>
</svg>
