<?xml version="1.0" encoding="utf-8"?>
<!-- Generator: Adobe Illustrator 17.1.0, SVG Export Plug-In . SVG Version: 6.00 Build 0)  -->
<!DOCTYPE svg PUBLIC "-//W3C//DTD SVG 1.1//EN" "http://www.w3.org/Graphics/SVG/1.1/DTD/svg11.dtd">
<svg version="1.1" id="Layer_1" xmlns="http://www.w3.org/2000/svg" xmlns:xlink="http://www.w3.org/1999/xlink" x="0px" y="0px"
	 width="332.3px" height="114.2px" viewBox="0 0.9 332.3 114.2" enable-background="new 0 0.9 332.3 114.2" xml:space="preserve">
<path id="img" fill="#ED030C" d="M24.9,83.9c4.9-8,10-16,14.6-24.2c1.8-3.1,3-6.8,3.5-10.3c0.7-5.4-2.2-7.3-7.3-5.6
	c-1.4,0.5-2.7,1.6-4.1,1.7c-2.1,0.2-4.2-0.2-6.4-0.4c0.4-2,0.5-4.1,1.4-5.8c1.7-3.3,4-6.3,6-9.4c-0.3-0.4-0.6-0.8-0.9-1.2
	c-2.2,0.2-4.4,0.5-7.5,0.8c1.6-1.2,2.5-2,3.6-2.5c3.3-1.6,7-4,9.9,0c2.7,3.7-1.2,5.9-3,8.5c-1.5,2.1-3.2,4.1-4.8,6.1
	c0.3,0.4,0.5,0.7,0.8,1.1c1.5-0.8,2.9-1.6,4.4-2.3c2.4-1.1,4.8-2.5,7.3-2.9c4.9-0.8,8,2.1,7,6.9c-0.8,4.2-2,8.6-4.3,12.1
	c-6,9.5-12.6,18.7-19,27.9C25.6,84.4,25.3,84.1,24.9,83.9 M17.1,31.4c2.4,6.3-3.4,9.2-6.3,13.9c3.8,1.7,5.8,7.3,11.4,3.7
	c2,4.2-2.5,5.4-3.8,8c-5,10-6.9,20.6-4.7,31.5c1.6,7.6,4.9,14.8,7.4,22.1c0.5,1.5,1.4,2.9,1.6,4.5C14.4,106.8,9.6,96.7,8,85.2
	c-1.6-12,1.7-22.7,9.7-32.1c-2.6-1.9-4.8-3.5-7-5.3c-2.8-2.4-2.9-4.8-0.3-7.7C12.8,37.5,14.8,34.5,17.1,31.4 M26.6,24
	c1.5-4.2,3.7-8.6,4.5-13.2c0.8-4.7-2.1-7.4-6.9-6.7c-3.1,0.5-6.6,1.8-8.6,4c-3.3,3.6-5.7,8.1-8.1,12.4c-2,3.7-4.2,7-7.5,7.8
	C2.3,23.6,4.5,18,7.8,13.1c2.6-3.9,6-7.6,9.7-10.4c3.9-3,10.3-2,13.5,0.9s3.9,8,1.3,12.9C30.7,19.5,29.7,23.3,26.6,24 M17.4,14.5
	C11.5,19.3,15,30.4,5.6,32.2c1.6-2.7,3.4-5.8,5.2-8.9c1.8-3.2,3.6-6.4,5.4-9.5C16.5,14,16.9,14.3,17.4,14.5"/>
<g>
	<g>
		<path fill="#515151" d="M93.4,38.2c-0.5,2-0.9,3.7-1.3,5.3c-0.4,1.6-0.5,2.8-0.5,3.4c0,0.2,0.1,0.4,0.2,0.6
			c0.1,0.3,0.3,0.5,0.5,0.8c0.2,0.3,0.3,0.5,0.5,0.7c0.1,0.2,0.2,0.4,0.2,0.5c0,0.2-0.1,0.4-0.4,0.7c-0.3,0.3-0.5,0.5-0.9,0.8
			c-0.3,0.3-0.7,0.5-1,0.7C90.3,51.9,90,52,89.8,52c-0.2,0-0.4-0.2-0.7-0.5c-0.3-0.3-0.7-0.8-1-1.3c-0.3-0.5-0.6-1-0.9-1.5
			c-0.3-0.5-0.4-1-0.4-1.4c0-0.3,0.1-0.7,0.2-1.3c0.1-0.6,0.2-1.3,0.4-2.1c0.2-0.8,0.4-1.7,0.6-2.7c0.2-1,0.5-2,0.8-3H82
			c-0.8,1.5-1.4,2.9-2,4.2c-0.3,0.5-0.5,1.1-0.8,1.6c-0.3,0.6-0.5,1.1-0.8,1.5c-0.2,0.5-0.4,0.9-0.6,1.3c-0.2,0.4-0.3,0.7-0.4,0.8
			c-0.2,0.4-0.6,0.8-1.2,1.3c-0.6,0.5-1.2,1-1.9,1.4c-0.7,0.5-1.5,0.8-2.2,1.1c-0.8,0.3-1.4,0.5-2,0.5c-0.4,0-0.8-0.2-1.4-0.5
			c-0.5-0.3-1.1-0.8-1.7-1.3c-0.6-0.5-1.2-1.1-1.8-1.7s-1.1-1.2-1.6-1.8c-0.5-0.6-0.8-1.1-1.1-1.5c-0.3-0.4-0.4-0.7-0.4-0.9
			s0.1-0.4,0.4-0.7c0.2-0.3,0.5-0.6,0.9-0.9c0.3-0.3,0.7-0.6,1.1-0.8c0.4-0.2,0.7-0.3,0.9-0.3c0.3,0,0.6,0.2,0.7,0.5
			c0.3,0.5,0.6,1.2,1,1.9c0.4,0.8,0.8,1.5,1.3,2.3c0.5,0.7,0.9,1.4,1.3,1.9c0.4,0.5,0.8,0.8,1,0.8c0.3,0,0.7-0.1,1.2-0.4
			c0.5-0.3,0.9-0.7,1.2-1.3c0.1-0.2,0.2-0.4,0.4-0.8c0.2-0.3,0.4-0.7,0.6-1.2c0.2-0.4,0.5-0.9,0.7-1.5c0.3-0.5,0.5-1,0.7-1.6
			c0.6-1.2,1.2-2.5,1.9-3.9h-5.2c-0.3,0-0.5-0.1-0.5-0.4c0-0.1,0-0.3,0.1-0.5c0.1-0.2,0.1-0.4,0.2-0.7c0.1-0.2,0.2-0.4,0.4-0.6
			c0.1-0.2,0.3-0.2,0.4-0.2h5.5c0.8-1.9,1.6-3.6,2.4-5.1c0.3-0.7,0.6-1.3,0.9-2c0.3-0.7,0.6-1.3,0.9-1.9c0.3-0.6,0.6-1.1,0.8-1.5
			c0.2-0.5,0.4-0.8,0.6-1c0.3-0.4,0.7-0.9,1.4-1.4s1.3-1,2-1.4c0.7-0.4,1.5-0.8,2.2-1.1c0.7-0.3,1.3-0.4,1.7-0.4
			c0.3,0,0.6,0.1,1,0.2c0.4,0.2,0.7,0.3,1.1,0.5c0.4,0.2,0.9,0.4,1.3,0.7c0.3-0.3,0.6-0.5,0.9-0.7c0.3-0.2,0.5-0.3,0.8-0.5
			c0.3-0.1,0.5-0.2,0.7-0.2c0.2,0,0.4,0.1,0.7,0.2c0.3,0.2,0.5,0.4,0.8,0.6c0.3,0.2,0.5,0.5,0.6,0.7c0.2,0.2,0.2,0.4,0.2,0.6
			c0,0.1-0.1,0.3-0.3,0.5c-0.2,0.3-0.5,0.6-0.8,0.9c-0.3,0.3-0.6,0.7-0.9,1c-0.3,0.4-0.5,0.7-0.5,1c-0.2,0.6-0.4,1.4-0.7,2.2
			c-0.3,0.8-0.5,1.7-0.8,2.6c-0.3,0.9-0.5,1.8-0.8,2.7c-0.3,0.9-0.5,1.8-0.7,2.6h1.6c0.1,0,0.2,0,0.3,0.1c0.1,0.1,0.1,0.2,0.1,0.3
			c0,0.1,0,0.3-0.1,0.5c-0.1,0.2-0.1,0.5-0.2,0.7c-0.1,0.2-0.2,0.4-0.3,0.6c-0.1,0.2-0.3,0.2-0.4,0.2H93.4z M93.2,23.7
			c-0.4-0.1-0.8-0.3-1.1-0.4c-0.3-0.1-0.7-0.2-1-0.3c-0.3-0.1-0.6-0.1-0.9-0.1c-0.2,0-0.5,0.1-0.8,0.3c-0.3,0.2-0.5,0.4-0.7,0.6
			c-0.2,0.2-0.3,0.6-0.6,1.1c-0.2,0.5-0.5,1-0.8,1.6c-0.3,0.6-0.6,1.2-0.9,1.9c-0.3,0.7-0.7,1.4-1,2.1c-0.8,1.6-1.6,3.4-2.5,5.3h6.3
			c0.3-1,0.6-2.2,1-3.4c0.3-1.2,0.7-2.4,1.1-3.6c0.4-1.2,0.7-2.2,1-3.1C92.7,24.7,92.9,24.1,93.2,23.7z"/>
		<path fill="#515151" d="M116.1,25.3c-0.1,0.3-0.2,0.6-0.3,1c-0.1,0.4-0.2,0.9-0.4,1.5c-0.2,0.7-0.4,1.5-0.7,2.5
			c-0.3,1-0.6,2.3-1.1,3.9c-0.3,1.1-0.6,2.4-1,3.8c-0.4,1.4-0.7,2.7-1,4c-0.3,1.3-0.6,2.4-0.8,3.5c-0.2,1-0.3,1.8-0.3,2.3
			c0,0.4,0.1,0.8,0.4,1.1c0.3,0.3,0.5,0.5,0.7,0.5c0.3,0,0.7-0.2,1.2-0.6c0.5-0.4,1-1,1.5-1.7c0.5-0.7,1-1.5,1.6-2.4
			c0.6-0.9,1.1-1.9,1.7-2.9c0.1-0.1,0.1-0.3,0.3-0.4c0.1-0.1,0.2-0.2,0.3-0.3c0.1-0.1,0.3-0.1,0.4-0.1c0.3,0,0.6,0.1,0.8,0.3
			s0.3,0.4,0.3,0.7c0,0.2,0,0.3-0.1,0.5c-0.1,0.2-0.1,0.3-0.2,0.5c-0.1,0.2-0.2,0.4-0.3,0.6c-0.6,1.1-1.2,2.2-1.8,3.3
			c-0.6,1-1.2,1.9-1.8,2.7c-0.6,0.8-1.3,1.4-2,1.9c-0.7,0.5-1.4,0.7-2.2,0.7c-0.5,0-1-0.1-1.5-0.3c-0.5-0.2-1-0.4-1.4-0.7
			c-0.4-0.3-0.8-0.6-1.2-1c-0.3-0.3-0.6-0.7-0.8-1c-0.6,0.6-1.2,1.1-1.8,1.5c-0.5,0.4-1.1,0.7-1.7,1c-0.6,0.3-1.2,0.5-1.8,0.5
			c-0.6,0-1.2-0.2-1.8-0.5s-1.1-0.7-1.6-1.1c-0.5-0.5-0.9-1-1.2-1.5c-0.3-0.6-0.4-1.1-0.4-1.6c0-1,0.1-2,0.4-3.2
			c0.3-1.2,0.6-2.4,1-3.6c0.4-1.2,0.9-2.4,1.5-3.6c0.6-1.2,1.2-2.2,1.8-3.1c0.6-0.9,1.3-1.6,2-2.2c0.7-0.5,1.4-0.8,2-0.8
			c0.5,0,1.1,0.1,1.7,0.3c0.6,0.2,1.1,0.4,1.6,0.6c0.5,0.2,1.1,0.5,1.6,0.8c0.4-1.3,0.7-2.6,1.1-3.8c0.3-1,0.6-2.1,0.9-3.1
			c0.3-1,0.5-1.8,0.7-2.3c0.2-0.6,0.5-0.9,1-0.9c0.2,0,0.4,0.1,0.8,0.2c0.3,0.2,0.7,0.3,1,0.5c0.3,0.2,0.6,0.4,0.9,0.7
			c0.3,0.2,0.4,0.4,0.4,0.6c0,0.2,0,0.4,0,0.5C116.2,25,116.1,25.1,116.1,25.3z M108.7,35.4c0-0.1-0.1-0.3-0.2-0.4
			c-0.2-0.2-0.3-0.3-0.6-0.5c-0.2-0.1-0.5-0.3-0.7-0.4c-0.3-0.1-0.5-0.2-0.8-0.2c-0.4,0-0.9,0.2-1.3,0.7c-0.4,0.5-0.9,1.1-1.3,1.9
			c-0.4,0.8-0.8,1.6-1.2,2.6c-0.4,1-0.7,1.9-1,2.9c-0.3,1-0.5,1.9-0.7,2.7c-0.2,0.9-0.2,1.6-0.2,2.1c0,0.6,0.2,1.1,0.5,1.5
			c0.3,0.4,0.7,0.6,1.1,0.6c0.4,0,0.8-0.2,1.2-0.5c0.4-0.3,0.9-0.8,1.3-1.3c0.4-0.5,0.8-1,1.1-1.6c0.3-0.6,0.6-1.1,0.7-1.6
			c0.3-0.8,0.5-1.6,0.8-2.5c0.3-0.9,0.5-1.8,0.7-2.6c0.2-0.8,0.4-1.5,0.5-2.2C108.6,36.1,108.7,35.6,108.7,35.4z"/>
		<path fill="#515151" d="M130.1,48.9c-0.7,0-1.3,0-2-0.1c-0.7-0.1-1.5-0.3-2.5-0.5c-1.1,1-2.2,1.9-3.1,2.6c-1,0.7-2,1.1-2.9,1.1
			c-0.3,0-0.6-0.1-1-0.3c-0.4-0.2-0.8-0.5-1.2-0.8c-0.4-0.3-0.7-0.6-1-1c-0.3-0.4-0.4-0.7-0.4-1c0-0.3,0.1-0.8,0.2-1.6
			c0.2-0.8,0.4-1.8,0.6-2.9c0.3-1.1,0.5-2.3,0.8-3.6c0.3-1.3,0.6-2.5,0.9-3.6c0.3-1.2,0.6-2.2,0.8-3.2c0.3-1,0.5-1.7,0.6-2.2
			c0.2-0.6,0.5-0.9,1-0.9c0.2,0,0.4,0.1,0.8,0.2c0.3,0.2,0.7,0.3,1,0.5c0.3,0.2,0.6,0.4,0.9,0.7c0.3,0.2,0.4,0.4,0.4,0.6
			c0,0.2,0,0.4,0,0.5c0,0.2-0.1,0.3-0.1,0.5c-0.1,0.2-0.2,0.7-0.4,1.4c-0.2,0.7-0.4,1.6-0.7,2.5c-0.3,1-0.5,2-0.8,3
			c-0.3,1.1-0.5,2.1-0.8,3c-0.2,1-0.4,1.8-0.6,2.6c-0.2,0.8-0.2,1.3-0.2,1.6c0,0.2,0.1,0.4,0.3,0.6c0.2,0.2,0.3,0.2,0.5,0.2
			c0.1,0,0.3-0.1,0.5-0.2c0.2-0.1,0.4-0.3,0.5-0.5c0.2-0.2,0.4-0.5,0.6-0.8c-0.2-0.2-0.3-0.4-0.3-0.7c0-0.2,0.1-0.5,0.3-0.9
			c0.2-0.3,0.4-0.7,0.7-1s0.6-0.6,1-0.8c0.4-0.2,0.7-0.3,1.1-0.3c0.5-0.7,0.9-1.5,1.3-2.5c0.4-1,0.8-2,1.2-3.1s0.7-2.2,1-3.3
			c0.3-1.1,0.5-2.1,0.7-3c0.1-0.3,0.2-0.6,0.3-0.7c0.1-0.2,0.4-0.2,0.8-0.2c0.2,0,0.5,0.1,0.8,0.2c0.3,0.1,0.6,0.3,0.9,0.5
			s0.6,0.5,0.8,0.8c0.2,0.3,0.3,0.6,0.3,0.8c0,0.4-0.2,1.1-0.5,2.1c-0.3,1.1-0.8,2.2-1.3,3.5c-0.5,1.3-1.1,2.6-1.8,3.8
			c-0.7,1.3-1.3,2.3-2,3.1c0.8,0.5,1.5,0.8,2.2,0.8c0.8,0,1.6-0.3,2.2-0.8c0.7-0.5,1.2-1.1,1.8-1.7c0.5-0.7,1-1.5,1.5-2.5
			c0.1-0.1,0.2-0.3,0.3-0.4c0.1-0.1,0.2-0.2,0.3-0.3c0.1-0.1,0.3-0.1,0.4-0.1c0.3,0,0.6,0.1,0.8,0.3s0.3,0.4,0.3,0.7
			c0,0.2,0,0.3-0.1,0.5c-0.1,0.2-0.1,0.3-0.2,0.5c-0.1,0.2-0.2,0.4-0.3,0.6c-0.5,1.1-1.2,2-1.9,2.8c-0.6,0.7-1.4,1.3-2.2,1.9
			C132.2,48.6,131.2,48.9,130.1,48.9z"/>
		<path fill="#515151" d="M156.1,41.7c0.1-0.1,0.2-0.3,0.3-0.4c0.1-0.1,0.2-0.2,0.3-0.3c0.1-0.1,0.3-0.1,0.4-0.1
			c0.3,0,0.6,0.1,0.8,0.3c0.2,0.2,0.3,0.4,0.3,0.7c0,0.2,0,0.3-0.1,0.5c-0.1,0.2-0.1,0.3-0.2,0.5c-0.1,0.2-0.2,0.4-0.3,0.6
			c-0.6,1.1-1.2,2.2-1.8,3.3c-0.6,1-1.2,1.9-1.8,2.7c-0.6,0.8-1.3,1.4-2,1.9c-0.7,0.5-1.5,0.7-2.3,0.7c-0.5,0-1-0.1-1.6-0.3
			c-0.6-0.2-1.1-0.4-1.6-0.7c-0.5-0.3-0.9-0.6-1.3-0.9c-0.3-0.3-0.6-0.7-0.7-1c-0.5,0.5-1.1,1-1.6,1.4c-0.5,0.4-1,0.7-1.6,1
			c-0.6,0.3-1.2,0.5-1.8,0.5c-0.5,0-1-0.1-1.6-0.4s-1.1-0.6-1.7-1.1c-0.5-0.4-1-0.9-1.3-1.4c-0.4-0.5-0.5-1.1-0.5-1.6
			c0-1,0.1-2.1,0.4-3.3c0.3-1.2,0.6-2.4,1.1-3.7c0.5-1.2,1-2.4,1.6-3.6c0.6-1.2,1.2-2.2,1.9-3.1c0.6-0.9,1.3-1.6,2-2.2
			c0.7-0.5,1.3-0.8,2-0.8c0.6,0,1.2,0.1,1.9,0.3c0.6,0.2,1.2,0.5,1.8,0.7c0.6,0.3,1.2,0.7,1.8,1.1c0.3,0,0.6,0,1,0
			c0.4,0,0.8,0.1,1.1,0.2s0.7,0.2,0.9,0.4c0.2,0.2,0.4,0.4,0.4,0.7c0,0.2-0.1,0.7-0.2,1.3c-0.2,0.6-0.3,1.4-0.6,2.3
			c-0.2,0.9-0.5,1.8-0.8,2.8c-0.3,1-0.5,2-0.8,2.9c-0.2,0.9-0.4,1.7-0.6,2.5c-0.2,0.8-0.2,1.3-0.2,1.7c0,0.5,0.1,0.9,0.4,1.1
			s0.5,0.4,0.7,0.4c0.3,0,0.7-0.2,1.2-0.6c0.5-0.4,1-1,1.5-1.7c0.5-0.7,1-1.5,1.6-2.4C155,43.6,155.6,42.7,156.1,41.7z M147.3,35.4
			c0-0.2-0.1-0.4-0.2-0.5c-0.2-0.2-0.4-0.3-0.6-0.5c-0.2-0.1-0.5-0.2-0.7-0.3c-0.3-0.1-0.5-0.1-0.7-0.1c-0.4,0-0.8,0.2-1.3,0.7
			c-0.4,0.4-0.9,1-1.3,1.8c-0.5,0.7-0.9,1.6-1.3,2.5c-0.4,0.9-0.7,1.9-1,2.9c-0.3,1-0.5,1.9-0.7,2.9c-0.2,0.9-0.3,1.8-0.3,2.5
			c0,0.5,0.2,1,0.5,1.3c0.3,0.4,0.7,0.6,1.1,0.6c0.5,0,1.1-0.3,1.8-1c0.8-0.6,1.5-1.6,2.1-2.9c0.2-0.5,0.5-1.2,0.8-2.1
			c0.3-0.9,0.6-1.9,0.9-2.9c0.3-1,0.5-1.9,0.7-2.8C147.2,36.3,147.3,35.7,147.3,35.4z"/>
		<path fill="#515151" d="M161.5,37.2c-0.2,0.5-0.4,1.2-0.6,2c-0.2,0.8-0.5,1.7-0.7,2.6c-0.3,0.9-0.5,1.9-0.7,2.9
			c-0.2,1-0.5,1.9-0.7,2.7c-0.2,0.8-0.4,1.6-0.5,2.2c-0.1,0.6-0.2,1.1-0.3,1.3c-0.1,0.3-0.2,0.5-0.3,0.7c-0.1,0.2-0.3,0.3-0.7,0.3
			c-0.2,0-0.4-0.1-0.8-0.2c-0.3-0.1-0.7-0.3-1-0.5c-0.3-0.2-0.6-0.4-0.8-0.6s-0.4-0.5-0.4-0.7c0-0.2,0.1-0.7,0.3-1.5
			c0.2-0.8,0.4-1.9,0.7-3c0.3-1.2,0.6-2.5,0.9-3.8c0.3-1.4,0.7-2.7,1-4c0.3-1.3,0.6-2.5,0.9-3.5c0.3-1,0.5-1.8,0.7-2.3
			c0.2-0.6,0.7-0.9,1.4-0.9c0.2,0,0.4,0.1,0.7,0.4c0.3,0.2,0.5,0.5,0.8,0.8c0.3,0.3,0.6,0.7,0.9,1.1c0.6-0.4,1.2-0.8,1.8-1.1
			c0.5-0.3,1.1-0.6,1.8-0.8c0.7-0.2,1.4-0.4,2-0.4c0.3,0,0.7,0.1,1.1,0.3s0.8,0.5,1.1,0.8c0.4,0.3,0.7,0.7,0.9,1.1
			c0.3,0.4,0.4,0.8,0.4,1.3c0,0.4-0.1,0.9-0.2,1.6c-0.2,0.7-0.3,1.5-0.6,2.3c-0.2,0.9-0.5,1.8-0.7,2.7c-0.3,0.9-0.5,1.9-0.7,2.7
			c-0.2,0.9-0.4,1.7-0.6,2.4c-0.2,0.7-0.2,1.3-0.2,1.7c0,0.4,0.1,0.8,0.4,1.1c0.3,0.3,0.5,0.5,0.7,0.5c0.3,0,0.7-0.2,1.2-0.6
			c0.5-0.4,1-1,1.5-1.7c0.5-0.7,1-1.5,1.6-2.4c0.6-0.9,1.1-1.9,1.7-2.9c0.1-0.1,0.1-0.3,0.3-0.4c0.1-0.1,0.2-0.2,0.3-0.3
			c0.1-0.1,0.3-0.1,0.4-0.1c0.3,0,0.6,0.1,0.8,0.3c0.2,0.2,0.3,0.4,0.3,0.7c0,0.2,0,0.3-0.1,0.5c-0.1,0.2-0.1,0.3-0.2,0.5
			c-0.1,0.2-0.2,0.4-0.3,0.6c-0.6,1.1-1.2,2.2-1.8,3.3c-0.6,1-1.2,1.9-1.8,2.7c-0.6,0.8-1.3,1.4-2,1.9s-1.4,0.7-2.2,0.7
			c-0.4,0-0.9-0.1-1.4-0.3c-0.6-0.2-1.1-0.4-1.6-0.7c-0.5-0.3-1-0.6-1.4-1c-0.4-0.4-0.6-0.8-0.6-1.2c0-0.5,0.1-1.1,0.2-1.9
			c0.1-0.8,0.3-1.6,0.5-2.5c0.2-0.9,0.5-1.9,0.7-2.8c0.2-1,0.5-1.9,0.7-2.7c0.2-0.9,0.4-1.6,0.5-2.2c0.1-0.6,0.2-1.1,0.2-1.4
			c0-0.4-0.1-0.7-0.4-0.9c-0.3-0.2-0.5-0.3-0.8-0.3c-0.3,0-0.6,0.1-1.1,0.2c-0.4,0.2-0.9,0.4-1.3,0.7c-0.5,0.3-0.9,0.6-1.2,1
			C161.9,36.3,161.7,36.7,161.5,37.2z"/>
		<path fill="#515151" d="M193.6,43.4c-0.8,1.3-1.7,2.5-2.5,3.5s-1.8,2-2.7,2.7c-0.9,0.8-1.9,1.3-2.8,1.7c-1,0.4-2,0.6-3,0.6
			c-0.8,0-1.6-0.2-2.5-0.5c-0.9-0.4-1.7-0.8-2.5-1.5c-0.8-0.6-1.4-1.3-1.9-2.1c-0.5-0.8-0.8-1.6-0.8-2.4c0-1,0.1-2.1,0.4-3.3
			c0.2-1.1,0.6-2.2,1-3.3c0.4-1.1,0.9-2.1,1.5-3.1c0.6-1,1.2-1.8,1.9-2.6c0.7-0.7,1.4-1.3,2.2-1.8c0.8-0.4,1.5-0.7,2.3-0.7
			c0.7,0,1.3,0.1,2,0.4c0.7,0.3,1.3,0.6,1.8,0.9c0.5,0.4,1,0.8,1.3,1.3c0.3,0.5,0.5,0.9,0.5,1.3c0,0.3-0.1,0.8-0.2,1.3
			c-0.1,0.6-0.3,1.1-0.5,1.7c-0.2,0.6-0.4,1-0.7,1.4c-0.3,0.4-0.5,0.6-0.7,0.6c-0.3,0-0.6-0.1-0.9-0.2c-0.3-0.1-0.6-0.2-0.9-0.4
			c-0.3-0.2-0.5-0.4-0.6-0.6c-0.2-0.2-0.2-0.4-0.2-0.6c0-0.2,0.1-0.5,0.2-0.9c0.1-0.3,0.3-0.7,0.4-1c0.1-0.4,0.3-0.7,0.4-1.1
			c0.1-0.3,0.2-0.6,0.2-0.9c0-0.2-0.1-0.4-0.3-0.6c-0.2-0.1-0.4-0.2-0.7-0.2c-0.6,0-1.2,0.4-1.9,1.3c-0.7,0.8-1.3,1.9-1.9,3.1
			c-0.6,1.2-1,2.5-1.4,3.8c-0.4,1.4-0.6,2.6-0.6,3.6c0,1.2,0.3,2.2,1,3c0.7,0.8,1.6,1.1,2.7,1.1c1.2,0,2.6-0.7,4.1-2
			s3.1-3.2,4.6-5.6c0.1-0.1,0.1-0.3,0.3-0.4c0.1-0.1,0.2-0.2,0.3-0.3c0.1-0.1,0.3-0.1,0.4-0.1c0.3,0,0.6,0.1,0.8,0.3
			c0.2,0.2,0.3,0.4,0.3,0.7c0,0.2,0,0.3-0.1,0.5c-0.1,0.2-0.1,0.3-0.2,0.5C193.7,43,193.7,43.2,193.6,43.4z"/>
		<path fill="#515151" d="M196,43.6c0,0.2,0,0.5,0,0.7c0,0.2,0,0.4,0,0.6c0,0.8,0.1,1.4,0.5,1.9c0.3,0.5,0.7,1,1.1,1.3
			c0.5,0.3,0.9,0.6,1.5,0.8c0.5,0.2,1.1,0.2,1.6,0.2c1.2,0,2.5-0.6,3.8-1.9c1.4-1.3,2.7-3.1,3.9-5.7c0.1-0.1,0.1-0.3,0.3-0.4
			c0.1-0.1,0.2-0.2,0.3-0.3c0.1-0.1,0.3-0.1,0.4-0.1c0.3,0,0.6,0.1,0.8,0.3c0.2,0.2,0.3,0.4,0.3,0.7c0,0.2,0,0.3-0.1,0.5
			c-0.1,0.2-0.1,0.3-0.2,0.5c-0.1,0.2-0.2,0.4-0.3,0.6c-0.6,1.2-1.3,2.4-2,3.4c-0.7,1.1-1.5,2-2.4,2.7c-0.9,0.8-1.8,1.4-2.7,1.8
			s-2,0.7-3,0.7c-0.8,0-1.7-0.2-2.7-0.5c-1-0.4-1.9-0.8-2.8-1.4c-0.9-0.6-1.6-1.3-2.1-2.1c-0.6-0.8-0.9-1.6-0.9-2.4
			c0-1.8,0.3-3.5,0.9-5.3s1.3-3.3,2.2-4.7s1.9-2.5,2.9-3.4c1.1-0.9,2.1-1.3,3-1.3c0.7,0,1.4,0.1,2.1,0.4c0.7,0.3,1.3,0.6,1.9,1
			c0.5,0.4,1,0.8,1.3,1.3c0.3,0.5,0.5,0.9,0.5,1.4c0,0.8-0.2,1.7-0.5,2.8c-0.4,1.1-0.8,2.1-1.4,3.1c-0.6,1-1.2,1.8-2,2.5
			c-0.7,0.7-1.5,1-2.2,1c-0.5,0-1,0-1.5-0.1c-0.5-0.1-0.9-0.1-1.3-0.2C196.9,43.9,196.4,43.8,196,43.6z M196.4,41.8
			c0.9,0,1.8-0.3,2.5-0.8c0.8-0.6,1.4-1.2,1.9-2c0.5-0.8,1-1.5,1.2-2.3c0.3-0.8,0.4-1.4,0.4-2c0-0.2-0.1-0.5-0.4-0.7
			c-0.3-0.3-0.5-0.4-0.7-0.4c-0.5,0-1,0.3-1.6,0.9c-0.6,0.6-1.1,1.3-1.6,2.1c-0.5,0.8-0.9,1.7-1.2,2.7
			C196.7,40.2,196.5,41,196.4,41.8z"/>
		<path fill="#515151" d="M227.4,25.3c-0.1,0.3-0.2,0.6-0.3,1c-0.1,0.4-0.2,0.9-0.4,1.5c-0.2,0.7-0.4,1.5-0.7,2.5
			c-0.3,1-0.6,2.3-1.1,3.9c-0.3,1.1-0.6,2.4-1,3.8c-0.4,1.4-0.7,2.7-1,4c-0.3,1.3-0.6,2.4-0.8,3.5c-0.2,1-0.3,1.8-0.3,2.3
			c0,0.4,0.1,0.8,0.4,1.1c0.3,0.3,0.5,0.5,0.7,0.5c0.3,0,0.7-0.2,1.2-0.6c0.5-0.4,1-1,1.5-1.7c0.5-0.7,1-1.5,1.6-2.4
			c0.6-0.9,1.1-1.9,1.7-2.9c0.1-0.1,0.2-0.3,0.3-0.4c0.1-0.1,0.2-0.2,0.3-0.3c0.1-0.1,0.3-0.1,0.4-0.1c0.3,0,0.6,0.1,0.8,0.3
			c0.2,0.2,0.3,0.4,0.3,0.7c0,0.2,0,0.3-0.1,0.5c-0.1,0.2-0.1,0.3-0.2,0.5c-0.1,0.2-0.2,0.4-0.3,0.6c-0.6,1.1-1.2,2.2-1.8,3.3
			c-0.6,1-1.2,1.9-1.8,2.7c-0.6,0.8-1.3,1.4-2,1.9c-0.7,0.5-1.4,0.7-2.2,0.7c-0.5,0-1-0.1-1.5-0.3c-0.5-0.2-1-0.4-1.4-0.7
			c-0.5-0.3-0.8-0.6-1.2-1c-0.3-0.3-0.6-0.7-0.8-1c-0.6,0.6-1.2,1.1-1.8,1.5c-0.5,0.4-1.1,0.7-1.7,1c-0.6,0.3-1.2,0.5-1.8,0.5
			c-0.6,0-1.2-0.2-1.8-0.5c-0.6-0.3-1.1-0.7-1.6-1.1c-0.5-0.5-0.9-1-1.2-1.5c-0.3-0.6-0.5-1.1-0.5-1.6c0-1,0.1-2,0.4-3.2
			s0.6-2.4,1-3.6c0.4-1.2,0.9-2.4,1.5-3.6c0.6-1.2,1.2-2.2,1.8-3.1s1.3-1.6,2-2.2c0.7-0.5,1.4-0.8,2-0.8c0.5,0,1.1,0.1,1.7,0.3
			c0.6,0.2,1.1,0.4,1.6,0.6c0.5,0.2,1.1,0.5,1.6,0.8c0.4-1.3,0.8-2.6,1.1-3.8c0.3-1,0.6-2.1,0.9-3.1c0.3-1,0.5-1.8,0.7-2.3
			c0.2-0.6,0.5-0.9,1-0.9c0.2,0,0.4,0.1,0.8,0.2c0.3,0.2,0.7,0.3,1,0.5c0.3,0.2,0.6,0.4,0.9,0.7s0.4,0.4,0.4,0.6c0,0.2,0,0.4,0,0.5
			C227.5,25,227.4,25.1,227.4,25.3z M220,35.4c0-0.1-0.1-0.3-0.2-0.4c-0.2-0.2-0.3-0.3-0.6-0.5c-0.2-0.1-0.5-0.3-0.7-0.4
			c-0.3-0.1-0.5-0.2-0.8-0.2c-0.4,0-0.9,0.2-1.3,0.7s-0.9,1.1-1.3,1.9c-0.4,0.8-0.8,1.6-1.2,2.6c-0.4,1-0.7,1.9-1,2.9
			c-0.3,1-0.5,1.9-0.7,2.7c-0.2,0.9-0.2,1.6-0.2,2.1c0,0.6,0.2,1.1,0.5,1.5c0.3,0.4,0.7,0.6,1.1,0.6c0.4,0,0.8-0.2,1.2-0.5
			c0.4-0.3,0.9-0.8,1.3-1.3c0.4-0.5,0.8-1,1.1-1.6c0.3-0.6,0.6-1.1,0.7-1.6c0.3-0.8,0.5-1.6,0.8-2.5c0.3-0.9,0.5-1.8,0.7-2.6
			c0.2-0.8,0.4-1.5,0.5-2.2C219.9,36.1,220,35.6,220,35.4z"/>
		<path fill="#515151" d="M255.4,24.9c0-0.3-0.1-0.7-0.4-1.1c-0.3-0.4-0.7-0.7-1.2-0.7c-0.7,0-1.4,0.4-2.1,1.1
			c-0.8,0.7-1.5,1.7-2.3,2.8c-0.8,1.2-1.5,2.5-2.2,3.9c-0.7,1.5-1.3,2.9-1.9,4.4c-0.5,1.5-1,3-1.3,4.4c-0.3,1.4-0.5,2.6-0.5,3.7
			c0,0.6,0.1,1.3,0.4,1.9c0.3,0.6,0.6,1.2,1.1,1.7c0.4,0.5,0.9,0.9,1.4,1.2c0.5,0.3,1,0.5,1.5,0.5c0.4,0,0.8-0.1,1.3-0.4
			c0.4-0.3,0.9-0.7,1.3-1.1c0.5-0.5,0.9-1,1.4-1.6c0.5-0.6,1-1.3,1.5-1.9c0.2-0.2,0.3-0.3,0.4-0.5c0.1-0.1,0.3-0.2,0.6-0.2
			c0.1,0,0.3,0.1,0.5,0.2c0.2,0.1,0.4,0.3,0.6,0.4c0.2,0.2,0.4,0.3,0.5,0.5c0.1,0.2,0.2,0.4,0.2,0.5c0,0.2,0,0.4-0.1,0.5
			c-0.1,0.2-0.2,0.4-0.4,0.6c-0.4,0.6-0.9,1.3-1.3,2.1c-0.5,0.8-1,1.4-1.6,2.1s-1.2,1.2-1.9,1.6c-0.7,0.4-1.5,0.6-2.3,0.6
			c-0.8,0-1.8-0.2-3-0.7c-1.1-0.5-2.2-1.1-3.3-1.9c-1-0.8-1.9-1.7-2.6-2.7c-0.7-1-1.1-2-1.1-3c0-1.3,0.2-2.8,0.5-4.5
			s0.9-3.4,1.5-5.1c0.6-1.8,1.4-3.5,2.3-5.1c0.9-1.7,1.8-3.2,2.8-4.5c1-1.3,2.1-2.4,3.2-3.2c1.1-0.8,2.2-1.2,3.3-1.2
			c0.7,0,1.5,0.2,2.3,0.5s1.6,0.7,2.4,1.2c0.7,0.5,1.3,1,1.8,1.6c0.5,0.6,0.7,1.2,0.7,1.7c0,0.3-0.1,0.7-0.2,1.2
			c-0.2,0.5-0.4,1-0.6,1.6c-0.3,0.6-0.5,1.1-0.9,1.7c-0.3,0.6-0.6,1.1-0.9,1.5c-0.2,0.2-0.3,0.4-0.4,0.5c-0.1,0.1-0.3,0.2-0.5,0.2
			s-0.4,0-0.7-0.1c-0.3-0.1-0.5-0.2-0.8-0.3c-0.2-0.1-0.4-0.3-0.6-0.5c-0.2-0.2-0.3-0.4-0.3-0.6c0-0.1,0-0.3,0.1-0.5
			c0.1-0.2,0.2-0.4,0.3-0.7c0.3-0.8,0.6-1.5,0.9-2.2C255.3,26.1,255.4,25.5,255.4,24.9z"/>
		<path fill="#515151" d="M280,41.7c0.1-0.1,0.2-0.3,0.3-0.4c0.1-0.1,0.2-0.2,0.3-0.3c0.1-0.1,0.3-0.1,0.4-0.1
			c0.3,0,0.6,0.1,0.8,0.3c0.2,0.2,0.3,0.4,0.3,0.7c0,0.2,0,0.3-0.1,0.5c-0.1,0.2-0.1,0.3-0.2,0.5c-0.1,0.2-0.2,0.4-0.3,0.6
			c-0.6,1.1-1.2,2.2-1.8,3.3c-0.6,1-1.2,1.9-1.8,2.7c-0.6,0.8-1.3,1.4-2,1.9c-0.7,0.5-1.5,0.7-2.3,0.7c-0.5,0-1-0.1-1.6-0.3
			c-0.6-0.2-1.1-0.4-1.6-0.7c-0.5-0.3-0.9-0.6-1.3-0.9c-0.3-0.3-0.6-0.7-0.7-1c-0.5,0.5-1.1,1-1.6,1.4c-0.5,0.4-1,0.7-1.6,1
			c-0.6,0.3-1.2,0.5-1.8,0.5c-0.5,0-1-0.1-1.6-0.4s-1.1-0.6-1.7-1.1c-0.5-0.4-1-0.9-1.3-1.4c-0.4-0.5-0.5-1.1-0.5-1.6
			c0-1,0.1-2.1,0.4-3.3c0.3-1.2,0.6-2.4,1.1-3.7c0.5-1.2,1-2.4,1.6-3.6c0.6-1.2,1.2-2.2,1.9-3.1c0.6-0.9,1.3-1.6,2-2.2
			c0.7-0.5,1.3-0.8,2-0.8c0.6,0,1.2,0.1,1.9,0.3c0.6,0.2,1.2,0.5,1.8,0.7c0.6,0.3,1.2,0.7,1.8,1.1c0.3,0,0.6,0,1,0
			c0.4,0,0.8,0.1,1.1,0.2s0.7,0.2,0.9,0.4c0.2,0.2,0.4,0.4,0.4,0.7c0,0.2-0.1,0.7-0.2,1.3c-0.2,0.6-0.3,1.4-0.6,2.3
			c-0.2,0.9-0.5,1.8-0.8,2.8c-0.3,1-0.5,2-0.8,2.9c-0.2,0.9-0.4,1.7-0.6,2.5c-0.2,0.8-0.2,1.3-0.2,1.7c0,0.5,0.1,0.9,0.4,1.1
			s0.5,0.4,0.7,0.4c0.3,0,0.7-0.2,1.2-0.6c0.5-0.4,1-1,1.5-1.7c0.5-0.7,1-1.5,1.6-2.4C278.9,43.6,279.5,42.7,280,41.7z M271.2,35.4
			c0-0.2-0.1-0.4-0.2-0.5c-0.2-0.2-0.4-0.3-0.6-0.5c-0.2-0.1-0.5-0.2-0.7-0.3c-0.3-0.1-0.5-0.1-0.7-0.1c-0.4,0-0.8,0.2-1.3,0.7
			c-0.4,0.4-0.9,1-1.3,1.8c-0.5,0.7-0.9,1.6-1.3,2.5c-0.4,0.9-0.7,1.9-1,2.9c-0.3,1-0.5,1.9-0.7,2.9c-0.2,0.9-0.3,1.8-0.3,2.5
			c0,0.5,0.2,1,0.5,1.3c0.3,0.4,0.7,0.6,1.1,0.6c0.5,0,1.1-0.3,1.8-1c0.8-0.6,1.5-1.6,2.1-2.9c0.2-0.5,0.5-1.2,0.8-2.1
			c0.3-0.9,0.6-1.9,0.9-2.9c0.3-1,0.5-1.9,0.7-2.8C271.1,36.3,271.2,35.7,271.2,35.4z"/>
		<path fill="#515151" d="M290.7,49.3c0.3,0,0.7-0.2,1.2-0.6c0.5-0.4,1-1,1.5-1.7c0.5-0.7,1.1-1.5,1.7-2.4c0.6-0.9,1.1-1.9,1.7-2.9
			c0.1-0.1,0.1-0.3,0.3-0.4c0.1-0.1,0.2-0.2,0.3-0.3c0.1-0.1,0.3-0.1,0.4-0.1c0.3,0,0.6,0.1,0.8,0.3c0.2,0.2,0.3,0.4,0.3,0.7
			c0,0.2,0,0.3-0.1,0.5c-0.1,0.2-0.1,0.3-0.2,0.5c-0.1,0.2-0.2,0.4-0.3,0.6c-0.6,1.1-1.2,2.2-1.8,3.3c-0.6,1-1.2,1.9-1.8,2.7
			c-0.6,0.8-1.3,1.4-2,1.9s-1.5,0.7-2.3,0.7c-0.5,0-1-0.1-1.6-0.3c-0.6-0.2-1.1-0.5-1.6-0.8c-0.5-0.3-0.9-0.7-1.2-1.1
			c-0.3-0.4-0.5-0.8-0.5-1.3c0-0.9,0.1-1.9,0.4-3.1c0.3-1.2,0.5-2.4,0.8-3.6c0.3-1.2,0.6-2.3,0.8-3.3c0.3-1,0.4-1.8,0.4-2.3
			c0-0.1-0.1-0.2-0.4-0.4c-0.2-0.1-0.5-0.2-0.8-0.3c-0.3-0.1-0.7-0.2-1.1-0.3c-0.4,0.8-0.8,1.6-1.2,2.4c-0.3,0.7-0.7,1.5-1.2,2.4
			c-0.5,0.9-0.9,1.8-1.4,2.7c-0.1,0.2-0.2,0.4-0.4,0.6c-0.1,0.2-0.2,0.3-0.4,0.4c-0.1,0.1-0.3,0.2-0.4,0.2c-0.2,0-0.4-0.1-0.7-0.3
			c-0.3-0.2-0.4-0.4-0.4-0.6c0-0.3,0.1-0.6,0.2-0.9c0.1-0.1,0.1-0.3,0.2-0.5c0.4-0.7,0.8-1.6,1.2-2.4c0.4-0.9,0.8-1.7,1.1-2.4
			c0.4-0.9,0.7-1.7,1.1-2.6c-0.4-0.2-0.7-0.5-0.9-0.7c-0.2-0.2-0.4-0.5-0.6-0.8c-0.2-0.3-0.3-0.7-0.3-1.1c0-0.3,0.1-0.7,0.3-1.3
			s0.4-1.1,0.7-1.6c0.3-0.5,0.6-1,0.9-1.4c0.3-0.4,0.6-0.6,0.9-0.6c0.3,0,0.7,0.1,1,0.2c0.4,0.1,0.7,0.3,1,0.5
			c0.3,0.2,0.6,0.4,0.8,0.7c0.2,0.3,0.3,0.5,0.3,0.8c0,0.5-0.1,1-0.3,1.5c-0.2,0.5-0.3,1.1-0.3,1.7c0,0.3,0.3,0.5,0.9,0.7
			c0.6,0.2,1.2,0.5,1.9,0.7c0.7,0.2,1.3,0.5,1.9,0.8s0.9,0.7,0.9,1.2c0,0.2-0.1,0.7-0.2,1.2c-0.1,0.6-0.3,1.3-0.5,2
			c-0.2,0.8-0.4,1.6-0.7,2.4c-0.2,0.9-0.5,1.7-0.7,2.5c-0.2,0.8-0.4,1.6-0.5,2.3c-0.1,0.7-0.2,1.3-0.2,1.7c0,0.2,0.1,0.5,0.4,0.8
			C290.2,49.1,290.5,49.3,290.7,49.3z"/>
		<path fill="#515151" d="M300.7,43.6c0,0.2,0,0.5,0,0.7c0,0.2,0,0.4,0,0.6c0,0.8,0.1,1.4,0.5,1.9c0.3,0.5,0.7,1,1.1,1.3
			c0.5,0.3,0.9,0.6,1.5,0.8c0.5,0.2,1.1,0.2,1.6,0.2c1.2,0,2.5-0.6,3.8-1.9c1.4-1.3,2.7-3.1,3.9-5.7c0.1-0.1,0.1-0.3,0.3-0.4
			c0.1-0.1,0.2-0.2,0.3-0.3c0.1-0.1,0.3-0.1,0.4-0.1c0.3,0,0.6,0.1,0.8,0.3c0.2,0.2,0.3,0.4,0.3,0.7c0,0.2,0,0.3-0.1,0.5
			c-0.1,0.2-0.1,0.3-0.2,0.5c-0.1,0.2-0.2,0.4-0.3,0.6c-0.6,1.2-1.3,2.4-2,3.4c-0.7,1.1-1.5,2-2.4,2.7c-0.9,0.8-1.8,1.4-2.7,1.8
			s-2,0.7-3,0.7c-0.8,0-1.7-0.2-2.7-0.5c-1-0.4-1.9-0.8-2.8-1.4c-0.9-0.6-1.6-1.3-2.1-2.1c-0.6-0.8-0.9-1.6-0.9-2.4
			c0-1.8,0.3-3.5,0.9-5.3s1.3-3.3,2.2-4.7s1.9-2.5,2.9-3.4c1.1-0.9,2.1-1.3,3-1.3c0.7,0,1.4,0.1,2.1,0.4c0.7,0.3,1.3,0.6,1.9,1
			c0.5,0.4,1,0.8,1.3,1.3c0.3,0.5,0.5,0.9,0.5,1.4c0,0.8-0.2,1.7-0.5,2.8c-0.4,1.1-0.8,2.1-1.4,3.1c-0.6,1-1.2,1.8-2,2.5
			c-0.7,0.7-1.5,1-2.2,1c-0.5,0-1,0-1.5-0.1c-0.5-0.1-0.9-0.1-1.3-0.2C301.5,43.9,301.1,43.8,300.7,43.6z M301.1,41.8
			c0.9,0,1.8-0.3,2.5-0.8c0.8-0.6,1.4-1.2,1.9-2c0.5-0.8,1-1.5,1.2-2.3c0.3-0.8,0.4-1.4,0.4-2c0-0.2-0.1-0.5-0.4-0.7
			c-0.3-0.3-0.5-0.4-0.7-0.4c-0.5,0-1,0.3-1.6,0.9c-0.6,0.6-1.1,1.3-1.6,2.1c-0.5,0.8-0.9,1.7-1.2,2.7
			C301.4,40.2,301.2,41,301.1,41.8z"/>
	</g>
	<g>
		<path fill="#8E8E8E" d="M84.3,76.6c0,2.3-1.1,3.4-3.4,3.4h-2.4c-2.3,0-3.4-1.1-3.4-3.4v-6.8c0-2.3,1.1-3.4,3.4-3.4h2.4
			c2.3,0,3.4,1.1,3.4,3.4V76.6z M76.9,76.6c0,1,0.5,1.5,1.5,1.5h2.4c1,0,1.5-0.5,1.5-1.5v-6.8c0-1-0.5-1.5-1.5-1.5h-2.4
			c-1,0-1.5,0.5-1.5,1.5V76.6z"/>
		<path fill="#8E8E8E" d="M88.2,71.3c0.7-0.7,1.5-1,2.4-1c2.3,0,3.4,1.1,3.4,3.4v2.9c0,2.3-1.1,3.4-3.4,3.4c-1,0-1.8-0.3-2.4-1
			l-0.3,1h-1.7V66.4h2V71.3z M90.6,78.1c1,0,1.5-0.5,1.5-1.5v-2.9c0-1-0.5-1.5-1.5-1.5s-1.8,0.2-2.4,0.5v4.9
			C88.8,77.9,89.6,78.1,90.6,78.1z"/>
		<path fill="#8E8E8E" d="M96,80.1v-2h4.4c0.7,0,1-0.3,1-1c0-0.7-0.3-1.1-1-1.1h-1.5c-2,0-2.9-0.9-2.9-2.8c0-2,1-2.9,2.9-2.9h4.4v2
			h-4.4c-0.7,0-1,0.3-1,1c0,0.6,0.3,0.9,1,0.9h1.5c2,0,2.9,1,2.9,3c0,2-1,2.9-2.9,2.9H96z"/>
		<path fill="#8E8E8E" d="M108.7,76.6c0,1,0.5,1.5,1.5,1.5h1v2h-1c-2.3,0-3.4-1.1-3.4-3.4v-4.4h-1.5v-2h1.5v-2.9l2-1v3.9h2.4v2h-2.4
			V76.6z"/>
		<path fill="#8E8E8E" d="M115,76v0.7c0,1,0.5,1.5,1.5,1.5h3.9v2h-3.9c-2.3,0-3.4-1.1-3.4-3.4v-2.9c0-2.3,1.1-3.4,3.4-3.4h1
			c2.3,0,3.4,1.1,3.4,3.4V76H115z M115,74.4h3.9v-0.7c0-1-0.5-1.5-1.5-1.5h-1c-1,0-1.5,0.5-1.5,1.5V74.4z"/>
		<path fill="#8E8E8E" d="M126.2,76.6c0,1,0.5,1.5,1.5,1.5h1v2h-1c-2.3,0-3.4-1.1-3.4-3.4v-4.4h-1.5v-2h1.5v-2.9l2-1v3.9h2.4v2h-2.4
			V76.6z"/>
		<path fill="#8E8E8E" d="M132.6,80.1h-2v-9.8h1.7l0.3,1c0.7-0.7,1.5-1,2.4-1h0.5v2H135c-1,0-1.8,0.2-2.4,0.5V80.1z"/>
		<path fill="#8E8E8E" d="M138.9,66.4v2h-2v-2H138.9z M138.9,70.3v9.8h-2v-9.8H138.9z"/>
		<path fill="#8E8E8E" d="M142.8,76.6c0,1,0.5,1.5,1.5,1.5h3.9v2h-3.9c-2.3,0-3.4-1.1-3.4-3.4v-2.9c0-2.3,1.1-3.4,3.4-3.4h3.9v2
			h-3.9c-1,0-1.5,0.5-1.5,1.5V76.6z"/>
		<path fill="#8E8E8E" d="M150.2,80.1v-2h4.4c0.7,0,1-0.3,1-1c0-0.7-0.3-1.1-1-1.1h-1.5c-2,0-2.9-0.9-2.9-2.8c0-2,1-2.9,2.9-2.9h4.4
			v2h-4.4c-0.7,0-1,0.3-1,1c0,0.6,0.3,0.9,1,0.9h1.5c2,0,2.9,1,2.9,3c0,2-1,2.9-2.9,2.9H150.2z"/>
		<path fill="#8E8E8E" d="M165.3,76.6c0,1,0.5,1.5,1.5,1.5h2c1,0,1.5-0.5,1.5-1.5v-2.4h-2.9v-2h4.9v4.4c0,2.3-1.1,3.4-3.4,3.4h-2
			c-2.3,0-3.4-1.1-3.4-3.4v-6.8c0-2.3,1.1-3.4,3.4-3.4h5.4v2h-5.4c-1,0-1.5,0.5-1.5,1.5V76.6z"/>
		<path fill="#8E8E8E" d="M181.9,70.3v9.8c0,2.6-1.3,3.9-3.9,3.9h-2.9v-2h2.9c1.3,0,2-0.7,2-2v-1c-0.7,0.7-1.5,1-2.4,1
			c-2.3,0-3.4-1.1-3.4-3.4v-6.3h2v6.3c0,1,0.5,1.5,1.5,1.5s1.8-0.2,2.4-0.5v-7.3H181.9z"/>
		<path fill="#8E8E8E" d="M185.8,80.1h-2v-9.8h1.7l0.3,1c0.7-0.7,1.5-1,2.4-1c2.3,0,3.4,1.1,3.4,3.4v6.3h-2v-6.3
			c0-1-0.5-1.5-1.5-1.5s-1.8,0.2-2.4,0.5V80.1z"/>
		<path fill="#8E8E8E" d="M195.6,76v0.7c0,1,0.5,1.5,1.5,1.5h3.9v2h-3.9c-2.3,0-3.4-1.1-3.4-3.4v-2.9c0-2.3,1.1-3.4,3.4-3.4h1
			c2.3,0,3.4,1.1,3.4,3.4V76H195.6z M195.6,74.4h3.9v-0.7c0-1-0.5-1.5-1.5-1.5h-1c-1,0-1.5,0.5-1.5,1.5V74.4z"/>
		<path fill="#8E8E8E" d="M205.4,76.6c0,1,0.5,1.5,1.5,1.5h3.9v2h-3.9c-2.3,0-3.4-1.1-3.4-3.4v-2.9c0-2.3,1.1-3.4,3.4-3.4h3.9v2
			h-3.9c-1,0-1.5,0.5-1.5,1.5V76.6z"/>
		<path fill="#8E8E8E" d="M220.5,77.1c0,2-1,2.9-2.9,2.9h-2c-2,0-2.9-1-2.9-2.9v-3.9c0-2,1-2.9,2.9-2.9h2c2,0,2.9,1,2.9,2.9V77.1z
			 M214.6,77.1c0,0.7,0.3,1,1,1h2c0.7,0,1-0.3,1-1v-3.9c0-0.6-0.3-0.9-1-0.9h-2c-0.7,0-1,0.3-1,0.9V77.1z"/>
		<path fill="#8E8E8E" d="M224.4,66.4v13.7h-2V66.4H224.4z"/>
		<path fill="#8E8E8E" d="M234.2,77.1c0,2-1,2.9-2.9,2.9h-2c-2,0-2.9-1-2.9-2.9v-3.9c0-2,1-2.9,2.9-2.9h2c2,0,2.9,1,2.9,2.9V77.1z
			 M228.3,77.1c0,0.7,0.3,1,1,1h2c0.7,0,1-0.3,1-1v-3.9c0-0.6-0.3-0.9-1-0.9h-2c-0.7,0-1,0.3-1,0.9V77.1z"/>
		<path fill="#8E8E8E" d="M242,79.1c-0.7,0.7-1.5,1-2.4,1c-2.3,0-3.4-1.1-3.4-3.4v-2.9c0-2.3,1.1-3.4,3.4-3.4c1,0,1.8,0.3,2.4,1
			l0.3-1h1.7v9.8c0,2.6-1.3,3.9-3.9,3.9h-2.9v-2h2.9c1.3,0,2-0.7,2-2V79.1z M239.5,72.3c-1,0-1.5,0.5-1.5,1.5v2.9
			c0,1,0.5,1.5,1.5,1.5s1.8-0.2,2.4-0.5v-4.9C241.3,72.4,240.5,72.3,239.5,72.3z"/>
		<path fill="#8E8E8E" d="M253.7,70.3v9.8c0,2.6-1.3,3.9-3.9,3.9h-2.9v-2h2.9c1.3,0,2-0.7,2-2v-1c-0.7,0.7-1.5,1-2.4,1
			c-2.3,0-3.4-1.1-3.4-3.4v-6.3h2v6.3c0,1,0.5,1.5,1.5,1.5s1.8-0.2,2.4-0.5v-7.3H253.7z"/>
		<path fill="#8E8E8E" d="M261.5,66.4v13.7h-2V66.4H261.5z"/>
		<path fill="#8E8E8E" d="M265.4,80.1h-2v-9.8h1.7l0.3,1c0.7-0.7,1.5-1,2.4-1c2.3,0,3.4,1.1,3.4,3.4v6.3h-2v-6.3
			c0-1-0.5-1.5-1.5-1.5s-1.8,0.2-2.4,0.5V80.1z"/>
		<path fill="#8E8E8E" d="M276.7,70.3h2.4v2h-2.4v7.8h-2v-7.8h-1.5v-2h1.5v-0.5c0-2.3,1.1-3.4,3.4-3.4h1v2h-1c-1,0-1.5,0.5-1.5,1.5
			V70.3z"/>
		<path fill="#8E8E8E" d="M283,76v0.7c0,1,0.5,1.5,1.5,1.5h3.9v2h-3.9c-2.3,0-3.4-1.1-3.4-3.4v-2.9c0-2.3,1.1-3.4,3.4-3.4h1
			c2.3,0,3.4,1.1,3.4,3.4V76H283z M283,74.4h3.9v-0.7c0-1-0.5-1.5-1.5-1.5h-1c-1,0-1.5,0.5-1.5,1.5V74.4z"/>
		<path fill="#8E8E8E" d="M292.8,80.1h-2v-9.8h1.7l0.3,1c0.7-0.7,1.5-1,2.4-1h0.5v2h-0.5c-1,0-1.8,0.2-2.4,0.5V80.1z"/>
		<path fill="#8E8E8E" d="M300.6,76.6c0,1,0.5,1.5,1.5,1.5h1v2h-1c-2.3,0-3.4-1.1-3.4-3.4v-4.4h-1.5v-2h1.5v-2.9l2-1v3.9h2.4v2h-2.4
			V76.6z"/>
		<path fill="#8E8E8E" d="M306.9,66.4v2h-2v-2H306.9z M306.9,70.3v9.8h-2v-9.8H306.9z"/>
		<path fill="#8E8E8E" d="M310.8,66.4v13.7h-2V66.4H310.8z"/>
		<path fill="#8E8E8E" d="M314.7,66.4v2h-2v-2H314.7z M314.7,70.3v9.8h-2v-9.8H314.7z"/>
		<path fill="#8E8E8E" d="M320.1,76.6c0,1,0.5,1.5,1.5,1.5h1v2h-1c-2.3,0-3.4-1.1-3.4-3.4v-4.4h-1.5v-2h1.5v-2.9l2-1v3.9h2.4v2h-2.4
			V76.6z"/>
		<path fill="#8E8E8E" d="M332.3,70.3v9.8c0,2.6-1.3,3.9-3.9,3.9h-2.9v-2h2.9c1.3,0,2-0.7,2-2v-1c-0.7,0.7-1.5,1-2.4,1
			c-2.3,0-3.4-1.1-3.4-3.4v-6.3h2v6.3c0,1,0.5,1.5,1.5,1.5s1.8-0.2,2.4-0.5v-7.3H332.3z"/>
	</g>
</g>
</svg>
