<?xml version="1.0" encoding="utf-8"?>
<!-- Generator: Adobe Illustrator 17.1.0, SVG Export Plug-In . SVG Version: 6.00 Build 0)  -->
<!DOCTYPE svg PUBLIC "-//W3C//DTD SVG 1.1//EN" "http://www.w3.org/Graphics/SVG/1.1/DTD/svg11.dtd">
<svg version="1.1" id="Capa_1" xmlns="http://www.w3.org/2000/svg" xmlns:xlink="http://www.w3.org/1999/xlink" x="0px" y="0px"
	 width="560px" height="470.2px" viewBox="0 0 560 470.2" enable-background="new 0 0 560 470.2" xml:space="preserve">
<g>
	<path d="M80.3,153.3l-37.6-16.2l39.9-9l3.8-40.7l20.9,35.2l39.9-9l-27,30.8l20.9,35.2l-37.6-16.2l-27,30.8L80.3,153.3z
		 M287.2,156.9l-219.8,55l1.8,7.3l219.9-55L287.2,156.9z M294.8,187.3l-219.8,55l1.8,7.3l219.8-55L294.8,187.3z M302.1,216.5
		l-219.8,55l1.8,7.3l219.8-55L302.1,216.5z M309.6,246.8l-219.8,55l1.8,7.3l219.8-55L309.6,246.8z M316.5,274.1L96.7,329.2l1.8,7.3
		l219.8-55L316.5,274.1z M324.1,304.5l-219.8,55l1.8,7.3l219.8-55L324.1,304.5z M331.4,333.6l-219.8,55l1.8,7.3l219.8-55
		L331.4,333.6z M339,363.9L119.2,419l1.8,7.2l219.8-55L339,363.9z M559.7,88.2L454,459.5c-1.2,4.2-5.6,6.6-9.8,5.4l-144.5-41.1
		L95.6,470c-4.3,1-8.6-1.7-9.5-6L0.2,84.5c-1-4.3,1.7-8.6,6-9.6l260.7-59l2.9-10.1c1.2-4.2,5.6-6.7,9.8-5.5l274.5,78.1
		C558.4,79.6,560.9,84,559.7,88.2z M364.9,392.7L282.6,28.8l-265,60l82.2,363.9L364.9,392.7z M542.2,91.5L297.4,21.8L310.6,80
		l10.3,3l22.7-33.7l1.5,40.6l39,11.1l-38.2,14l1.5,40.6l-25-32l-1.8,0.7l9.2,40.7l155.6,40.5l-1.9,7.2L331.6,173l5.8,25.9
		l140.1,36.4l-1.9,7.2l-136.3-35.5l5.6,24.5L470,264.2l-1.9,7.2l-121.4-31.6l5.9,25.9l109.6,28.5l-1.9,7.2l-105.9-27.6l5.1,22.5
		l95.6,24.9l-1.8,7.2l-92-23.9l5.9,25.8l80.2,20.9l-1.9,7.2l-76.4-19.9l5.6,24.6l65.2,16.9l-1.8,7.2l-61.5-16l5.8,25.6
		c0,0.1,0,0.2,0,0.3l49.8,13l-1.9,7.2l-50.2-13c-1,1-2.2,1.8-3.7,2.2l-44.2,10l108.9,31L542.2,91.5z"/>
</g>
</svg>
