<?xml version="1.0" encoding="utf-8"?>
<!-- Generator: Adobe Illustrator 17.1.0, SVG Export Plug-In . SVG Version: 6.00 Build 0)  -->
<!DOCTYPE svg PUBLIC "-//W3C//DTD SVG 1.1//EN" "http://www.w3.org/Graphics/SVG/1.1/DTD/svg11.dtd">
<svg version="1.1" id="Capa_1" xmlns="http://www.w3.org/2000/svg" xmlns:xlink="http://www.w3.org/1999/xlink" x="0px" y="0px"
	 width="560px" height="547.7px" viewBox="0 0 560 547.7" enable-background="new 0 0 560 547.7" xml:space="preserve">
<g>
	<g>
		<g>
			<path d="M119.1,83.5c-5.2,5.9-7.8,12.8-7.8,20.9c0,7.9,2.2,14.5,6.6,19.9c4.5,5.4,12.1,9.4,22.6,12.1V72.6
				C131.4,74,124.3,77.6,119.1,83.5z"/>
			<path d="M154.4,164.1v69.8c9.1-1.1,16.6-5,22.5-11.8c5.9-6.7,8.9-15.1,8.9-25c0-8.5-2.2-15.3-6.3-20.5
				C175.4,171.6,167,167.3,154.4,164.1z"/>
			<path d="M534.3,318.9l0.9,1.4l-21.4-73c-2.7-9.3-8.9-17-17.4-21.6c-8.5-4.6-18.3-5.7-27.6-3l-4.4,1.3
				c-7.3,2.1-12.3,7.8-16.9,13.6c-6.5-17.9-25.4-28.3-43.9-22.9l-10.3,3c-6.7,2-11.9,6.5-16.3,11.4c0-0.2-0.6-2.3-0.6-2.3
				c-5.6-19.2-25.9-30.2-45.1-24.6l-10.3,3c-6.4,1.9-10.4,7.2-14.8,11.9c-4.5-15.2-8.9-30.4-12.7-43.2V58c0-31.9-26.1-58-58-58H58
				C26.1,0,0,26.1,0,58v203c0,31.9,26.1,58,58,58h177.7c4.5,0,8.9-0.6,13.2-1.7c3.3,11.2,5.5,18.8,5.8,20
				c-5.5,16.8-15.5,69.5-18.9,86.8c0,5.7,2.5,28,19.6,39.9l103.5,66.4c2.5,1.5,3.8,2.4,3.8,2.4c24.5,13.9,47.9,18,68.2,12.1
				l61.1-17.9c41.3-12.1,68.5-62.5,68-101.9C559.6,402.3,543.3,336.9,534.3,318.9z M375.2,512.8c-2.1-1.2-4.1-2.5-4.1-2.5
				c0.4,0.3-102.2-65.4-102.2-65.4c-6.9-4.8-9.4-15.8-9.8-19.6c6.9-34.5,15.8-77.1,18.5-83.1l1.7-3.9l-1.1-4.4l-51.1-174.4
				c-1.9-6.6,2-13.9,8.7-15.8l10.3-3c6.7-2,13.8,1.9,15.8,8.6l51.6,176.1l26.5-9.3l-2.9-10.8l-18-61.6c-0.9-3.2-0.5-6.6,1.1-9.6
				c1.7-3,4.4-5.2,7.6-6.2l10.3-3c6.8-2,13.8,1.9,15.8,8.7l22,75l29.5-5.3l-3.8-12.5l-10.2-34.6c-2-6.7,1.9-13.8,8.7-15.8l10.3-3
				c6.7-2,13.8,1.9,15.8,8.7l15.3,52l30.4-3.4l-3.8-13.5l-5.5-18.7c-0.9-3.3-0.5-6.7,1.1-9.7c1.6-3,4.3-5.1,7.5-6.1l4.5-1.3
				c3.2-1,6.6-0.6,9.6,1.1c3,1.6,5.2,4.3,6.2,7.6l21.5,73.4l0.2,0.6c2.7,7.3,22.9,68.8,23.5,97.6c0.4,30.1-20.5,70-51,79l-61.1,17.9
				C406.7,527.6,387.8,520.1,375.2,512.8z M194.3,236.1c-10.3,10.8-23.5,16.6-40,17.4v23.7h-13.8v0v-23.4c-11.6-1.4-21.1-4-28.5-7.9
				c-7.3-3.7-13.6-9.9-18.8-18.3c-5.4-8.4-8.4-18.7-9.2-30.9l23.5-4.5c1.9,12.6,5,21.8,9.5,27.7c6.5,8.3,14.4,13,23.5,13.9v-73.3
				c-9.5-2.5-19.3-6.5-29.4-12.2c-7.5-4.2-13.2-9.9-17.2-17.3c-4.1-7.4-6.1-15.7-6.1-25c0-16.6,5.9-30,17.6-40.3
				c7.8-6.9,19.5-11.2,35-12.7V41.8h13.9v11.2c13.5,1.3,24.3,5.3,32.2,12c10.2,8.5,16.3,20.3,18.4,35.1l-24,3.6
				c-1.4-9.2-4.3-16.2-8.6-21.1c-4.3-4.9-10.3-8.1-17.9-9.7v67c11.8,3,19.5,5.4,23.4,7c7.2,3.2,13.1,7.1,17.8,11.7
				c4.6,4.6,8.1,10,10.5,16.4c2.5,6.3,3.7,13.2,3.7,20.5C209.8,211.8,204.7,225.3,194.3,236.1z"/>
		</g>
	</g>
</g>
</svg>
