<?xml version="1.0" encoding="utf-8"?>
<!-- Generator: Adobe Illustrator 17.1.0, SVG Export Plug-In . SVG Version: 6.00 Build 0)  -->
<!DOCTYPE svg PUBLIC "-//W3C//DTD SVG 1.1//EN" "http://www.w3.org/Graphics/SVG/1.1/DTD/svg11.dtd">
<svg version="1.1" id="Capa_1" xmlns="http://www.w3.org/2000/svg" xmlns:xlink="http://www.w3.org/1999/xlink" x="0px" y="0px"
	 width="560px" height="558.7px" viewBox="0 0.6 560 558.7" enable-background="new 0 0.6 560 558.7" xml:space="preserve">
<g>
	<g>
		<path d="M547.4,442.6L461,356.1c-17.2-17.2-45.8-16.6-63.6,1.2l-43.6,43.6c-2.8-1.5-5.6-3.1-8.6-4.8
			c-27.5-15.2-65.2-36.1-104.8-75.8c-39.7-39.7-60.7-77.5-75.9-105c-1.6-2.9-3.2-5.7-4.7-8.4l29.2-29.2l14.4-14.4
			c17.9-17.9,18.4-46.4,1.2-63.6l-86.5-86.5C100.9-4,72.3-3.5,54.5,14.4L30.1,38.9l0.7,0.7C22.6,50,15.8,62,10.7,75
			C6,87.3,3.1,99.1,1.8,110.9C-9.6,205.6,33.6,292.1,151,409.5c162.3,162.3,293.1,150,298.7,149.4c12.3-1.5,24.1-4.4,36-9.1
			c12.9-5,24.9-11.8,35.3-20l0.5,0.5l24.7-24.2C564.1,488.3,564.6,459.8,547.4,442.6z M527.1,486.9l-10.9,10.9l-4.3,4.2
			c-6.8,6.6-18.6,15.9-35.9,22.6c-9.8,3.8-19.4,6.2-29.3,7.4c-1.2,0.1-124.2,10.6-276.5-141.6C40.8,260.9,20,186.3,28.7,114
			c1.1-9.6,3.5-19.2,7.3-29.3c6.8-17.4,16.1-29.2,22.6-36l15-15.2c7.3-7.3,18.6-7.8,25.2-1.2l86.5,86.5c6.6,6.6,6.1,17.9-1.2,25.2
			l-58.4,58.3l5.4,9.1c3,5.1,6.2,10.7,9.5,16.9c16.1,29,38,68.6,80.5,111c42.3,42.4,81.9,64.3,110.8,80.3c6.2,3.5,11.9,6.6,17.1,9.7
			l9.1,5.4l58.4-58.4c7.3-7.3,18.6-7.8,25.3-1.2l86.4,86.5C534.9,468.4,534.3,479.7,527.1,486.9z"/>
	</g>
</g>
</svg>
