<?xml version="1.0" encoding="utf-8"?>
<!-- Generator: Adobe Illustrator 17.1.0, SVG Export Plug-In . SVG Version: 6.00 Build 0)  -->
<!DOCTYPE svg PUBLIC "-//W3C//DTD SVG 1.1//EN" "http://www.w3.org/Graphics/SVG/1.1/DTD/svg11.dtd">
<svg version="1.1" id="Capa_1" xmlns="http://www.w3.org/2000/svg" xmlns:xlink="http://www.w3.org/1999/xlink" x="0px" y="0px"
	 width="419.2px" height="484.8px" viewBox="0 0 419.2 484.8" enable-background="new 0 0 419.2 484.8" xml:space="preserve">
<g>
	<g id="Layer_2_44_">
		<g>
			<path d="M115.1,344.4c-7.9,0-14.2,6.4-14.2,14.2c0,7.9,6.4,14.2,14.2,14.2c7.9,0,14.2-6.4,14.2-14.2
				C129.3,350.7,123,344.4,115.1,344.4z"/>
			<path d="M341.1,332.4c-16.8-6-30.2-12.3-41.1-19c-1.9-1.3-2.6-1.4-4.3-2.4c-6.1-3.4-12-0.6-13.7,1.6c-0.5,0.6-0.9,1.2-1.4,1.8
				c-12.8,14.9-54.7,33-54.7,33c-3.3,0.9-5.7,3.9-5.7,7.5c0,0,0,0,0,0l0,0l0.1,51.6c0,31.8-25.7,57.7-57.2,57.7
				c-31.6,0-57.2-25.9-57.2-57.7v-21.6c-10.9-3.8-18.7-14.1-18.7-26.3c0-15.4,12.5-27.8,27.8-27.8c15.4,0,27.8,12.5,27.8,27.8
				c0,11.9-7.5,22-18,26v20.9c0,22.5,17.2,40.9,38.3,40.9c21.1,0,38.3-18.3,38.3-40.9l0.1-50.3l0,0c0,0,0,0,0,0l0-0.3c0,0,0,0,0,0
				c-0.2-3.2-2.5-5.6-5.2-6.9c0,0-44.7-22.3-57.8-39c-1.7-2.2-7.6-4.9-13.7-1.6c-11.4,6.3-27,11.5-46.7,18.6
				C17.5,347.7,0,370,0,385.2c0,15.2,0,99.6,0,99.6h209.4h0.3h209.4c0,0,0-84.4,0-99.6C419.2,370,401.7,354.3,341.1,332.4z"/>
			<path d="M110.7,146.2c3.1,41,19.4,23.3,22.8,41.3c6.6,35.3,20.1,36.7,24.9,48.8c1.1,2.7,1.7,15.8,1.7,20.1
				c0,14.5-0.8,22.2-6.5,29.6c-1.3,1.7-3.5,7.1-0.7,11.3c12.6,18.8,36.9,34.6,59.7,34.8c22.8-0.3,47.1-16.1,59.7-34.8
				c2.8-4.1,0.6-9.6-0.7-11.3c-5.7-7.4-6.5-15.1-6.5-29.6c0-4.3,0.6-17.4,1.7-20.1c4.7-12.2,18.2-13.5,24.9-48.8
				c3.4-18,19.7-0.3,22.8-41.3c0-16.3-8.9-20.4-8.9-20.4s4.5-24.2,6.3-42.8C314.1,59.9,298.3,0,214.4,0c-0.3,0-1.3,0-1.9,0
				c-0.5,0-1.6,0-1.9,0c-83.9,0-99.6,59.9-97.4,83.1c1.8,18.6,6.3,42.8,6.3,42.8S110.7,129.9,110.7,146.2z"/>
		</g>
	</g>
</g>
</svg>
